<svg width="23" height="21" viewBox="0 0 23 21" fill="none" xmlns="http://www.w3.org/2000/svg">
<path fill-rule="evenodd" clip-rule="evenodd" d="M7.83667 0.818115H16.0867C19.883 0.818115 22.9617 3.64231 22.9617 7.12494V14.6931C22.9617 18.1757 19.883 20.9999 16.0867 20.9999H7.83667C4.04029 20.9999 0.96167 18.1757 0.96167 14.6931V7.12494C0.96167 3.64231 4.04029 0.818115 7.83667 0.818115ZM16.0867 19.1079C18.7404 19.1079 20.8992 17.1276 20.8992 14.6932V7.12497C20.8992 4.69054 18.7404 2.71019 16.0867 2.71019H7.83667C5.18292 2.71019 3.02417 4.69054 3.02417 7.12497V14.6932C3.02417 17.1276 5.18292 19.1079 7.83667 19.1079H16.0867Z" fill="#002C3E"/>
<path fill-rule="evenodd" clip-rule="evenodd" d="M6.46167 10.909C6.46167 8.12263 8.92429 5.86353 11.9617 5.86353C14.999 5.86353 17.4617 8.12263 17.4617 10.909C17.4617 13.6953 14.999 15.9544 11.9617 15.9544C8.92429 15.9544 6.46167 13.6953 6.46167 10.909ZM8.52417 10.909C8.52417 12.6472 10.0669 14.0624 11.9617 14.0624C13.8564 14.0624 15.3992 12.6472 15.3992 10.909C15.3992 9.16959 13.8564 7.7556 11.9617 7.7556C10.0669 7.7556 8.52417 9.16959 8.52417 10.909Z" fill="#002C3E"/>
<ellipse cx="17.8742" cy="5.48505" rx="0.732875" ry="0.672307" fill="#002C3E"/>
</svg>
