<svg width="196" height="304" viewBox="0 0 196 304" fill="none" xmlns="http://www.w3.org/2000/svg">
<path d="M68.7894 294.69C69.3002 294.177 69.5445 293.415 69.3774 292.656C69.1118 291.472 67.9281 290.731 66.7444 291.001L37.8855 297.538C49.0432 285.983 67.3259 265.311 82.2331 240.145C96.443 216.157 104.378 193.669 105.994 172.92C117.919 168.615 129.385 162.626 139.873 155.169C156.519 143.337 170.487 127.973 180.259 110.738C189.991 93.5773 194.944 76.1329 195.4 57.3983C195.822 40.1815 192.408 22.1525 184.961 2.29302C184.535 1.15786 183.266 0.581099 182.13 1.00758C180.994 1.43406 180.415 2.69792 180.843 3.8374C195.773 43.661 194.372 76.9393 176.432 108.573C166.97 125.253 153.451 140.129 137.321 151.59C127.672 158.449 117.171 164.026 106.252 168.14C106.544 158.742 105.505 149.714 103.128 141.085C99.6574 128.5 94.2325 117.212 87.4313 108.45C79.3472 98.027 69.5899 91.3435 58.4389 88.5744C45.9771 85.4781 31.7152 88.064 20.2972 95.4791C10.0658 102.123 3.38124 111.718 1.47311 122.496C-0.192943 131.914 1.65871 141.779 6.82673 151.036C11.642 159.662 19.0526 167.065 27.6953 171.891C46.9276 182.624 69.2634 181.524 84.6188 178.712C90.2618 177.677 95.8722 176.26 101.396 174.484C96.4044 225.332 53.6168 274.867 34.8218 294.374L41.0785 265.587C41.3362 264.402 40.5842 263.226 39.3994 262.973C38.2138 262.716 37.0392 263.48 36.7799 264.657L28.9077 300.871C28.7517 301.603 28.9738 302.37 29.5086 302.899C30.0433 303.427 30.8095 303.644 31.5438 303.482L67.7086 295.29C68.1329 295.191 68.4996 294.978 68.785 294.691L68.7894 294.69ZM29.8427 168.056C21.9016 163.625 15.0923 156.819 10.6661 148.896C5.99926 140.533 4.31666 131.672 5.80339 123.264C7.49497 113.698 13.4913 105.142 22.6905 99.1644C33.1092 92.4001 46.0749 90.0342 57.3764 92.8417C66.3805 95.076 88.4438 104.367 98.8896 142.258C99.4731 144.383 99.9679 146.511 100.375 148.652C101.706 155.639 102.11 162.699 101.752 169.748C95.8603 171.733 89.865 173.29 83.8282 174.395C69.1818 177.076 47.9291 178.153 29.8383 168.057L29.8427 168.056Z" fill="#032C3F"/>
</svg>
