<svg width="189" height="223" viewBox="0 0 189 223" fill="none" xmlns="http://www.w3.org/2000/svg">
<path d="M186.582 221.296C187.269 221.272 187.904 220.898 188.261 220.303C188.618 219.708 188.647 218.975 188.34 218.364L173.256 188.065C173.079 187.709 172.812 187.432 172.491 187.242C171.923 186.904 171.191 186.859 170.551 187.182C169.553 187.687 169.147 188.903 169.64 189.895L181.641 213.998C142.306 190.161 107.087 159.958 76.9156 124.168C45.9034 87.3824 21.5853 46.3178 4.63311 2.11022C4.23423 1.07495 3.07129 0.565594 2.03144 0.976234C1.76005 1.08323 1.52544 1.23848 1.33338 1.43054C0.782997 1.98092 0.573016 2.8201 0.865119 3.58806C17.9745 48.2109 42.5214 89.659 73.8196 126.782C104.294 162.926 139.871 193.43 179.609 217.499L152.493 218.43C151.379 218.468 150.493 219.399 150.521 220.511C150.549 221.622 151.481 222.492 152.585 222.46L186.582 221.296Z" fill="#032C3F"/>
</svg>
