<svg width="800" height="800" viewBox="0 0 800 800" fill="none" xmlns="http://www.w3.org/2000/svg">
<g clip-path="url(#clip0_2028_33)">
<path d="M98.5235 269.463H105.638C130.336 270 154.631 279.933 172.081 297.517C165.638 304.094 159.06 310.403 152.752 316.98C142.953 308.121 131.141 301.275 118.255 298.859C99.1946 294.832 78.6577 298.456 62.6846 309.329C45.2349 320.738 33.4228 340.067 30.8725 360.738C28.0537 381.141 33.8255 402.618 47.1141 418.456C59.8658 433.893 79.3289 443.557 99.4631 444.228C118.255 445.302 137.852 439.53 151.544 426.376C162.282 417.114 167.248 403.02 168.859 389.329C146.577 389.329 124.295 389.463 102.013 389.329V361.678H195.839C200.671 391.342 193.691 424.765 171.141 445.973C156.107 461.007 135.302 469.866 114.094 471.611C93.557 473.624 72.349 469.732 54.094 459.799C32.2148 448.121 14.7651 428.389 6.1745 405.168C-1.87919 383.826 -2.01342 359.664 5.50336 338.188C12.349 318.591 25.5034 301.275 42.4161 289.195C58.6577 277.248 78.3893 270.671 98.5235 269.463Z" fill="#3780FF"/>
<path d="M636.779 276.443H665.503V468.121C655.973 468.121 646.309 468.255 636.779 467.987C636.913 404.228 636.779 340.336 636.779 276.443Z" fill="#38B137"/>
<path d="M259.732 342.886C277.45 339.53 296.644 343.289 311.275 353.893C324.564 363.289 333.826 378.054 336.644 394.161C340.268 412.819 335.705 433.221 323.624 447.987C310.604 464.497 289.262 473.356 268.456 472.013C249.396 470.94 230.873 461.409 219.597 445.839C206.846 428.658 203.758 405.034 210.738 384.899C217.718 363.289 237.45 346.779 259.732 342.886ZM263.758 368.389C256.51 370.268 249.799 374.43 244.966 380.336C231.946 395.906 232.752 421.275 247.114 435.772C255.302 444.094 267.651 447.987 279.06 445.705C289.664 443.826 298.926 436.711 304.027 427.315C312.886 411.342 310.336 389.329 296.779 376.846C288.054 368.792 275.302 365.436 263.758 368.389Z" fill="#FA3913"/>
<path d="M402.013 342.886C422.282 338.993 444.429 344.631 459.597 358.859C484.295 381.007 486.98 422.483 465.906 447.987C453.154 464.094 432.483 472.953 412.08 472.013C392.617 471.476 373.423 461.812 361.879 445.839C348.859 428.255 346.04 404.094 353.423 383.557C360.805 362.617 380.134 346.644 402.013 342.886ZM406.04 368.389C398.792 370.268 392.08 374.43 387.248 380.201C374.362 395.503 374.899 420.47 388.725 435.101C396.913 443.825 409.664 448.121 421.476 445.705C431.946 443.691 441.342 436.711 446.443 427.315C455.168 411.208 452.617 389.195 438.926 376.711C430.201 368.658 417.45 365.436 406.04 368.389Z" fill="#FCBD06"/>
<path d="M522.685 350.671C538.121 341.007 558.658 338.322 575.302 346.644C580.537 348.926 584.832 352.819 588.993 356.711C589.128 353.087 588.993 349.329 589.128 345.57C598.121 345.705 607.114 345.57 616.242 345.705V464.094C616.107 481.946 611.544 500.872 598.658 513.893C584.564 528.255 562.953 532.685 543.49 529.732C522.685 526.644 504.564 511.477 496.51 492.282C504.564 488.389 513.02 485.302 521.342 481.678C526.04 492.685 535.57 502.081 547.517 504.228C559.463 506.376 573.289 503.423 581.074 493.49C589.396 483.289 589.396 469.329 588.993 456.846C582.819 462.886 575.705 468.255 567.114 470.268C548.456 475.503 527.92 469.06 513.557 456.443C499.06 443.826 490.47 424.362 491.275 405.034C491.678 383.154 504.027 362.081 522.685 350.671ZM550.47 367.852C542.282 369.195 534.631 373.758 529.396 380.067C516.779 395.101 516.779 419.128 529.53 433.893C536.779 442.617 548.456 447.45 559.732 446.242C570.336 445.168 580.134 438.456 585.369 429.195C594.228 413.49 592.752 392.148 580.805 378.456C573.423 370 561.611 365.839 550.47 367.852Z" fill="#3780FF"/>
<path d="M700 357.517C716.107 342.483 740.94 337.383 761.611 345.302C781.208 352.685 793.691 371.342 800 390.537C770.872 402.618 741.879 414.564 712.752 426.644C716.778 434.295 722.953 441.275 731.275 444.094C742.953 448.255 756.913 446.779 766.711 438.993C770.604 436.04 773.691 432.148 776.644 428.389C784.027 433.356 791.409 438.188 798.792 443.154C788.322 458.859 770.738 469.866 751.812 471.611C730.872 474.161 708.591 466.107 695.033 449.732C672.752 423.96 674.899 380.738 700 357.517ZM714.362 382.349C709.799 388.926 707.919 396.98 708.054 404.899C727.517 396.846 746.98 388.792 766.443 380.604C763.221 373.087 755.436 368.524 747.517 367.315C734.765 365.034 721.476 371.879 714.362 382.349Z" fill="#FA3913"/>
<path fill-rule="evenodd" clip-rule="evenodd" d="M256 311.601L237.1 326L245.2 304.4L229 292.25H249.25L256 272L262.75 292.25H283L266.8 304.4L274.9 326L256 311.601Z" fill="#FFC95E"/>
<path fill-rule="evenodd" clip-rule="evenodd" d="M333 311.601L314.1 326L322.2 304.4L306 292.25H326.25L333 272L339.75 292.25H360L343.8 304.4L351.9 326L333 311.601Z" fill="#FFC95E"/>
<path fill-rule="evenodd" clip-rule="evenodd" d="M410 311.601L391.1 326L399.2 304.4L383 292.25H403.25L410 272L416.75 292.25H437L420.8 304.4L428.9 326L410 311.601Z" fill="#FFC95E"/>
<path fill-rule="evenodd" clip-rule="evenodd" d="M487 311.601L468.1 326L476.2 304.4L460 292.25H480.25L487 272L493.75 292.25H514L497.8 304.4L505.9 326L487 311.601Z" fill="#FFC95E"/>
<path fill-rule="evenodd" clip-rule="evenodd" d="M564 311.601L545.1 326L553.2 304.4L537 292.25H557.25L564 272L570.75 292.25H591L574.8 304.4L582.9 326L564 311.601Z" fill="#FFC95E"/>
</g>
<defs>
<clipPath id="clip0_2028_33">
<rect width="800" height="800" fill="white"/>
</clipPath>
</defs>
</svg>
