<?xml version="1.0" encoding="utf-8"?>
<!-- Generator: Adobe Illustrator 26.4.1, SVG Export Plug-In . SVG Version: 6.00 Build 0)  -->
<svg version="1.1" id="Layer_1" xmlns="http://www.w3.org/2000/svg" xmlns:xlink="http://www.w3.org/1999/xlink" x="0px" y="0px"
	 viewBox="0 0 1000 800" style="enable-background:new 0 0 1000 800;" xml:space="preserve">
<style type="text/css">
	.st0{opacity:0.35;}
	.st1{clip-path:url(#SVGID_00000161603751909222803420000004852459315024443811_);fill:#F37455;}
	.st2{opacity:0.35;fill:#F37455;}
	.st3{fill:#F37455;}
	.st4{fill:#BBD437;}
	.st5{fill:#032C3F;}
	.st6{fill:#F07659;}
	.st7{fill:none;}
	
	.st0{opacity:0.35;}
	.st2{opacity:0.35;fill:#F37455;}
	.st3{fill:#F37455;}
	.st4{fill:#BBD437;}
	.st5{fill:#032C3F;}
	.st6{fill:#F07659;}
	.st7{fill:#FFFFFF;}
	


#Icon {width:100%;}



#arrow1, #arrow2, #arrow3, #blue, #tick {opacity: 0;  }


#arrow1, #arrow2, #arrow3 {

animation: fade 6s infinite;
   transform-origin: 50% 50%;
   transform-box: fill-box; 


}


#blue, #tick {

animation: fadeEnd 6s infinite;
   transform-origin: 50% 50%;
   transform-box: fill-box; 


}




 #arrow2{
-webkit-animation-delay: 0.5s; /* Chrome, Safari, Opera */
    animation-delay: 0.5s;
}



#arrow3{
-webkit-animation-delay: 1s; /* Chrome, Safari, Opera */
    animation-delay: 1s;
}


@keyframes fadeEnd {
  0% { opacity: 0; }
  30% { opacity: 0;  }
  40% { opacity: 0; }
  65% { opacity: 1; }
  70% { opacity: 1;  }
  90% { opacity: 1; }
  100% { opacity: 0;  }
}


@keyframes fade {

  0% { opacity: 0; }
  10% { opacity: 0;  }
  20% { opacity: 1; }
  60% { opacity: 1; }
  70% { opacity: 1;  }
  90% { opacity: 1; }
  100% { opacity: 0;  }
  
  
}




@keyframes fadeUp {

  0% { opacity: 0; transform:translateY(+20%); }
  10% { opacity: 0; transform:translateY(+20%); }
  50% { opacity: 1; transform:translateY(0%); }
  60% { opacity: 1; transform:translateY(0%); }
  70% { opacity: 1; transform:translateY(0%); }
  90% { opacity: 1; transform:translateY(0%); }
  100% { opacity: 0; transform:translateY(+2%);  }
  
  
}

@keyframes fadeDown {

  0% { opacity: 0; transform:translateY(-20%); }
  10% { opacity: 0; transform:translateY(-20%); }
  50% { opacity: 1; transform:translateY(0%); }
  60% { opacity: 1; transform:translateY(0%); }
  70% { opacity: 1; transform:translateY(0%); }
  90% { opacity: 1; transform:translateY(0%); }
  100% { opacity: 0; transform:translateY(-2%);  }
  
  
}
</style>
<g class="st0">
	<defs>
		<circle id="SVGID_1_" class="st0" cx="290.8" cy="310.8" r="243.5"/>
	</defs>
	<clipPath id="SVGID_00000057109680240052494060000007625465629061062535_">
		<use xlink:href="#SVGID_1_"  style="overflow:visible;"/>
	</clipPath>
	<path style="clip-path:url(#SVGID_00000057109680240052494060000007625465629061062535_);fill:#F37455;" d="M536.8,67.2
		c0,1.3-1.1,2.4-2.4,2.4c-1.3,0-2.4-1.1-2.4-2.4c0-1.3,1.1-2.4,2.4-2.4C535.7,64.8,536.8,65.9,536.8,67.2z M534.4,89.2
		c-1.3,0-2.4,1.1-2.4,2.4c0,1.3,1.1,2.4,2.4,2.4c1.3,0,2.4-1.1,2.4-2.4C536.8,90.3,535.7,89.2,534.4,89.2z M534.4,113.5
		c-1.3,0-2.4,1.1-2.4,2.4c0,1.3,1.1,2.4,2.4,2.4c1.3,0,2.4-1.1,2.4-2.4C536.8,114.6,535.7,113.5,534.4,113.5z M534.4,137.9
		c-1.3,0-2.4,1.1-2.4,2.4c0,1.3,1.1,2.4,2.4,2.4c1.3,0,2.4-1.1,2.4-2.4C536.8,139,535.7,137.9,534.4,137.9z M534.4,162.2
		c-1.3,0-2.4,1.1-2.4,2.4c0,1.3,1.1,2.4,2.4,2.4c1.3,0,2.4-1.1,2.4-2.4C536.8,163.3,535.7,162.2,534.4,162.2z M534.4,186.6
		c-1.3,0-2.4,1.1-2.4,2.4c0,1.3,1.1,2.4,2.4,2.4c1.3,0,2.4-1.1,2.4-2.4C536.8,187.7,535.7,186.6,534.4,186.6z M534.4,210.9
		c-1.3,0-2.4,1.1-2.4,2.4c0,1.3,1.1,2.4,2.4,2.4c1.3,0,2.4-1.1,2.4-2.4C536.8,212,535.7,210.9,534.4,210.9z M534.4,235.3
		c-1.3,0-2.4,1.1-2.4,2.4c0,1.3,1.1,2.4,2.4,2.4c1.3,0,2.4-1.1,2.4-2.4C536.8,236.4,535.7,235.3,534.4,235.3z M534.4,259.6
		c-1.3,0-2.4,1.1-2.4,2.4c0,1.3,1.1,2.4,2.4,2.4c1.3,0,2.4-1.1,2.4-2.4C536.8,260.7,535.7,259.6,534.4,259.6z M534.4,284
		c-1.3,0-2.4,1.1-2.4,2.4c0,1.3,1.1,2.4,2.4,2.4c1.3,0,2.4-1.1,2.4-2.4C536.8,285.1,535.7,284,534.4,284z M534.4,308.3
		c-1.3,0-2.4,1.1-2.4,2.4c0,1.3,1.1,2.4,2.4,2.4c1.3,0,2.4-1.1,2.4-2.4C536.8,309.4,535.7,308.3,534.4,308.3z M534.4,332.7
		c-1.3,0-2.4,1.1-2.4,2.4c0,1.3,1.1,2.4,2.4,2.4c1.3,0,2.4-1.1,2.4-2.4C536.8,333.8,535.7,332.7,534.4,332.7z M534.4,357
		c-1.3,0-2.4,1.1-2.4,2.4c0,1.3,1.1,2.4,2.4,2.4c1.3,0,2.4-1.1,2.4-2.4C536.8,358.1,535.7,357,534.4,357z M534.4,381.4
		c-1.3,0-2.4,1.1-2.4,2.4c0,1.3,1.1,2.4,2.4,2.4c1.3,0,2.4-1.1,2.4-2.4C536.8,382.5,535.7,381.4,534.4,381.4z M534.4,405.7
		c-1.3,0-2.4,1.1-2.4,2.4c0,1.3,1.1,2.4,2.4,2.4c1.3,0,2.4-1.1,2.4-2.4C536.8,406.8,535.7,405.7,534.4,405.7z M534.4,430.1
		c-1.3,0-2.4,1.1-2.4,2.4c0,1.3,1.1,2.4,2.4,2.4c1.3,0,2.4-1.1,2.4-2.4C536.8,431.2,535.7,430.1,534.4,430.1z M534.4,454.5
		c-1.3,0-2.4,1.1-2.4,2.4c0,1.3,1.1,2.4,2.4,2.4c1.3,0,2.4-1.1,2.4-2.4C536.8,455.5,535.7,454.5,534.4,454.5z M534.4,478.8
		c-1.3,0-2.4,1.1-2.4,2.4c0,1.3,1.1,2.4,2.4,2.4c1.3,0,2.4-1.1,2.4-2.4C536.8,479.9,535.7,478.8,534.4,478.8z M534.4,503.2
		c-1.3,0-2.4,1.1-2.4,2.4c0,1.3,1.1,2.4,2.4,2.4c1.3,0,2.4-1.1,2.4-2.4C536.8,504.2,535.7,503.2,534.4,503.2z M534.4,527.5
		c-1.3,0-2.4,1.1-2.4,2.4s1.1,2.4,2.4,2.4c1.3,0,2.4-1.1,2.4-2.4S535.7,527.5,534.4,527.5z M534.4,551.9c-1.3,0-2.4,1.1-2.4,2.4
		c0,1.3,1.1,2.4,2.4,2.4c1.3,0,2.4-1.1,2.4-2.4C536.8,553,535.7,551.9,534.4,551.9z M510,64.8c-1.3,0-2.4,1.1-2.4,2.4
		c0,1.3,1.1,2.4,2.4,2.4s2.4-1.1,2.4-2.4C512.5,65.9,511.4,64.8,510,64.8z M510,89.2c-1.3,0-2.4,1.1-2.4,2.4c0,1.3,1.1,2.4,2.4,2.4
		s2.4-1.1,2.4-2.4C512.5,90.3,511.4,89.2,510,89.2z M510,113.5c-1.3,0-2.4,1.1-2.4,2.4c0,1.3,1.1,2.4,2.4,2.4s2.4-1.1,2.4-2.4
		C512.5,114.6,511.4,113.5,510,113.5z M510,137.9c-1.3,0-2.4,1.1-2.4,2.4c0,1.3,1.1,2.4,2.4,2.4s2.4-1.1,2.4-2.4
		C512.5,139,511.4,137.9,510,137.9z M510,162.2c-1.3,0-2.4,1.1-2.4,2.4c0,1.3,1.1,2.4,2.4,2.4s2.4-1.1,2.4-2.4
		C512.5,163.3,511.4,162.2,510,162.2z M510,186.6c-1.3,0-2.4,1.1-2.4,2.4c0,1.3,1.1,2.4,2.4,2.4s2.4-1.1,2.4-2.4
		C512.5,187.7,511.4,186.6,510,186.6z M510,210.9c-1.3,0-2.4,1.1-2.4,2.4c0,1.3,1.1,2.4,2.4,2.4s2.4-1.1,2.4-2.4
		C512.5,212,511.4,210.9,510,210.9z M510,235.3c-1.3,0-2.4,1.1-2.4,2.4c0,1.3,1.1,2.4,2.4,2.4s2.4-1.1,2.4-2.4
		C512.5,236.4,511.4,235.3,510,235.3z M510,259.6c-1.3,0-2.4,1.1-2.4,2.4c0,1.3,1.1,2.4,2.4,2.4s2.4-1.1,2.4-2.4
		C512.5,260.7,511.4,259.6,510,259.6z M510,284c-1.3,0-2.4,1.1-2.4,2.4c0,1.3,1.1,2.4,2.4,2.4s2.4-1.1,2.4-2.4
		C512.5,285.1,511.4,284,510,284z M510,308.3c-1.3,0-2.4,1.1-2.4,2.4c0,1.3,1.1,2.4,2.4,2.4s2.4-1.1,2.4-2.4
		C512.5,309.4,511.4,308.3,510,308.3z M510,332.7c-1.3,0-2.4,1.1-2.4,2.4c0,1.3,1.1,2.4,2.4,2.4s2.4-1.1,2.4-2.4
		C512.5,333.8,511.4,332.7,510,332.7z M510,357c-1.3,0-2.4,1.1-2.4,2.4c0,1.3,1.1,2.4,2.4,2.4s2.4-1.1,2.4-2.4
		C512.5,358.1,511.4,357,510,357z M510,381.4c-1.3,0-2.4,1.1-2.4,2.4c0,1.3,1.1,2.4,2.4,2.4s2.4-1.1,2.4-2.4
		C512.5,382.5,511.4,381.4,510,381.4z M510,405.7c-1.3,0-2.4,1.1-2.4,2.4c0,1.3,1.1,2.4,2.4,2.4s2.4-1.1,2.4-2.4
		C512.5,406.8,511.4,405.7,510,405.7z M510,430.1c-1.3,0-2.4,1.1-2.4,2.4c0,1.3,1.1,2.4,2.4,2.4s2.4-1.1,2.4-2.4
		C512.5,431.2,511.4,430.1,510,430.1z M510,454.5c-1.3,0-2.4,1.1-2.4,2.4c0,1.3,1.1,2.4,2.4,2.4s2.4-1.1,2.4-2.4
		C512.5,455.5,511.4,454.5,510,454.5z M510,478.8c-1.3,0-2.4,1.1-2.4,2.4c0,1.3,1.1,2.4,2.4,2.4s2.4-1.1,2.4-2.4
		C512.5,479.9,511.4,478.8,510,478.8z M510,503.2c-1.3,0-2.4,1.1-2.4,2.4c0,1.3,1.1,2.4,2.4,2.4s2.4-1.1,2.4-2.4
		C512.5,504.2,511.4,503.2,510,503.2z M510,527.5c-1.3,0-2.4,1.1-2.4,2.4s1.1,2.4,2.4,2.4s2.4-1.1,2.4-2.4S511.4,527.5,510,527.5z
		 M510,551.9c-1.3,0-2.4,1.1-2.4,2.4c0,1.3,1.1,2.4,2.4,2.4s2.4-1.1,2.4-2.4C512.5,553,511.4,551.9,510,551.9z M485.7,64.8
		c-1.3,0-2.4,1.1-2.4,2.4c0,1.3,1.1,2.4,2.4,2.4s2.4-1.1,2.4-2.4C488.1,65.9,487,64.8,485.7,64.8z M485.7,89.2
		c-1.3,0-2.4,1.1-2.4,2.4c0,1.3,1.1,2.4,2.4,2.4s2.4-1.1,2.4-2.4C488.1,90.3,487,89.2,485.7,89.2z M485.7,113.5
		c-1.3,0-2.4,1.1-2.4,2.4c0,1.3,1.1,2.4,2.4,2.4s2.4-1.1,2.4-2.4C488.1,114.6,487,113.5,485.7,113.5z M485.7,137.9
		c-1.3,0-2.4,1.1-2.4,2.4c0,1.3,1.1,2.4,2.4,2.4s2.4-1.1,2.4-2.4C488.1,139,487,137.9,485.7,137.9z M485.7,162.2
		c-1.3,0-2.4,1.1-2.4,2.4c0,1.3,1.1,2.4,2.4,2.4s2.4-1.1,2.4-2.4C488.1,163.3,487,162.2,485.7,162.2z M485.7,186.6
		c-1.3,0-2.4,1.1-2.4,2.4c0,1.3,1.1,2.4,2.4,2.4s2.4-1.1,2.4-2.4C488.1,187.7,487,186.6,485.7,186.6z M485.7,210.9
		c-1.3,0-2.4,1.1-2.4,2.4c0,1.3,1.1,2.4,2.4,2.4s2.4-1.1,2.4-2.4C488.1,212,487,210.9,485.7,210.9z M485.7,235.3
		c-1.3,0-2.4,1.1-2.4,2.4c0,1.3,1.1,2.4,2.4,2.4s2.4-1.1,2.4-2.4C488.1,236.4,487,235.3,485.7,235.3z M485.7,259.6
		c-1.3,0-2.4,1.1-2.4,2.4c0,1.3,1.1,2.4,2.4,2.4s2.4-1.1,2.4-2.4C488.1,260.7,487,259.6,485.7,259.6z M485.7,284
		c-1.3,0-2.4,1.1-2.4,2.4c0,1.3,1.1,2.4,2.4,2.4s2.4-1.1,2.4-2.4C488.1,285.1,487,284,485.7,284z M485.7,308.3
		c-1.3,0-2.4,1.1-2.4,2.4c0,1.3,1.1,2.4,2.4,2.4s2.4-1.1,2.4-2.4C488.1,309.4,487,308.3,485.7,308.3z M485.7,332.7
		c-1.3,0-2.4,1.1-2.4,2.4c0,1.3,1.1,2.4,2.4,2.4s2.4-1.1,2.4-2.4C488.1,333.8,487,332.7,485.7,332.7z M485.7,357
		c-1.3,0-2.4,1.1-2.4,2.4c0,1.3,1.1,2.4,2.4,2.4s2.4-1.1,2.4-2.4C488.1,358.1,487,357,485.7,357z M485.7,381.4
		c-1.3,0-2.4,1.1-2.4,2.4c0,1.3,1.1,2.4,2.4,2.4s2.4-1.1,2.4-2.4C488.1,382.5,487,381.4,485.7,381.4z M485.7,405.7
		c-1.3,0-2.4,1.1-2.4,2.4c0,1.3,1.1,2.4,2.4,2.4s2.4-1.1,2.4-2.4C488.1,406.8,487,405.7,485.7,405.7z M485.7,430.1
		c-1.3,0-2.4,1.1-2.4,2.4c0,1.3,1.1,2.4,2.4,2.4s2.4-1.1,2.4-2.4C488.1,431.2,487,430.1,485.7,430.1z M485.7,454.5
		c-1.3,0-2.4,1.1-2.4,2.4c0,1.3,1.1,2.4,2.4,2.4s2.4-1.1,2.4-2.4C488.1,455.5,487,454.5,485.7,454.5z M485.7,478.8
		c-1.3,0-2.4,1.1-2.4,2.4c0,1.3,1.1,2.4,2.4,2.4s2.4-1.1,2.4-2.4C488.1,479.9,487,478.8,485.7,478.8z M485.7,503.2
		c-1.3,0-2.4,1.1-2.4,2.4c0,1.3,1.1,2.4,2.4,2.4s2.4-1.1,2.4-2.4C488.1,504.2,487,503.2,485.7,503.2z M485.7,527.5
		c-1.3,0-2.4,1.1-2.4,2.4s1.1,2.4,2.4,2.4s2.4-1.1,2.4-2.4S487,527.5,485.7,527.5z M485.7,551.9c-1.3,0-2.4,1.1-2.4,2.4
		c0,1.3,1.1,2.4,2.4,2.4s2.4-1.1,2.4-2.4C488.1,553,487,551.9,485.7,551.9z M461.3,64.8c-1.3,0-2.4,1.1-2.4,2.4
		c0,1.3,1.1,2.4,2.4,2.4s2.4-1.1,2.4-2.4C463.7,65.9,462.7,64.8,461.3,64.8z M461.3,89.2c-1.3,0-2.4,1.1-2.4,2.4
		c0,1.3,1.1,2.4,2.4,2.4s2.4-1.1,2.4-2.4C463.7,90.3,462.7,89.2,461.3,89.2z M461.3,113.5c-1.3,0-2.4,1.1-2.4,2.4
		c0,1.3,1.1,2.4,2.4,2.4s2.4-1.1,2.4-2.4C463.7,114.6,462.7,113.5,461.3,113.5z M461.3,137.9c-1.3,0-2.4,1.1-2.4,2.4
		c0,1.3,1.1,2.4,2.4,2.4s2.4-1.1,2.4-2.4C463.7,139,462.7,137.9,461.3,137.9z M461.3,162.2c-1.3,0-2.4,1.1-2.4,2.4
		c0,1.3,1.1,2.4,2.4,2.4s2.4-1.1,2.4-2.4C463.7,163.3,462.7,162.2,461.3,162.2z M461.3,186.6c-1.3,0-2.4,1.1-2.4,2.4
		c0,1.3,1.1,2.4,2.4,2.4s2.4-1.1,2.4-2.4C463.7,187.7,462.7,186.6,461.3,186.6z M461.3,210.9c-1.3,0-2.4,1.1-2.4,2.4
		c0,1.3,1.1,2.4,2.4,2.4s2.4-1.1,2.4-2.4C463.7,212,462.7,210.9,461.3,210.9z M461.3,235.3c-1.3,0-2.4,1.1-2.4,2.4
		c0,1.3,1.1,2.4,2.4,2.4s2.4-1.1,2.4-2.4C463.7,236.4,462.7,235.3,461.3,235.3z M461.3,259.6c-1.3,0-2.4,1.1-2.4,2.4
		c0,1.3,1.1,2.4,2.4,2.4s2.4-1.1,2.4-2.4C463.7,260.7,462.7,259.6,461.3,259.6z M461.3,284c-1.3,0-2.4,1.1-2.4,2.4
		c0,1.3,1.1,2.4,2.4,2.4s2.4-1.1,2.4-2.4C463.7,285.1,462.7,284,461.3,284z M461.3,308.3c-1.3,0-2.4,1.1-2.4,2.4
		c0,1.3,1.1,2.4,2.4,2.4s2.4-1.1,2.4-2.4C463.7,309.4,462.7,308.3,461.3,308.3z M461.3,332.7c-1.3,0-2.4,1.1-2.4,2.4
		c0,1.3,1.1,2.4,2.4,2.4s2.4-1.1,2.4-2.4C463.7,333.8,462.7,332.7,461.3,332.7z M461.3,357c-1.3,0-2.4,1.1-2.4,2.4
		c0,1.3,1.1,2.4,2.4,2.4s2.4-1.1,2.4-2.4C463.7,358.1,462.7,357,461.3,357z M461.3,381.4c-1.3,0-2.4,1.1-2.4,2.4
		c0,1.3,1.1,2.4,2.4,2.4s2.4-1.1,2.4-2.4C463.7,382.5,462.7,381.4,461.3,381.4z M461.3,405.7c-1.3,0-2.4,1.1-2.4,2.4
		c0,1.3,1.1,2.4,2.4,2.4s2.4-1.1,2.4-2.4C463.7,406.8,462.7,405.7,461.3,405.7z M461.3,430.1c-1.3,0-2.4,1.1-2.4,2.4
		c0,1.3,1.1,2.4,2.4,2.4s2.4-1.1,2.4-2.4C463.7,431.2,462.7,430.1,461.3,430.1z M461.3,454.5c-1.3,0-2.4,1.1-2.4,2.4
		c0,1.3,1.1,2.4,2.4,2.4s2.4-1.1,2.4-2.4C463.7,455.5,462.7,454.5,461.3,454.5z M461.3,478.8c-1.3,0-2.4,1.1-2.4,2.4
		c0,1.3,1.1,2.4,2.4,2.4s2.4-1.1,2.4-2.4C463.7,479.9,462.7,478.8,461.3,478.8z M461.3,503.2c-1.3,0-2.4,1.1-2.4,2.4
		c0,1.3,1.1,2.4,2.4,2.4s2.4-1.1,2.4-2.4C463.7,504.2,462.7,503.2,461.3,503.2z M461.3,527.5c-1.3,0-2.4,1.1-2.4,2.4
		s1.1,2.4,2.4,2.4s2.4-1.1,2.4-2.4S462.7,527.5,461.3,527.5z M461.3,551.9c-1.3,0-2.4,1.1-2.4,2.4c0,1.3,1.1,2.4,2.4,2.4
		s2.4-1.1,2.4-2.4C463.7,553,462.7,551.9,461.3,551.9z M437,64.8c-1.3,0-2.4,1.1-2.4,2.4c0,1.3,1.1,2.4,2.4,2.4s2.4-1.1,2.4-2.4
		C439.4,65.9,438.3,64.8,437,64.8z M437,89.2c-1.3,0-2.4,1.1-2.4,2.4c0,1.3,1.1,2.4,2.4,2.4s2.4-1.1,2.4-2.4
		C439.4,90.3,438.3,89.2,437,89.2z M437,113.5c-1.3,0-2.4,1.1-2.4,2.4c0,1.3,1.1,2.4,2.4,2.4s2.4-1.1,2.4-2.4
		C439.4,114.6,438.3,113.5,437,113.5z M437,137.9c-1.3,0-2.4,1.1-2.4,2.4c0,1.3,1.1,2.4,2.4,2.4s2.4-1.1,2.4-2.4
		C439.4,139,438.3,137.9,437,137.9z M437,162.2c-1.3,0-2.4,1.1-2.4,2.4c0,1.3,1.1,2.4,2.4,2.4s2.4-1.1,2.4-2.4
		C439.4,163.3,438.3,162.2,437,162.2z M437,186.6c-1.3,0-2.4,1.1-2.4,2.4c0,1.3,1.1,2.4,2.4,2.4s2.4-1.1,2.4-2.4
		C439.4,187.7,438.3,186.6,437,186.6z M437,210.9c-1.3,0-2.4,1.1-2.4,2.4c0,1.3,1.1,2.4,2.4,2.4s2.4-1.1,2.4-2.4
		C439.4,212,438.3,210.9,437,210.9z M437,235.3c-1.3,0-2.4,1.1-2.4,2.4c0,1.3,1.1,2.4,2.4,2.4s2.4-1.1,2.4-2.4
		C439.4,236.4,438.3,235.3,437,235.3z M437,259.6c-1.3,0-2.4,1.1-2.4,2.4c0,1.3,1.1,2.4,2.4,2.4s2.4-1.1,2.4-2.4
		C439.4,260.7,438.3,259.6,437,259.6z M437,284c-1.3,0-2.4,1.1-2.4,2.4c0,1.3,1.1,2.4,2.4,2.4s2.4-1.1,2.4-2.4
		C439.4,285.1,438.3,284,437,284z M437,308.3c-1.3,0-2.4,1.1-2.4,2.4c0,1.3,1.1,2.4,2.4,2.4s2.4-1.1,2.4-2.4
		C439.4,309.4,438.3,308.3,437,308.3z M437,332.7c-1.3,0-2.4,1.1-2.4,2.4c0,1.3,1.1,2.4,2.4,2.4s2.4-1.1,2.4-2.4
		C439.4,333.8,438.3,332.7,437,332.7z M437,357c-1.3,0-2.4,1.1-2.4,2.4c0,1.3,1.1,2.4,2.4,2.4s2.4-1.1,2.4-2.4
		C439.4,358.1,438.3,357,437,357z M437,381.4c-1.3,0-2.4,1.1-2.4,2.4c0,1.3,1.1,2.4,2.4,2.4s2.4-1.1,2.4-2.4
		C439.4,382.5,438.3,381.4,437,381.4z M437,405.7c-1.3,0-2.4,1.1-2.4,2.4c0,1.3,1.1,2.4,2.4,2.4s2.4-1.1,2.4-2.4
		C439.4,406.8,438.3,405.7,437,405.7z M437,430.1c-1.3,0-2.4,1.1-2.4,2.4c0,1.3,1.1,2.4,2.4,2.4s2.4-1.1,2.4-2.4
		C439.4,431.2,438.3,430.1,437,430.1z M437,454.5c-1.3,0-2.4,1.1-2.4,2.4c0,1.3,1.1,2.4,2.4,2.4s2.4-1.1,2.4-2.4
		C439.4,455.5,438.3,454.5,437,454.5z M437,478.8c-1.3,0-2.4,1.1-2.4,2.4c0,1.3,1.1,2.4,2.4,2.4s2.4-1.1,2.4-2.4
		C439.4,479.9,438.3,478.8,437,478.8z M437,503.2c-1.3,0-2.4,1.1-2.4,2.4c0,1.3,1.1,2.4,2.4,2.4s2.4-1.1,2.4-2.4
		C439.4,504.2,438.3,503.2,437,503.2z M437,527.5c-1.3,0-2.4,1.1-2.4,2.4s1.1,2.4,2.4,2.4s2.4-1.1,2.4-2.4S438.3,527.5,437,527.5z
		 M437,551.9c-1.3,0-2.4,1.1-2.4,2.4c0,1.3,1.1,2.4,2.4,2.4s2.4-1.1,2.4-2.4C439.4,553,438.3,551.9,437,551.9z M412.6,64.8
		c-1.3,0-2.4,1.1-2.4,2.4c0,1.3,1.1,2.4,2.4,2.4c1.3,0,2.4-1.1,2.4-2.4C415,65.9,413.9,64.8,412.6,64.8z M412.6,89.2
		c-1.3,0-2.4,1.1-2.4,2.4c0,1.3,1.1,2.4,2.4,2.4c1.3,0,2.4-1.1,2.4-2.4C415,90.3,413.9,89.2,412.6,89.2z M412.6,113.5
		c-1.3,0-2.4,1.1-2.4,2.4c0,1.3,1.1,2.4,2.4,2.4c1.3,0,2.4-1.1,2.4-2.4C415,114.6,413.9,113.5,412.6,113.5z M412.6,137.9
		c-1.3,0-2.4,1.1-2.4,2.4c0,1.3,1.1,2.4,2.4,2.4c1.3,0,2.4-1.1,2.4-2.4C415,139,413.9,137.9,412.6,137.9z M412.6,162.2
		c-1.3,0-2.4,1.1-2.4,2.4c0,1.3,1.1,2.4,2.4,2.4c1.3,0,2.4-1.1,2.4-2.4C415,163.3,413.9,162.2,412.6,162.2z M412.6,186.6
		c-1.3,0-2.4,1.1-2.4,2.4c0,1.3,1.1,2.4,2.4,2.4c1.3,0,2.4-1.1,2.4-2.4C415,187.7,413.9,186.6,412.6,186.6z M412.6,210.9
		c-1.3,0-2.4,1.1-2.4,2.4c0,1.3,1.1,2.4,2.4,2.4c1.3,0,2.4-1.1,2.4-2.4C415,212,413.9,210.9,412.6,210.9z M412.6,235.3
		c-1.3,0-2.4,1.1-2.4,2.4c0,1.3,1.1,2.4,2.4,2.4c1.3,0,2.4-1.1,2.4-2.4C415,236.4,413.9,235.3,412.6,235.3z M412.6,259.6
		c-1.3,0-2.4,1.1-2.4,2.4c0,1.3,1.1,2.4,2.4,2.4c1.3,0,2.4-1.1,2.4-2.4C415,260.7,413.9,259.6,412.6,259.6z M412.6,284
		c-1.3,0-2.4,1.1-2.4,2.4c0,1.3,1.1,2.4,2.4,2.4c1.3,0,2.4-1.1,2.4-2.4C415,285.1,413.9,284,412.6,284z M412.6,308.3
		c-1.3,0-2.4,1.1-2.4,2.4c0,1.3,1.1,2.4,2.4,2.4c1.3,0,2.4-1.1,2.4-2.4C415,309.4,413.9,308.3,412.6,308.3z M412.6,332.7
		c-1.3,0-2.4,1.1-2.4,2.4c0,1.3,1.1,2.4,2.4,2.4c1.3,0,2.4-1.1,2.4-2.4C415,333.8,413.9,332.7,412.6,332.7z M412.6,357
		c-1.3,0-2.4,1.1-2.4,2.4c0,1.3,1.1,2.4,2.4,2.4c1.3,0,2.4-1.1,2.4-2.4C415,358.1,413.9,357,412.6,357z M412.6,381.4
		c-1.3,0-2.4,1.1-2.4,2.4c0,1.3,1.1,2.4,2.4,2.4c1.3,0,2.4-1.1,2.4-2.4C415,382.5,413.9,381.4,412.6,381.4z M412.6,405.7
		c-1.3,0-2.4,1.1-2.4,2.4c0,1.3,1.1,2.4,2.4,2.4c1.3,0,2.4-1.1,2.4-2.4C415,406.8,413.9,405.7,412.6,405.7z M412.6,430.1
		c-1.3,0-2.4,1.1-2.4,2.4c0,1.3,1.1,2.4,2.4,2.4c1.3,0,2.4-1.1,2.4-2.4C415,431.2,413.9,430.1,412.6,430.1z M412.6,454.5
		c-1.3,0-2.4,1.1-2.4,2.4c0,1.3,1.1,2.4,2.4,2.4c1.3,0,2.4-1.1,2.4-2.4C415,455.5,413.9,454.5,412.6,454.5z M412.6,478.8
		c-1.3,0-2.4,1.1-2.4,2.4c0,1.3,1.1,2.4,2.4,2.4c1.3,0,2.4-1.1,2.4-2.4C415,479.9,413.9,478.8,412.6,478.8z M412.6,503.2
		c-1.3,0-2.4,1.1-2.4,2.4c0,1.3,1.1,2.4,2.4,2.4c1.3,0,2.4-1.1,2.4-2.4C415,504.2,413.9,503.2,412.6,503.2z M412.6,527.5
		c-1.3,0-2.4,1.1-2.4,2.4s1.1,2.4,2.4,2.4c1.3,0,2.4-1.1,2.4-2.4S413.9,527.5,412.6,527.5z M412.6,551.9c-1.3,0-2.4,1.1-2.4,2.4
		c0,1.3,1.1,2.4,2.4,2.4c1.3,0,2.4-1.1,2.4-2.4C415,553,413.9,551.9,412.6,551.9z M388.3,64.8c-1.3,0-2.4,1.1-2.4,2.4
		c0,1.3,1.1,2.4,2.4,2.4s2.4-1.1,2.4-2.4C390.7,65.9,389.6,64.8,388.3,64.8z M388.3,89.2c-1.3,0-2.4,1.1-2.4,2.4
		c0,1.3,1.1,2.4,2.4,2.4s2.4-1.1,2.4-2.4C390.7,90.3,389.6,89.2,388.3,89.2z M388.3,113.5c-1.3,0-2.4,1.1-2.4,2.4
		c0,1.3,1.1,2.4,2.4,2.4s2.4-1.1,2.4-2.4C390.7,114.6,389.6,113.5,388.3,113.5z M388.3,137.9c-1.3,0-2.4,1.1-2.4,2.4
		c0,1.3,1.1,2.4,2.4,2.4s2.4-1.1,2.4-2.4C390.7,139,389.6,137.9,388.3,137.9z M388.3,162.2c-1.3,0-2.4,1.1-2.4,2.4
		c0,1.3,1.1,2.4,2.4,2.4s2.4-1.1,2.4-2.4C390.7,163.3,389.6,162.2,388.3,162.2z M388.3,186.6c-1.3,0-2.4,1.1-2.4,2.4
		c0,1.3,1.1,2.4,2.4,2.4s2.4-1.1,2.4-2.4C390.7,187.7,389.6,186.6,388.3,186.6z M388.3,210.9c-1.3,0-2.4,1.1-2.4,2.4
		c0,1.3,1.1,2.4,2.4,2.4s2.4-1.1,2.4-2.4C390.7,212,389.6,210.9,388.3,210.9z M388.3,235.3c-1.3,0-2.4,1.1-2.4,2.4
		c0,1.3,1.1,2.4,2.4,2.4s2.4-1.1,2.4-2.4C390.7,236.4,389.6,235.3,388.3,235.3z M388.3,259.6c-1.3,0-2.4,1.1-2.4,2.4
		c0,1.3,1.1,2.4,2.4,2.4s2.4-1.1,2.4-2.4C390.7,260.7,389.6,259.6,388.3,259.6z M388.3,284c-1.3,0-2.4,1.1-2.4,2.4
		c0,1.3,1.1,2.4,2.4,2.4s2.4-1.1,2.4-2.4C390.7,285.1,389.6,284,388.3,284z M388.3,308.3c-1.3,0-2.4,1.1-2.4,2.4
		c0,1.3,1.1,2.4,2.4,2.4s2.4-1.1,2.4-2.4C390.7,309.4,389.6,308.3,388.3,308.3z M388.3,332.7c-1.3,0-2.4,1.1-2.4,2.4
		c0,1.3,1.1,2.4,2.4,2.4s2.4-1.1,2.4-2.4C390.7,333.8,389.6,332.7,388.3,332.7z M388.3,357c-1.3,0-2.4,1.1-2.4,2.4
		c0,1.3,1.1,2.4,2.4,2.4s2.4-1.1,2.4-2.4C390.7,358.1,389.6,357,388.3,357z M388.3,381.4c-1.3,0-2.4,1.1-2.4,2.4
		c0,1.3,1.1,2.4,2.4,2.4s2.4-1.1,2.4-2.4C390.7,382.5,389.6,381.4,388.3,381.4z M388.3,405.7c-1.3,0-2.4,1.1-2.4,2.4
		c0,1.3,1.1,2.4,2.4,2.4s2.4-1.1,2.4-2.4C390.7,406.8,389.6,405.7,388.3,405.7z M388.3,430.1c-1.3,0-2.4,1.1-2.4,2.4
		c0,1.3,1.1,2.4,2.4,2.4s2.4-1.1,2.4-2.4C390.7,431.2,389.6,430.1,388.3,430.1z M388.3,454.5c-1.3,0-2.4,1.1-2.4,2.4
		c0,1.3,1.1,2.4,2.4,2.4s2.4-1.1,2.4-2.4C390.7,455.5,389.6,454.5,388.3,454.5z M388.3,478.8c-1.3,0-2.4,1.1-2.4,2.4
		c0,1.3,1.1,2.4,2.4,2.4s2.4-1.1,2.4-2.4C390.7,479.9,389.6,478.8,388.3,478.8z M388.3,503.2c-1.3,0-2.4,1.1-2.4,2.4
		c0,1.3,1.1,2.4,2.4,2.4s2.4-1.1,2.4-2.4C390.7,504.2,389.6,503.2,388.3,503.2z M388.3,527.5c-1.3,0-2.4,1.1-2.4,2.4
		s1.1,2.4,2.4,2.4s2.4-1.1,2.4-2.4S389.6,527.5,388.3,527.5z M388.3,551.9c-1.3,0-2.4,1.1-2.4,2.4c0,1.3,1.1,2.4,2.4,2.4
		s2.4-1.1,2.4-2.4C390.7,553,389.6,551.9,388.3,551.9z M363.9,64.8c-1.3,0-2.4,1.1-2.4,2.4c0,1.3,1.1,2.4,2.4,2.4s2.4-1.1,2.4-2.4
		C366.3,65.9,365.2,64.8,363.9,64.8z M363.9,89.2c-1.3,0-2.4,1.1-2.4,2.4c0,1.3,1.1,2.4,2.4,2.4s2.4-1.1,2.4-2.4
		C366.3,90.3,365.2,89.2,363.9,89.2z M363.9,113.5c-1.3,0-2.4,1.1-2.4,2.4c0,1.3,1.1,2.4,2.4,2.4s2.4-1.1,2.4-2.4
		C366.3,114.6,365.2,113.5,363.9,113.5z M363.9,137.9c-1.3,0-2.4,1.1-2.4,2.4c0,1.3,1.1,2.4,2.4,2.4s2.4-1.1,2.4-2.4
		C366.3,139,365.2,137.9,363.9,137.9z M363.9,162.2c-1.3,0-2.4,1.1-2.4,2.4c0,1.3,1.1,2.4,2.4,2.4s2.4-1.1,2.4-2.4
		C366.3,163.3,365.2,162.2,363.9,162.2z M363.9,186.6c-1.3,0-2.4,1.1-2.4,2.4c0,1.3,1.1,2.4,2.4,2.4s2.4-1.1,2.4-2.4
		C366.3,187.7,365.2,186.6,363.9,186.6z M363.9,210.9c-1.3,0-2.4,1.1-2.4,2.4c0,1.3,1.1,2.4,2.4,2.4s2.4-1.1,2.4-2.4
		C366.3,212,365.2,210.9,363.9,210.9z M363.9,235.3c-1.3,0-2.4,1.1-2.4,2.4c0,1.3,1.1,2.4,2.4,2.4s2.4-1.1,2.4-2.4
		C366.3,236.4,365.2,235.3,363.9,235.3z M363.9,259.6c-1.3,0-2.4,1.1-2.4,2.4c0,1.3,1.1,2.4,2.4,2.4s2.4-1.1,2.4-2.4
		C366.3,260.7,365.2,259.6,363.9,259.6z M363.9,284c-1.3,0-2.4,1.1-2.4,2.4c0,1.3,1.1,2.4,2.4,2.4s2.4-1.1,2.4-2.4
		C366.3,285.1,365.2,284,363.9,284z M363.9,308.3c-1.3,0-2.4,1.1-2.4,2.4c0,1.3,1.1,2.4,2.4,2.4s2.4-1.1,2.4-2.4
		C366.3,309.4,365.2,308.3,363.9,308.3z M363.9,332.7c-1.3,0-2.4,1.1-2.4,2.4c0,1.3,1.1,2.4,2.4,2.4s2.4-1.1,2.4-2.4
		C366.3,333.8,365.2,332.7,363.9,332.7z M363.9,357c-1.3,0-2.4,1.1-2.4,2.4c0,1.3,1.1,2.4,2.4,2.4s2.4-1.1,2.4-2.4
		C366.3,358.1,365.2,357,363.9,357z M363.9,381.4c-1.3,0-2.4,1.1-2.4,2.4c0,1.3,1.1,2.4,2.4,2.4s2.4-1.1,2.4-2.4
		C366.3,382.5,365.2,381.4,363.9,381.4z M363.9,405.7c-1.3,0-2.4,1.1-2.4,2.4c0,1.3,1.1,2.4,2.4,2.4s2.4-1.1,2.4-2.4
		C366.3,406.8,365.2,405.7,363.9,405.7z M363.9,430.1c-1.3,0-2.4,1.1-2.4,2.4c0,1.3,1.1,2.4,2.4,2.4s2.4-1.1,2.4-2.4
		C366.3,431.2,365.2,430.1,363.9,430.1z M363.9,454.5c-1.3,0-2.4,1.1-2.4,2.4c0,1.3,1.1,2.4,2.4,2.4s2.4-1.1,2.4-2.4
		C366.3,455.5,365.2,454.5,363.9,454.5z M363.9,478.8c-1.3,0-2.4,1.1-2.4,2.4c0,1.3,1.1,2.4,2.4,2.4s2.4-1.1,2.4-2.4
		C366.3,479.9,365.2,478.8,363.9,478.8z M363.9,503.2c-1.3,0-2.4,1.1-2.4,2.4c0,1.3,1.1,2.4,2.4,2.4s2.4-1.1,2.4-2.4
		C366.3,504.2,365.2,503.2,363.9,503.2z M363.9,527.5c-1.3,0-2.4,1.1-2.4,2.4s1.1,2.4,2.4,2.4s2.4-1.1,2.4-2.4
		S365.2,527.5,363.9,527.5z M363.9,551.9c-1.3,0-2.4,1.1-2.4,2.4c0,1.3,1.1,2.4,2.4,2.4s2.4-1.1,2.4-2.4
		C366.3,553,365.2,551.9,363.9,551.9z M339.5,64.8c-1.3,0-2.4,1.1-2.4,2.4c0,1.3,1.1,2.4,2.4,2.4s2.4-1.1,2.4-2.4
		C342,65.9,340.9,64.8,339.5,64.8z M339.5,89.2c-1.3,0-2.4,1.1-2.4,2.4c0,1.3,1.1,2.4,2.4,2.4s2.4-1.1,2.4-2.4
		C342,90.3,340.9,89.2,339.5,89.2z M339.5,113.5c-1.3,0-2.4,1.1-2.4,2.4c0,1.3,1.1,2.4,2.4,2.4s2.4-1.1,2.4-2.4
		C342,114.6,340.9,113.5,339.5,113.5z M339.5,137.9c-1.3,0-2.4,1.1-2.4,2.4c0,1.3,1.1,2.4,2.4,2.4s2.4-1.1,2.4-2.4
		C342,139,340.9,137.9,339.5,137.9z M339.5,162.2c-1.3,0-2.4,1.1-2.4,2.4c0,1.3,1.1,2.4,2.4,2.4s2.4-1.1,2.4-2.4
		C342,163.3,340.9,162.2,339.5,162.2z M339.5,186.6c-1.3,0-2.4,1.1-2.4,2.4c0,1.3,1.1,2.4,2.4,2.4s2.4-1.1,2.4-2.4
		C342,187.7,340.9,186.6,339.5,186.6z M339.5,210.9c-1.3,0-2.4,1.1-2.4,2.4c0,1.3,1.1,2.4,2.4,2.4s2.4-1.1,2.4-2.4
		C342,212,340.9,210.9,339.5,210.9z M339.5,235.3c-1.3,0-2.4,1.1-2.4,2.4c0,1.3,1.1,2.4,2.4,2.4s2.4-1.1,2.4-2.4
		C342,236.4,340.9,235.3,339.5,235.3z M339.5,259.6c-1.3,0-2.4,1.1-2.4,2.4c0,1.3,1.1,2.4,2.4,2.4s2.4-1.1,2.4-2.4
		C342,260.7,340.9,259.6,339.5,259.6z M339.5,284c-1.3,0-2.4,1.1-2.4,2.4c0,1.3,1.1,2.4,2.4,2.4s2.4-1.1,2.4-2.4
		C342,285.1,340.9,284,339.5,284z M339.5,308.3c-1.3,0-2.4,1.1-2.4,2.4c0,1.3,1.1,2.4,2.4,2.4s2.4-1.1,2.4-2.4
		C342,309.4,340.9,308.3,339.5,308.3z M339.5,332.7c-1.3,0-2.4,1.1-2.4,2.4c0,1.3,1.1,2.4,2.4,2.4s2.4-1.1,2.4-2.4
		C342,333.8,340.9,332.7,339.5,332.7z M339.5,357c-1.3,0-2.4,1.1-2.4,2.4c0,1.3,1.1,2.4,2.4,2.4s2.4-1.1,2.4-2.4
		C342,358.1,340.9,357,339.5,357z M339.5,381.4c-1.3,0-2.4,1.1-2.4,2.4c0,1.3,1.1,2.4,2.4,2.4s2.4-1.1,2.4-2.4
		C342,382.5,340.9,381.4,339.5,381.4z M339.5,405.7c-1.3,0-2.4,1.1-2.4,2.4c0,1.3,1.1,2.4,2.4,2.4s2.4-1.1,2.4-2.4
		C342,406.8,340.9,405.7,339.5,405.7z M339.5,430.1c-1.3,0-2.4,1.1-2.4,2.4c0,1.3,1.1,2.4,2.4,2.4s2.4-1.1,2.4-2.4
		C342,431.2,340.9,430.1,339.5,430.1z M339.5,454.5c-1.3,0-2.4,1.1-2.4,2.4c0,1.3,1.1,2.4,2.4,2.4s2.4-1.1,2.4-2.4
		C342,455.5,340.9,454.5,339.5,454.5z M339.5,478.8c-1.3,0-2.4,1.1-2.4,2.4c0,1.3,1.1,2.4,2.4,2.4s2.4-1.1,2.4-2.4
		C342,479.9,340.9,478.8,339.5,478.8z M339.5,503.2c-1.3,0-2.4,1.1-2.4,2.4c0,1.3,1.1,2.4,2.4,2.4s2.4-1.1,2.4-2.4
		C342,504.2,340.9,503.2,339.5,503.2z M339.5,527.5c-1.3,0-2.4,1.1-2.4,2.4s1.1,2.4,2.4,2.4s2.4-1.1,2.4-2.4
		S340.9,527.5,339.5,527.5z M339.5,551.9c-1.3,0-2.4,1.1-2.4,2.4c0,1.3,1.1,2.4,2.4,2.4s2.4-1.1,2.4-2.4
		C342,553,340.9,551.9,339.5,551.9z M315.2,64.8c-1.3,0-2.4,1.1-2.4,2.4c0,1.3,1.1,2.4,2.4,2.4s2.4-1.1,2.4-2.4
		C317.6,65.9,316.5,64.8,315.2,64.8z M315.2,89.2c-1.3,0-2.4,1.1-2.4,2.4c0,1.3,1.1,2.4,2.4,2.4s2.4-1.1,2.4-2.4
		C317.6,90.3,316.5,89.2,315.2,89.2z M315.2,113.5c-1.3,0-2.4,1.1-2.4,2.4c0,1.3,1.1,2.4,2.4,2.4s2.4-1.1,2.4-2.4
		C317.6,114.6,316.5,113.5,315.2,113.5z M315.2,137.9c-1.3,0-2.4,1.1-2.4,2.4c0,1.3,1.1,2.4,2.4,2.4s2.4-1.1,2.4-2.4
		C317.6,139,316.5,137.9,315.2,137.9z M315.2,162.2c-1.3,0-2.4,1.1-2.4,2.4c0,1.3,1.1,2.4,2.4,2.4s2.4-1.1,2.4-2.4
		C317.6,163.3,316.5,162.2,315.2,162.2z M315.2,186.6c-1.3,0-2.4,1.1-2.4,2.4c0,1.3,1.1,2.4,2.4,2.4s2.4-1.1,2.4-2.4
		C317.6,187.7,316.5,186.6,315.2,186.6z M315.2,210.9c-1.3,0-2.4,1.1-2.4,2.4c0,1.3,1.1,2.4,2.4,2.4s2.4-1.1,2.4-2.4
		C317.6,212,316.5,210.9,315.2,210.9z M315.2,235.3c-1.3,0-2.4,1.1-2.4,2.4c0,1.3,1.1,2.4,2.4,2.4s2.4-1.1,2.4-2.4
		C317.6,236.4,316.5,235.3,315.2,235.3z M315.2,259.6c-1.3,0-2.4,1.1-2.4,2.4c0,1.3,1.1,2.4,2.4,2.4s2.4-1.1,2.4-2.4
		C317.6,260.7,316.5,259.6,315.2,259.6z M315.2,284c-1.3,0-2.4,1.1-2.4,2.4c0,1.3,1.1,2.4,2.4,2.4s2.4-1.1,2.4-2.4
		C317.6,285.1,316.5,284,315.2,284z M315.2,308.3c-1.3,0-2.4,1.1-2.4,2.4c0,1.3,1.1,2.4,2.4,2.4s2.4-1.1,2.4-2.4
		C317.6,309.4,316.5,308.3,315.2,308.3z M315.2,332.7c-1.3,0-2.4,1.1-2.4,2.4c0,1.3,1.1,2.4,2.4,2.4s2.4-1.1,2.4-2.4
		C317.6,333.8,316.5,332.7,315.2,332.7z M315.2,357c-1.3,0-2.4,1.1-2.4,2.4c0,1.3,1.1,2.4,2.4,2.4s2.4-1.1,2.4-2.4
		C317.6,358.1,316.5,357,315.2,357z M315.2,381.4c-1.3,0-2.4,1.1-2.4,2.4c0,1.3,1.1,2.4,2.4,2.4s2.4-1.1,2.4-2.4
		C317.6,382.5,316.5,381.4,315.2,381.4z M315.2,405.7c-1.3,0-2.4,1.1-2.4,2.4c0,1.3,1.1,2.4,2.4,2.4s2.4-1.1,2.4-2.4
		C317.6,406.8,316.5,405.7,315.2,405.7z M315.2,430.1c-1.3,0-2.4,1.1-2.4,2.4c0,1.3,1.1,2.4,2.4,2.4s2.4-1.1,2.4-2.4
		C317.6,431.2,316.5,430.1,315.2,430.1z M315.2,454.5c-1.3,0-2.4,1.1-2.4,2.4c0,1.3,1.1,2.4,2.4,2.4s2.4-1.1,2.4-2.4
		C317.6,455.5,316.5,454.5,315.2,454.5z M315.2,478.8c-1.3,0-2.4,1.1-2.4,2.4c0,1.3,1.1,2.4,2.4,2.4s2.4-1.1,2.4-2.4
		C317.6,479.9,316.5,478.8,315.2,478.8z M315.2,503.2c-1.3,0-2.4,1.1-2.4,2.4c0,1.3,1.1,2.4,2.4,2.4s2.4-1.1,2.4-2.4
		C317.6,504.2,316.5,503.2,315.2,503.2z M315.2,527.5c-1.3,0-2.4,1.1-2.4,2.4s1.1,2.4,2.4,2.4s2.4-1.1,2.4-2.4
		S316.5,527.5,315.2,527.5z M315.2,551.9c-1.3,0-2.4,1.1-2.4,2.4c0,1.3,1.1,2.4,2.4,2.4s2.4-1.1,2.4-2.4
		C317.6,553,316.5,551.9,315.2,551.9z M290.8,64.8c-1.3,0-2.4,1.1-2.4,2.4c0,1.3,1.1,2.4,2.4,2.4s2.4-1.1,2.4-2.4
		C293.3,65.9,292.2,64.8,290.8,64.8z M290.8,89.2c-1.3,0-2.4,1.1-2.4,2.4c0,1.3,1.1,2.4,2.4,2.4s2.4-1.1,2.4-2.4
		C293.3,90.3,292.2,89.2,290.8,89.2z M290.8,113.5c-1.3,0-2.4,1.1-2.4,2.4c0,1.3,1.1,2.4,2.4,2.4s2.4-1.1,2.4-2.4
		C293.3,114.6,292.2,113.5,290.8,113.5z M290.8,137.9c-1.3,0-2.4,1.1-2.4,2.4c0,1.3,1.1,2.4,2.4,2.4s2.4-1.1,2.4-2.4
		C293.3,139,292.2,137.9,290.8,137.9z M290.8,162.2c-1.3,0-2.4,1.1-2.4,2.4c0,1.3,1.1,2.4,2.4,2.4s2.4-1.1,2.4-2.4
		C293.3,163.3,292.2,162.2,290.8,162.2z M290.8,186.6c-1.3,0-2.4,1.1-2.4,2.4c0,1.3,1.1,2.4,2.4,2.4s2.4-1.1,2.4-2.4
		C293.3,187.7,292.2,186.6,290.8,186.6z M290.8,210.9c-1.3,0-2.4,1.1-2.4,2.4c0,1.3,1.1,2.4,2.4,2.4s2.4-1.1,2.4-2.4
		C293.3,212,292.2,210.9,290.8,210.9z M290.8,235.3c-1.3,0-2.4,1.1-2.4,2.4c0,1.3,1.1,2.4,2.4,2.4s2.4-1.1,2.4-2.4
		C293.3,236.4,292.2,235.3,290.8,235.3z M290.8,259.6c-1.3,0-2.4,1.1-2.4,2.4c0,1.3,1.1,2.4,2.4,2.4s2.4-1.1,2.4-2.4
		C293.3,260.7,292.2,259.6,290.8,259.6z M290.8,284c-1.3,0-2.4,1.1-2.4,2.4c0,1.3,1.1,2.4,2.4,2.4s2.4-1.1,2.4-2.4
		C293.3,285.1,292.2,284,290.8,284z M290.8,308.3c-1.3,0-2.4,1.1-2.4,2.4c0,1.3,1.1,2.4,2.4,2.4s2.4-1.1,2.4-2.4
		C293.3,309.4,292.2,308.3,290.8,308.3z M290.8,332.7c-1.3,0-2.4,1.1-2.4,2.4c0,1.3,1.1,2.4,2.4,2.4s2.4-1.1,2.4-2.4
		C293.3,333.8,292.2,332.7,290.8,332.7z M290.8,357c-1.3,0-2.4,1.1-2.4,2.4c0,1.3,1.1,2.4,2.4,2.4s2.4-1.1,2.4-2.4
		C293.3,358.1,292.2,357,290.8,357z M290.8,381.4c-1.3,0-2.4,1.1-2.4,2.4c0,1.3,1.1,2.4,2.4,2.4s2.4-1.1,2.4-2.4
		C293.3,382.5,292.2,381.4,290.8,381.4z M290.8,405.7c-1.3,0-2.4,1.1-2.4,2.4c0,1.3,1.1,2.4,2.4,2.4s2.4-1.1,2.4-2.4
		C293.3,406.8,292.2,405.7,290.8,405.7z M290.8,430.1c-1.3,0-2.4,1.1-2.4,2.4c0,1.3,1.1,2.4,2.4,2.4s2.4-1.1,2.4-2.4
		C293.3,431.2,292.2,430.1,290.8,430.1z M290.8,454.5c-1.3,0-2.4,1.1-2.4,2.4c0,1.3,1.1,2.4,2.4,2.4s2.4-1.1,2.4-2.4
		C293.3,455.5,292.2,454.5,290.8,454.5z M290.8,478.8c-1.3,0-2.4,1.1-2.4,2.4c0,1.3,1.1,2.4,2.4,2.4s2.4-1.1,2.4-2.4
		C293.3,479.9,292.2,478.8,290.8,478.8z M290.8,503.2c-1.3,0-2.4,1.1-2.4,2.4c0,1.3,1.1,2.4,2.4,2.4s2.4-1.1,2.4-2.4
		C293.3,504.2,292.2,503.2,290.8,503.2z M290.8,527.5c-1.3,0-2.4,1.1-2.4,2.4s1.1,2.4,2.4,2.4s2.4-1.1,2.4-2.4
		S292.2,527.5,290.8,527.5z M290.8,551.9c-1.3,0-2.4,1.1-2.4,2.4c0,1.3,1.1,2.4,2.4,2.4s2.4-1.1,2.4-2.4
		C293.3,553,292.2,551.9,290.8,551.9z M266.5,64.8c-1.3,0-2.4,1.1-2.4,2.4c0,1.3,1.1,2.4,2.4,2.4s2.4-1.1,2.4-2.4
		C268.9,65.9,267.8,64.8,266.5,64.8z M266.5,89.2c-1.3,0-2.4,1.1-2.4,2.4c0,1.3,1.1,2.4,2.4,2.4s2.4-1.1,2.4-2.4
		C268.9,90.3,267.8,89.2,266.5,89.2z M266.5,113.5c-1.3,0-2.4,1.1-2.4,2.4c0,1.3,1.1,2.4,2.4,2.4s2.4-1.1,2.4-2.4
		C268.9,114.6,267.8,113.5,266.5,113.5z M266.5,137.9c-1.3,0-2.4,1.1-2.4,2.4c0,1.3,1.1,2.4,2.4,2.4s2.4-1.1,2.4-2.4
		C268.9,139,267.8,137.9,266.5,137.9z M266.5,162.2c-1.3,0-2.4,1.1-2.4,2.4c0,1.3,1.1,2.4,2.4,2.4s2.4-1.1,2.4-2.4
		C268.9,163.3,267.8,162.2,266.5,162.2z M266.5,186.6c-1.3,0-2.4,1.1-2.4,2.4c0,1.3,1.1,2.4,2.4,2.4s2.4-1.1,2.4-2.4
		C268.9,187.7,267.8,186.6,266.5,186.6z M266.5,210.9c-1.3,0-2.4,1.1-2.4,2.4c0,1.3,1.1,2.4,2.4,2.4s2.4-1.1,2.4-2.4
		C268.9,212,267.8,210.9,266.5,210.9z M266.5,235.3c-1.3,0-2.4,1.1-2.4,2.4c0,1.3,1.1,2.4,2.4,2.4s2.4-1.1,2.4-2.4
		C268.9,236.4,267.8,235.3,266.5,235.3z M266.5,259.6c-1.3,0-2.4,1.1-2.4,2.4c0,1.3,1.1,2.4,2.4,2.4s2.4-1.1,2.4-2.4
		C268.9,260.7,267.8,259.6,266.5,259.6z M266.5,284c-1.3,0-2.4,1.1-2.4,2.4c0,1.3,1.1,2.4,2.4,2.4s2.4-1.1,2.4-2.4
		C268.9,285.1,267.8,284,266.5,284z M266.5,308.3c-1.3,0-2.4,1.1-2.4,2.4c0,1.3,1.1,2.4,2.4,2.4s2.4-1.1,2.4-2.4
		C268.9,309.4,267.8,308.3,266.5,308.3z M266.5,332.7c-1.3,0-2.4,1.1-2.4,2.4c0,1.3,1.1,2.4,2.4,2.4s2.4-1.1,2.4-2.4
		C268.9,333.8,267.8,332.7,266.5,332.7z M266.5,357c-1.3,0-2.4,1.1-2.4,2.4c0,1.3,1.1,2.4,2.4,2.4s2.4-1.1,2.4-2.4
		C268.9,358.1,267.8,357,266.5,357z M266.5,381.4c-1.3,0-2.4,1.1-2.4,2.4c0,1.3,1.1,2.4,2.4,2.4s2.4-1.1,2.4-2.4
		C268.9,382.5,267.8,381.4,266.5,381.4z M266.5,405.7c-1.3,0-2.4,1.1-2.4,2.4c0,1.3,1.1,2.4,2.4,2.4s2.4-1.1,2.4-2.4
		C268.9,406.8,267.8,405.7,266.5,405.7z M266.5,430.1c-1.3,0-2.4,1.1-2.4,2.4c0,1.3,1.1,2.4,2.4,2.4s2.4-1.1,2.4-2.4
		C268.9,431.2,267.8,430.1,266.5,430.1z M266.5,454.5c-1.3,0-2.4,1.1-2.4,2.4c0,1.3,1.1,2.4,2.4,2.4s2.4-1.1,2.4-2.4
		C268.9,455.5,267.8,454.5,266.5,454.5z M266.5,478.8c-1.3,0-2.4,1.1-2.4,2.4c0,1.3,1.1,2.4,2.4,2.4s2.4-1.1,2.4-2.4
		C268.9,479.9,267.8,478.8,266.5,478.8z M266.5,503.2c-1.3,0-2.4,1.1-2.4,2.4c0,1.3,1.1,2.4,2.4,2.4s2.4-1.1,2.4-2.4
		C268.9,504.2,267.8,503.2,266.5,503.2z M266.5,527.5c-1.3,0-2.4,1.1-2.4,2.4s1.1,2.4,2.4,2.4s2.4-1.1,2.4-2.4
		S267.8,527.5,266.5,527.5z M266.5,551.9c-1.3,0-2.4,1.1-2.4,2.4c0,1.3,1.1,2.4,2.4,2.4s2.4-1.1,2.4-2.4
		C268.9,553,267.8,551.9,266.5,551.9z M242.1,64.8c-1.3,0-2.4,1.1-2.4,2.4c0,1.3,1.1,2.4,2.4,2.4c1.3,0,2.4-1.1,2.4-2.4
		C244.6,65.9,243.5,64.8,242.1,64.8z M242.1,89.2c-1.3,0-2.4,1.1-2.4,2.4c0,1.3,1.1,2.4,2.4,2.4c1.3,0,2.4-1.1,2.4-2.4
		C244.6,90.3,243.5,89.2,242.1,89.2z M242.1,113.5c-1.3,0-2.4,1.1-2.4,2.4c0,1.3,1.1,2.4,2.4,2.4c1.3,0,2.4-1.1,2.4-2.4
		C244.6,114.6,243.5,113.5,242.1,113.5z M242.1,137.9c-1.3,0-2.4,1.1-2.4,2.4c0,1.3,1.1,2.4,2.4,2.4c1.3,0,2.4-1.1,2.4-2.4
		C244.6,139,243.5,137.9,242.1,137.9z M242.1,162.2c-1.3,0-2.4,1.1-2.4,2.4c0,1.3,1.1,2.4,2.4,2.4c1.3,0,2.4-1.1,2.4-2.4
		C244.6,163.3,243.5,162.2,242.1,162.2z M242.1,186.6c-1.3,0-2.4,1.1-2.4,2.4c0,1.3,1.1,2.4,2.4,2.4c1.3,0,2.4-1.1,2.4-2.4
		C244.6,187.7,243.5,186.6,242.1,186.6z M242.1,210.9c-1.3,0-2.4,1.1-2.4,2.4c0,1.3,1.1,2.4,2.4,2.4c1.3,0,2.4-1.1,2.4-2.4
		C244.6,212,243.5,210.9,242.1,210.9z M242.1,235.3c-1.3,0-2.4,1.1-2.4,2.4c0,1.3,1.1,2.4,2.4,2.4c1.3,0,2.4-1.1,2.4-2.4
		C244.6,236.4,243.5,235.3,242.1,235.3z M242.1,259.6c-1.3,0-2.4,1.1-2.4,2.4c0,1.3,1.1,2.4,2.4,2.4c1.3,0,2.4-1.1,2.4-2.4
		C244.6,260.7,243.5,259.6,242.1,259.6z M242.1,284c-1.3,0-2.4,1.1-2.4,2.4c0,1.3,1.1,2.4,2.4,2.4c1.3,0,2.4-1.1,2.4-2.4
		C244.6,285.1,243.5,284,242.1,284z M242.1,308.3c-1.3,0-2.4,1.1-2.4,2.4c0,1.3,1.1,2.4,2.4,2.4c1.3,0,2.4-1.1,2.4-2.4
		C244.6,309.4,243.5,308.3,242.1,308.3z M242.1,332.7c-1.3,0-2.4,1.1-2.4,2.4c0,1.3,1.1,2.4,2.4,2.4c1.3,0,2.4-1.1,2.4-2.4
		C244.6,333.8,243.5,332.7,242.1,332.7z M242.1,357c-1.3,0-2.4,1.1-2.4,2.4c0,1.3,1.1,2.4,2.4,2.4c1.3,0,2.4-1.1,2.4-2.4
		C244.6,358.1,243.5,357,242.1,357z M242.1,381.4c-1.3,0-2.4,1.1-2.4,2.4c0,1.3,1.1,2.4,2.4,2.4c1.3,0,2.4-1.1,2.4-2.4
		C244.6,382.5,243.5,381.4,242.1,381.4z M242.1,405.7c-1.3,0-2.4,1.1-2.4,2.4c0,1.3,1.1,2.4,2.4,2.4c1.3,0,2.4-1.1,2.4-2.4
		C244.6,406.8,243.5,405.7,242.1,405.7z M242.1,430.1c-1.3,0-2.4,1.1-2.4,2.4c0,1.3,1.1,2.4,2.4,2.4c1.3,0,2.4-1.1,2.4-2.4
		C244.6,431.2,243.5,430.1,242.1,430.1z M242.1,454.5c-1.3,0-2.4,1.1-2.4,2.4c0,1.3,1.1,2.4,2.4,2.4c1.3,0,2.4-1.1,2.4-2.4
		C244.6,455.5,243.5,454.5,242.1,454.5z M242.1,478.8c-1.3,0-2.4,1.1-2.4,2.4c0,1.3,1.1,2.4,2.4,2.4c1.3,0,2.4-1.1,2.4-2.4
		C244.6,479.9,243.5,478.8,242.1,478.8z M242.1,503.2c-1.3,0-2.4,1.1-2.4,2.4c0,1.3,1.1,2.4,2.4,2.4c1.3,0,2.4-1.1,2.4-2.4
		C244.6,504.2,243.5,503.2,242.1,503.2z M242.1,527.5c-1.3,0-2.4,1.1-2.4,2.4s1.1,2.4,2.4,2.4c1.3,0,2.4-1.1,2.4-2.4
		S243.5,527.5,242.1,527.5z M242.1,551.9c-1.3,0-2.4,1.1-2.4,2.4c0,1.3,1.1,2.4,2.4,2.4c1.3,0,2.4-1.1,2.4-2.4
		C244.6,553,243.5,551.9,242.1,551.9z M217.8,64.8c-1.3,0-2.4,1.1-2.4,2.4c0,1.3,1.1,2.4,2.4,2.4s2.4-1.1,2.4-2.4
		C220.2,65.9,219.1,64.8,217.8,64.8z M217.8,89.2c-1.3,0-2.4,1.1-2.4,2.4c0,1.3,1.1,2.4,2.4,2.4s2.4-1.1,2.4-2.4
		C220.2,90.3,219.1,89.2,217.8,89.2z M217.8,113.5c-1.3,0-2.4,1.1-2.4,2.4c0,1.3,1.1,2.4,2.4,2.4s2.4-1.1,2.4-2.4
		C220.2,114.6,219.1,113.5,217.8,113.5z M217.8,137.9c-1.3,0-2.4,1.1-2.4,2.4c0,1.3,1.1,2.4,2.4,2.4s2.4-1.1,2.4-2.4
		C220.2,139,219.1,137.9,217.8,137.9z M217.8,162.2c-1.3,0-2.4,1.1-2.4,2.4c0,1.3,1.1,2.4,2.4,2.4s2.4-1.1,2.4-2.4
		C220.2,163.3,219.1,162.2,217.8,162.2z M217.8,186.6c-1.3,0-2.4,1.1-2.4,2.4c0,1.3,1.1,2.4,2.4,2.4s2.4-1.1,2.4-2.4
		C220.2,187.7,219.1,186.6,217.8,186.6z M217.8,210.9c-1.3,0-2.4,1.1-2.4,2.4c0,1.3,1.1,2.4,2.4,2.4s2.4-1.1,2.4-2.4
		C220.2,212,219.1,210.9,217.8,210.9z M217.8,235.3c-1.3,0-2.4,1.1-2.4,2.4c0,1.3,1.1,2.4,2.4,2.4s2.4-1.1,2.4-2.4
		C220.2,236.4,219.1,235.3,217.8,235.3z M217.8,259.6c-1.3,0-2.4,1.1-2.4,2.4c0,1.3,1.1,2.4,2.4,2.4s2.4-1.1,2.4-2.4
		C220.2,260.7,219.1,259.6,217.8,259.6z M217.8,284c-1.3,0-2.4,1.1-2.4,2.4c0,1.3,1.1,2.4,2.4,2.4s2.4-1.1,2.4-2.4
		C220.2,285.1,219.1,284,217.8,284z M217.8,308.3c-1.3,0-2.4,1.1-2.4,2.4c0,1.3,1.1,2.4,2.4,2.4s2.4-1.1,2.4-2.4
		C220.2,309.4,219.1,308.3,217.8,308.3z M217.8,332.7c-1.3,0-2.4,1.1-2.4,2.4c0,1.3,1.1,2.4,2.4,2.4s2.4-1.1,2.4-2.4
		C220.2,333.8,219.1,332.7,217.8,332.7z M217.8,357c-1.3,0-2.4,1.1-2.4,2.4c0,1.3,1.1,2.4,2.4,2.4s2.4-1.1,2.4-2.4
		C220.2,358.1,219.1,357,217.8,357z M217.8,381.4c-1.3,0-2.4,1.1-2.4,2.4c0,1.3,1.1,2.4,2.4,2.4s2.4-1.1,2.4-2.4
		C220.2,382.5,219.1,381.4,217.8,381.4z M217.8,405.7c-1.3,0-2.4,1.1-2.4,2.4c0,1.3,1.1,2.4,2.4,2.4s2.4-1.1,2.4-2.4
		C220.2,406.8,219.1,405.7,217.8,405.7z M217.8,430.1c-1.3,0-2.4,1.1-2.4,2.4c0,1.3,1.1,2.4,2.4,2.4s2.4-1.1,2.4-2.4
		C220.2,431.2,219.1,430.1,217.8,430.1z M217.8,454.5c-1.3,0-2.4,1.1-2.4,2.4c0,1.3,1.1,2.4,2.4,2.4s2.4-1.1,2.4-2.4
		C220.2,455.5,219.1,454.5,217.8,454.5z M217.8,478.8c-1.3,0-2.4,1.1-2.4,2.4c0,1.3,1.1,2.4,2.4,2.4s2.4-1.1,2.4-2.4
		C220.2,479.9,219.1,478.8,217.8,478.8z M217.8,503.2c-1.3,0-2.4,1.1-2.4,2.4c0,1.3,1.1,2.4,2.4,2.4s2.4-1.1,2.4-2.4
		C220.2,504.2,219.1,503.2,217.8,503.2z M217.8,527.5c-1.3,0-2.4,1.1-2.4,2.4s1.1,2.4,2.4,2.4s2.4-1.1,2.4-2.4
		S219.1,527.5,217.8,527.5z M217.8,551.9c-1.3,0-2.4,1.1-2.4,2.4c0,1.3,1.1,2.4,2.4,2.4s2.4-1.1,2.4-2.4
		C220.2,553,219.1,551.9,217.8,551.9z M193.4,64.8c-1.3,0-2.4,1.1-2.4,2.4c0,1.3,1.1,2.4,2.4,2.4s2.4-1.1,2.4-2.4
		C195.9,65.9,194.8,64.8,193.4,64.8z M193.4,89.2c-1.3,0-2.4,1.1-2.4,2.4c0,1.3,1.1,2.4,2.4,2.4s2.4-1.1,2.4-2.4
		C195.9,90.3,194.8,89.2,193.4,89.2z M193.4,113.5c-1.3,0-2.4,1.1-2.4,2.4c0,1.3,1.1,2.4,2.4,2.4s2.4-1.1,2.4-2.4
		C195.9,114.6,194.8,113.5,193.4,113.5z M193.4,137.9c-1.3,0-2.4,1.1-2.4,2.4c0,1.3,1.1,2.4,2.4,2.4s2.4-1.1,2.4-2.4
		C195.9,139,194.8,137.9,193.4,137.9z M193.4,162.2c-1.3,0-2.4,1.1-2.4,2.4c0,1.3,1.1,2.4,2.4,2.4s2.4-1.1,2.4-2.4
		C195.9,163.3,194.8,162.2,193.4,162.2z M193.4,186.6c-1.3,0-2.4,1.1-2.4,2.4c0,1.3,1.1,2.4,2.4,2.4s2.4-1.1,2.4-2.4
		C195.9,187.7,194.8,186.6,193.4,186.6z M193.4,210.9c-1.3,0-2.4,1.1-2.4,2.4c0,1.3,1.1,2.4,2.4,2.4s2.4-1.1,2.4-2.4
		C195.9,212,194.8,210.9,193.4,210.9z M193.4,235.3c-1.3,0-2.4,1.1-2.4,2.4c0,1.3,1.1,2.4,2.4,2.4s2.4-1.1,2.4-2.4
		C195.9,236.4,194.8,235.3,193.4,235.3z M193.4,259.6c-1.3,0-2.4,1.1-2.4,2.4c0,1.3,1.1,2.4,2.4,2.4s2.4-1.1,2.4-2.4
		C195.9,260.7,194.8,259.6,193.4,259.6z M193.4,284c-1.3,0-2.4,1.1-2.4,2.4c0,1.3,1.1,2.4,2.4,2.4s2.4-1.1,2.4-2.4
		C195.9,285.1,194.8,284,193.4,284z M193.4,308.3c-1.3,0-2.4,1.1-2.4,2.4c0,1.3,1.1,2.4,2.4,2.4s2.4-1.1,2.4-2.4
		C195.9,309.4,194.8,308.3,193.4,308.3z M193.4,332.7c-1.3,0-2.4,1.1-2.4,2.4c0,1.3,1.1,2.4,2.4,2.4s2.4-1.1,2.4-2.4
		C195.9,333.8,194.8,332.7,193.4,332.7z M193.4,357c-1.3,0-2.4,1.1-2.4,2.4c0,1.3,1.1,2.4,2.4,2.4s2.4-1.1,2.4-2.4
		C195.9,358.1,194.8,357,193.4,357z M193.4,381.4c-1.3,0-2.4,1.1-2.4,2.4c0,1.3,1.1,2.4,2.4,2.4s2.4-1.1,2.4-2.4
		C195.9,382.5,194.8,381.4,193.4,381.4z M193.4,405.7c-1.3,0-2.4,1.1-2.4,2.4c0,1.3,1.1,2.4,2.4,2.4s2.4-1.1,2.4-2.4
		C195.9,406.8,194.8,405.7,193.4,405.7z M193.4,430.1c-1.3,0-2.4,1.1-2.4,2.4c0,1.3,1.1,2.4,2.4,2.4s2.4-1.1,2.4-2.4
		C195.9,431.2,194.8,430.1,193.4,430.1z M193.4,454.5c-1.3,0-2.4,1.1-2.4,2.4c0,1.3,1.1,2.4,2.4,2.4s2.4-1.1,2.4-2.4
		C195.9,455.5,194.8,454.5,193.4,454.5z M193.4,478.8c-1.3,0-2.4,1.1-2.4,2.4c0,1.3,1.1,2.4,2.4,2.4s2.4-1.1,2.4-2.4
		C195.9,479.9,194.8,478.8,193.4,478.8z M193.4,503.2c-1.3,0-2.4,1.1-2.4,2.4c0,1.3,1.1,2.4,2.4,2.4s2.4-1.1,2.4-2.4
		C195.9,504.2,194.8,503.2,193.4,503.2z M193.4,527.5c-1.3,0-2.4,1.1-2.4,2.4s1.1,2.4,2.4,2.4s2.4-1.1,2.4-2.4
		S194.8,527.5,193.4,527.5z M193.4,551.9c-1.3,0-2.4,1.1-2.4,2.4c0,1.3,1.1,2.4,2.4,2.4s2.4-1.1,2.4-2.4
		C195.9,553,194.8,551.9,193.4,551.9z M169.1,64.8c-1.3,0-2.4,1.1-2.4,2.4c0,1.3,1.1,2.4,2.4,2.4c1.3,0,2.4-1.1,2.4-2.4
		C171.5,65.9,170.4,64.8,169.1,64.8z M169.1,89.2c-1.3,0-2.4,1.1-2.4,2.4c0,1.3,1.1,2.4,2.4,2.4c1.3,0,2.4-1.1,2.4-2.4
		C171.5,90.3,170.4,89.2,169.1,89.2z M169.1,113.5c-1.3,0-2.4,1.1-2.4,2.4c0,1.3,1.1,2.4,2.4,2.4c1.3,0,2.4-1.1,2.4-2.4
		C171.5,114.6,170.4,113.5,169.1,113.5z M169.1,137.9c-1.3,0-2.4,1.1-2.4,2.4c0,1.3,1.1,2.4,2.4,2.4c1.3,0,2.4-1.1,2.4-2.4
		C171.5,139,170.4,137.9,169.1,137.9z M169.1,162.2c-1.3,0-2.4,1.1-2.4,2.4c0,1.3,1.1,2.4,2.4,2.4c1.3,0,2.4-1.1,2.4-2.4
		C171.5,163.3,170.4,162.2,169.1,162.2z M169.1,186.6c-1.3,0-2.4,1.1-2.4,2.4c0,1.3,1.1,2.4,2.4,2.4c1.3,0,2.4-1.1,2.4-2.4
		C171.5,187.7,170.4,186.6,169.1,186.6z M169.1,210.9c-1.3,0-2.4,1.1-2.4,2.4c0,1.3,1.1,2.4,2.4,2.4c1.3,0,2.4-1.1,2.4-2.4
		C171.5,212,170.4,210.9,169.1,210.9z M169.1,235.3c-1.3,0-2.4,1.1-2.4,2.4c0,1.3,1.1,2.4,2.4,2.4c1.3,0,2.4-1.1,2.4-2.4
		C171.5,236.4,170.4,235.3,169.1,235.3z M169.1,259.6c-1.3,0-2.4,1.1-2.4,2.4c0,1.3,1.1,2.4,2.4,2.4c1.3,0,2.4-1.1,2.4-2.4
		C171.5,260.7,170.4,259.6,169.1,259.6z M169.1,284c-1.3,0-2.4,1.1-2.4,2.4c0,1.3,1.1,2.4,2.4,2.4c1.3,0,2.4-1.1,2.4-2.4
		C171.5,285.1,170.4,284,169.1,284z M169.1,308.3c-1.3,0-2.4,1.1-2.4,2.4c0,1.3,1.1,2.4,2.4,2.4c1.3,0,2.4-1.1,2.4-2.4
		C171.5,309.4,170.4,308.3,169.1,308.3z M169.1,332.7c-1.3,0-2.4,1.1-2.4,2.4c0,1.3,1.1,2.4,2.4,2.4c1.3,0,2.4-1.1,2.4-2.4
		C171.5,333.8,170.4,332.7,169.1,332.7z M169.1,357c-1.3,0-2.4,1.1-2.4,2.4c0,1.3,1.1,2.4,2.4,2.4c1.3,0,2.4-1.1,2.4-2.4
		C171.5,358.1,170.4,357,169.1,357z M169.1,381.4c-1.3,0-2.4,1.1-2.4,2.4c0,1.3,1.1,2.4,2.4,2.4c1.3,0,2.4-1.1,2.4-2.4
		C171.5,382.5,170.4,381.4,169.1,381.4z M169.1,405.7c-1.3,0-2.4,1.1-2.4,2.4c0,1.3,1.1,2.4,2.4,2.4c1.3,0,2.4-1.1,2.4-2.4
		C171.5,406.8,170.4,405.7,169.1,405.7z M169.1,430.1c-1.3,0-2.4,1.1-2.4,2.4c0,1.3,1.1,2.4,2.4,2.4c1.3,0,2.4-1.1,2.4-2.4
		C171.5,431.2,170.4,430.1,169.1,430.1z M169.1,454.5c-1.3,0-2.4,1.1-2.4,2.4c0,1.3,1.1,2.4,2.4,2.4c1.3,0,2.4-1.1,2.4-2.4
		C171.5,455.5,170.4,454.5,169.1,454.5z M169.1,478.8c-1.3,0-2.4,1.1-2.4,2.4c0,1.3,1.1,2.4,2.4,2.4c1.3,0,2.4-1.1,2.4-2.4
		C171.5,479.9,170.4,478.8,169.1,478.8z M169.1,503.2c-1.3,0-2.4,1.1-2.4,2.4c0,1.3,1.1,2.4,2.4,2.4c1.3,0,2.4-1.1,2.4-2.4
		C171.5,504.2,170.4,503.2,169.1,503.2z M169.1,527.5c-1.3,0-2.4,1.1-2.4,2.4s1.1,2.4,2.4,2.4c1.3,0,2.4-1.1,2.4-2.4
		S170.4,527.5,169.1,527.5z M169.1,551.9c-1.3,0-2.4,1.1-2.4,2.4c0,1.3,1.1,2.4,2.4,2.4c1.3,0,2.4-1.1,2.4-2.4
		C171.5,553,170.4,551.9,169.1,551.9z M144.7,64.8c-1.3,0-2.4,1.1-2.4,2.4c0,1.3,1.1,2.4,2.4,2.4s2.4-1.1,2.4-2.4
		C147.2,65.9,146.1,64.8,144.7,64.8z M144.7,89.2c-1.3,0-2.4,1.1-2.4,2.4c0,1.3,1.1,2.4,2.4,2.4s2.4-1.1,2.4-2.4
		C147.2,90.3,146.1,89.2,144.7,89.2z M144.7,113.5c-1.3,0-2.4,1.1-2.4,2.4c0,1.3,1.1,2.4,2.4,2.4s2.4-1.1,2.4-2.4
		C147.2,114.6,146.1,113.5,144.7,113.5z M144.7,137.9c-1.3,0-2.4,1.1-2.4,2.4c0,1.3,1.1,2.4,2.4,2.4s2.4-1.1,2.4-2.4
		C147.2,139,146.1,137.9,144.7,137.9z M144.7,162.2c-1.3,0-2.4,1.1-2.4,2.4c0,1.3,1.1,2.4,2.4,2.4s2.4-1.1,2.4-2.4
		C147.2,163.3,146.1,162.2,144.7,162.2z M144.7,186.6c-1.3,0-2.4,1.1-2.4,2.4c0,1.3,1.1,2.4,2.4,2.4s2.4-1.1,2.4-2.4
		C147.2,187.7,146.1,186.6,144.7,186.6z M144.7,210.9c-1.3,0-2.4,1.1-2.4,2.4c0,1.3,1.1,2.4,2.4,2.4s2.4-1.1,2.4-2.4
		C147.2,212,146.1,210.9,144.7,210.9z M144.7,235.3c-1.3,0-2.4,1.1-2.4,2.4c0,1.3,1.1,2.4,2.4,2.4s2.4-1.1,2.4-2.4
		C147.2,236.4,146.1,235.3,144.7,235.3z M144.7,259.6c-1.3,0-2.4,1.1-2.4,2.4c0,1.3,1.1,2.4,2.4,2.4s2.4-1.1,2.4-2.4
		C147.2,260.7,146.1,259.6,144.7,259.6z M144.7,284c-1.3,0-2.4,1.1-2.4,2.4c0,1.3,1.1,2.4,2.4,2.4s2.4-1.1,2.4-2.4
		C147.2,285.1,146.1,284,144.7,284z M144.7,308.3c-1.3,0-2.4,1.1-2.4,2.4c0,1.3,1.1,2.4,2.4,2.4s2.4-1.1,2.4-2.4
		C147.2,309.4,146.1,308.3,144.7,308.3z M144.7,332.7c-1.3,0-2.4,1.1-2.4,2.4c0,1.3,1.1,2.4,2.4,2.4s2.4-1.1,2.4-2.4
		C147.2,333.8,146.1,332.7,144.7,332.7z M144.7,357c-1.3,0-2.4,1.1-2.4,2.4c0,1.3,1.1,2.4,2.4,2.4s2.4-1.1,2.4-2.4
		C147.2,358.1,146.1,357,144.7,357z M144.7,381.4c-1.3,0-2.4,1.1-2.4,2.4c0,1.3,1.1,2.4,2.4,2.4s2.4-1.1,2.4-2.4
		C147.2,382.5,146.1,381.4,144.7,381.4z M144.7,405.7c-1.3,0-2.4,1.1-2.4,2.4c0,1.3,1.1,2.4,2.4,2.4s2.4-1.1,2.4-2.4
		C147.2,406.8,146.1,405.7,144.7,405.7z M144.7,430.1c-1.3,0-2.4,1.1-2.4,2.4c0,1.3,1.1,2.4,2.4,2.4s2.4-1.1,2.4-2.4
		C147.2,431.2,146.1,430.1,144.7,430.1z M144.7,454.5c-1.3,0-2.4,1.1-2.4,2.4c0,1.3,1.1,2.4,2.4,2.4s2.4-1.1,2.4-2.4
		C147.2,455.5,146.1,454.5,144.7,454.5z M144.7,478.8c-1.3,0-2.4,1.1-2.4,2.4c0,1.3,1.1,2.4,2.4,2.4s2.4-1.1,2.4-2.4
		C147.2,479.9,146.1,478.8,144.7,478.8z M144.7,503.2c-1.3,0-2.4,1.1-2.4,2.4c0,1.3,1.1,2.4,2.4,2.4s2.4-1.1,2.4-2.4
		C147.2,504.2,146.1,503.2,144.7,503.2z M144.7,527.5c-1.3,0-2.4,1.1-2.4,2.4s1.1,2.4,2.4,2.4s2.4-1.1,2.4-2.4
		S146.1,527.5,144.7,527.5z M144.7,551.9c-1.3,0-2.4,1.1-2.4,2.4c0,1.3,1.1,2.4,2.4,2.4s2.4-1.1,2.4-2.4
		C147.2,553,146.1,551.9,144.7,551.9z M120.4,64.8c-1.3,0-2.4,1.1-2.4,2.4c0,1.3,1.1,2.4,2.4,2.4c1.3,0,2.4-1.1,2.4-2.4
		C122.8,65.9,121.7,64.8,120.4,64.8z M120.4,89.2c-1.3,0-2.4,1.1-2.4,2.4c0,1.3,1.1,2.4,2.4,2.4c1.3,0,2.4-1.1,2.4-2.4
		C122.8,90.3,121.7,89.2,120.4,89.2z M120.4,113.5c-1.3,0-2.4,1.1-2.4,2.4c0,1.3,1.1,2.4,2.4,2.4c1.3,0,2.4-1.1,2.4-2.4
		C122.8,114.6,121.7,113.5,120.4,113.5z M120.4,137.9c-1.3,0-2.4,1.1-2.4,2.4c0,1.3,1.1,2.4,2.4,2.4c1.3,0,2.4-1.1,2.4-2.4
		C122.8,139,121.7,137.9,120.4,137.9z M120.4,162.2c-1.3,0-2.4,1.1-2.4,2.4c0,1.3,1.1,2.4,2.4,2.4c1.3,0,2.4-1.1,2.4-2.4
		C122.8,163.3,121.7,162.2,120.4,162.2z M120.4,186.6c-1.3,0-2.4,1.1-2.4,2.4c0,1.3,1.1,2.4,2.4,2.4c1.3,0,2.4-1.1,2.4-2.4
		C122.8,187.7,121.7,186.6,120.4,186.6z M120.4,210.9c-1.3,0-2.4,1.1-2.4,2.4c0,1.3,1.1,2.4,2.4,2.4c1.3,0,2.4-1.1,2.4-2.4
		C122.8,212,121.7,210.9,120.4,210.9z M120.4,235.3c-1.3,0-2.4,1.1-2.4,2.4c0,1.3,1.1,2.4,2.4,2.4c1.3,0,2.4-1.1,2.4-2.4
		C122.8,236.4,121.7,235.3,120.4,235.3z M120.4,259.6c-1.3,0-2.4,1.1-2.4,2.4c0,1.3,1.1,2.4,2.4,2.4c1.3,0,2.4-1.1,2.4-2.4
		C122.8,260.7,121.7,259.6,120.4,259.6z M120.4,284c-1.3,0-2.4,1.1-2.4,2.4c0,1.3,1.1,2.4,2.4,2.4c1.3,0,2.4-1.1,2.4-2.4
		C122.8,285.1,121.7,284,120.4,284z M120.4,308.3c-1.3,0-2.4,1.1-2.4,2.4c0,1.3,1.1,2.4,2.4,2.4c1.3,0,2.4-1.1,2.4-2.4
		C122.8,309.4,121.7,308.3,120.4,308.3z M120.4,332.7c-1.3,0-2.4,1.1-2.4,2.4c0,1.3,1.1,2.4,2.4,2.4c1.3,0,2.4-1.1,2.4-2.4
		C122.8,333.8,121.7,332.7,120.4,332.7z M120.4,357c-1.3,0-2.4,1.1-2.4,2.4c0,1.3,1.1,2.4,2.4,2.4c1.3,0,2.4-1.1,2.4-2.4
		C122.8,358.1,121.7,357,120.4,357z M120.4,381.4c-1.3,0-2.4,1.1-2.4,2.4c0,1.3,1.1,2.4,2.4,2.4c1.3,0,2.4-1.1,2.4-2.4
		C122.8,382.5,121.7,381.4,120.4,381.4z M120.4,405.7c-1.3,0-2.4,1.1-2.4,2.4c0,1.3,1.1,2.4,2.4,2.4c1.3,0,2.4-1.1,2.4-2.4
		C122.8,406.8,121.7,405.7,120.4,405.7z M120.4,430.1c-1.3,0-2.4,1.1-2.4,2.4c0,1.3,1.1,2.4,2.4,2.4c1.3,0,2.4-1.1,2.4-2.4
		C122.8,431.2,121.7,430.1,120.4,430.1z M120.4,454.5c-1.3,0-2.4,1.1-2.4,2.4c0,1.3,1.1,2.4,2.4,2.4c1.3,0,2.4-1.1,2.4-2.4
		C122.8,455.5,121.7,454.5,120.4,454.5z M120.4,478.8c-1.3,0-2.4,1.1-2.4,2.4c0,1.3,1.1,2.4,2.4,2.4c1.3,0,2.4-1.1,2.4-2.4
		C122.8,479.9,121.7,478.8,120.4,478.8z M120.4,503.2c-1.3,0-2.4,1.1-2.4,2.4c0,1.3,1.1,2.4,2.4,2.4c1.3,0,2.4-1.1,2.4-2.4
		C122.8,504.2,121.7,503.2,120.4,503.2z M120.4,527.5c-1.3,0-2.4,1.1-2.4,2.4s1.1,2.4,2.4,2.4c1.3,0,2.4-1.1,2.4-2.4
		S121.7,527.5,120.4,527.5z M120.4,551.9c-1.3,0-2.4,1.1-2.4,2.4c0,1.3,1.1,2.4,2.4,2.4c1.3,0,2.4-1.1,2.4-2.4
		C122.8,553,121.7,551.9,120.4,551.9z M96,64.8c-1.3,0-2.4,1.1-2.4,2.4c0,1.3,1.1,2.4,2.4,2.4s2.4-1.1,2.4-2.4
		C98.5,65.9,97.4,64.8,96,64.8z M96,89.2c-1.3,0-2.4,1.1-2.4,2.4c0,1.3,1.1,2.4,2.4,2.4s2.4-1.1,2.4-2.4
		C98.5,90.3,97.4,89.2,96,89.2z M96,113.5c-1.3,0-2.4,1.1-2.4,2.4c0,1.3,1.1,2.4,2.4,2.4s2.4-1.1,2.4-2.4
		C98.5,114.6,97.4,113.5,96,113.5z M96,137.9c-1.3,0-2.4,1.1-2.4,2.4c0,1.3,1.1,2.4,2.4,2.4s2.4-1.1,2.4-2.4
		C98.5,139,97.4,137.9,96,137.9z M96,162.2c-1.3,0-2.4,1.1-2.4,2.4c0,1.3,1.1,2.4,2.4,2.4s2.4-1.1,2.4-2.4
		C98.5,163.3,97.4,162.2,96,162.2z M96,186.6c-1.3,0-2.4,1.1-2.4,2.4c0,1.3,1.1,2.4,2.4,2.4s2.4-1.1,2.4-2.4
		C98.5,187.7,97.4,186.6,96,186.6z M96,210.9c-1.3,0-2.4,1.1-2.4,2.4c0,1.3,1.1,2.4,2.4,2.4s2.4-1.1,2.4-2.4
		C98.5,212,97.4,210.9,96,210.9z M96,235.3c-1.3,0-2.4,1.1-2.4,2.4c0,1.3,1.1,2.4,2.4,2.4s2.4-1.1,2.4-2.4
		C98.5,236.4,97.4,235.3,96,235.3z M96,259.6c-1.3,0-2.4,1.1-2.4,2.4c0,1.3,1.1,2.4,2.4,2.4s2.4-1.1,2.4-2.4
		C98.5,260.7,97.4,259.6,96,259.6z M96,284c-1.3,0-2.4,1.1-2.4,2.4c0,1.3,1.1,2.4,2.4,2.4s2.4-1.1,2.4-2.4
		C98.5,285.1,97.4,284,96,284z M96,308.3c-1.3,0-2.4,1.1-2.4,2.4c0,1.3,1.1,2.4,2.4,2.4s2.4-1.1,2.4-2.4
		C98.5,309.4,97.4,308.3,96,308.3z M96,332.7c-1.3,0-2.4,1.1-2.4,2.4c0,1.3,1.1,2.4,2.4,2.4s2.4-1.1,2.4-2.4
		C98.5,333.8,97.4,332.7,96,332.7z M96,357c-1.3,0-2.4,1.1-2.4,2.4c0,1.3,1.1,2.4,2.4,2.4s2.4-1.1,2.4-2.4
		C98.5,358.1,97.4,357,96,357z M96,381.4c-1.3,0-2.4,1.1-2.4,2.4c0,1.3,1.1,2.4,2.4,2.4s2.4-1.1,2.4-2.4
		C98.5,382.5,97.4,381.4,96,381.4z M96,405.7c-1.3,0-2.4,1.1-2.4,2.4c0,1.3,1.1,2.4,2.4,2.4s2.4-1.1,2.4-2.4
		C98.5,406.8,97.4,405.7,96,405.7z M96,430.1c-1.3,0-2.4,1.1-2.4,2.4c0,1.3,1.1,2.4,2.4,2.4s2.4-1.1,2.4-2.4
		C98.5,431.2,97.4,430.1,96,430.1z M96,454.5c-1.3,0-2.4,1.1-2.4,2.4c0,1.3,1.1,2.4,2.4,2.4s2.4-1.1,2.4-2.4
		C98.5,455.5,97.4,454.5,96,454.5z M96,478.8c-1.3,0-2.4,1.1-2.4,2.4c0,1.3,1.1,2.4,2.4,2.4s2.4-1.1,2.4-2.4
		C98.5,479.9,97.4,478.8,96,478.8z M96,503.2c-1.3,0-2.4,1.1-2.4,2.4c0,1.3,1.1,2.4,2.4,2.4s2.4-1.1,2.4-2.4
		C98.5,504.2,97.4,503.2,96,503.2z M96,527.5c-1.3,0-2.4,1.1-2.4,2.4s1.1,2.4,2.4,2.4s2.4-1.1,2.4-2.4S97.4,527.5,96,527.5z
		 M96,551.9c-1.3,0-2.4,1.1-2.4,2.4c0,1.3,1.1,2.4,2.4,2.4s2.4-1.1,2.4-2.4C98.5,553,97.4,551.9,96,551.9z M71.7,64.8
		c-1.3,0-2.4,1.1-2.4,2.4c0,1.3,1.1,2.4,2.4,2.4s2.4-1.1,2.4-2.4C74.1,65.9,73,64.8,71.7,64.8z M71.7,89.2c-1.3,0-2.4,1.1-2.4,2.4
		c0,1.3,1.1,2.4,2.4,2.4s2.4-1.1,2.4-2.4C74.1,90.3,73,89.2,71.7,89.2z M71.7,113.5c-1.3,0-2.4,1.1-2.4,2.4c0,1.3,1.1,2.4,2.4,2.4
		s2.4-1.1,2.4-2.4C74.1,114.6,73,113.5,71.7,113.5z M71.7,137.9c-1.3,0-2.4,1.1-2.4,2.4c0,1.3,1.1,2.4,2.4,2.4s2.4-1.1,2.4-2.4
		C74.1,139,73,137.9,71.7,137.9z M71.7,162.2c-1.3,0-2.4,1.1-2.4,2.4c0,1.3,1.1,2.4,2.4,2.4s2.4-1.1,2.4-2.4
		C74.1,163.3,73,162.2,71.7,162.2z M71.7,186.6c-1.3,0-2.4,1.1-2.4,2.4c0,1.3,1.1,2.4,2.4,2.4s2.4-1.1,2.4-2.4
		C74.1,187.7,73,186.6,71.7,186.6z M71.7,210.9c-1.3,0-2.4,1.1-2.4,2.4c0,1.3,1.1,2.4,2.4,2.4s2.4-1.1,2.4-2.4
		C74.1,212,73,210.9,71.7,210.9z M71.7,235.3c-1.3,0-2.4,1.1-2.4,2.4c0,1.3,1.1,2.4,2.4,2.4s2.4-1.1,2.4-2.4
		C74.1,236.4,73,235.3,71.7,235.3z M71.7,259.6c-1.3,0-2.4,1.1-2.4,2.4c0,1.3,1.1,2.4,2.4,2.4s2.4-1.1,2.4-2.4
		C74.1,260.7,73,259.6,71.7,259.6z M71.7,284c-1.3,0-2.4,1.1-2.4,2.4c0,1.3,1.1,2.4,2.4,2.4s2.4-1.1,2.4-2.4
		C74.1,285.1,73,284,71.7,284z M71.7,308.3c-1.3,0-2.4,1.1-2.4,2.4c0,1.3,1.1,2.4,2.4,2.4s2.4-1.1,2.4-2.4
		C74.1,309.4,73,308.3,71.7,308.3z M71.7,332.7c-1.3,0-2.4,1.1-2.4,2.4c0,1.3,1.1,2.4,2.4,2.4s2.4-1.1,2.4-2.4
		C74.1,333.8,73,332.7,71.7,332.7z M71.7,357c-1.3,0-2.4,1.1-2.4,2.4c0,1.3,1.1,2.4,2.4,2.4s2.4-1.1,2.4-2.4
		C74.1,358.1,73,357,71.7,357z M71.7,381.4c-1.3,0-2.4,1.1-2.4,2.4c0,1.3,1.1,2.4,2.4,2.4s2.4-1.1,2.4-2.4
		C74.1,382.5,73,381.4,71.7,381.4z M71.7,405.7c-1.3,0-2.4,1.1-2.4,2.4c0,1.3,1.1,2.4,2.4,2.4s2.4-1.1,2.4-2.4
		C74.1,406.8,73,405.7,71.7,405.7z M71.7,430.1c-1.3,0-2.4,1.1-2.4,2.4c0,1.3,1.1,2.4,2.4,2.4s2.4-1.1,2.4-2.4
		C74.1,431.2,73,430.1,71.7,430.1z M71.7,454.5c-1.3,0-2.4,1.1-2.4,2.4c0,1.3,1.1,2.4,2.4,2.4s2.4-1.1,2.4-2.4
		C74.1,455.5,73,454.5,71.7,454.5z M71.7,478.8c-1.3,0-2.4,1.1-2.4,2.4c0,1.3,1.1,2.4,2.4,2.4s2.4-1.1,2.4-2.4
		C74.1,479.9,73,478.8,71.7,478.8z M71.7,503.2c-1.3,0-2.4,1.1-2.4,2.4c0,1.3,1.1,2.4,2.4,2.4s2.4-1.1,2.4-2.4
		C74.1,504.2,73,503.2,71.7,503.2z M71.7,527.5c-1.3,0-2.4,1.1-2.4,2.4s1.1,2.4,2.4,2.4s2.4-1.1,2.4-2.4S73,527.5,71.7,527.5z
		 M71.7,551.9c-1.3,0-2.4,1.1-2.4,2.4c0,1.3,1.1,2.4,2.4,2.4s2.4-1.1,2.4-2.4C74.1,553,73,551.9,71.7,551.9z M47.3,64.8
		c-1.3,0-2.4,1.1-2.4,2.4c0,1.3,1.1,2.4,2.4,2.4s2.4-1.1,2.4-2.4C49.8,65.9,48.7,64.8,47.3,64.8z M47.3,89.2c-1.3,0-2.4,1.1-2.4,2.4
		c0,1.3,1.1,2.4,2.4,2.4s2.4-1.1,2.4-2.4C49.8,90.3,48.7,89.2,47.3,89.2z M47.3,113.5c-1.3,0-2.4,1.1-2.4,2.4c0,1.3,1.1,2.4,2.4,2.4
		s2.4-1.1,2.4-2.4C49.8,114.6,48.7,113.5,47.3,113.5z M47.3,137.9c-1.3,0-2.4,1.1-2.4,2.4c0,1.3,1.1,2.4,2.4,2.4s2.4-1.1,2.4-2.4
		C49.8,139,48.7,137.9,47.3,137.9z M47.3,162.2c-1.3,0-2.4,1.1-2.4,2.4c0,1.3,1.1,2.4,2.4,2.4s2.4-1.1,2.4-2.4
		C49.8,163.3,48.7,162.2,47.3,162.2z M47.3,186.6c-1.3,0-2.4,1.1-2.4,2.4c0,1.3,1.1,2.4,2.4,2.4s2.4-1.1,2.4-2.4
		C49.8,187.7,48.7,186.6,47.3,186.6z M47.3,210.9c-1.3,0-2.4,1.1-2.4,2.4c0,1.3,1.1,2.4,2.4,2.4s2.4-1.1,2.4-2.4
		C49.8,212,48.7,210.9,47.3,210.9z M47.3,235.3c-1.3,0-2.4,1.1-2.4,2.4c0,1.3,1.1,2.4,2.4,2.4s2.4-1.1,2.4-2.4
		C49.8,236.4,48.7,235.3,47.3,235.3z M47.3,259.6c-1.3,0-2.4,1.1-2.4,2.4c0,1.3,1.1,2.4,2.4,2.4s2.4-1.1,2.4-2.4
		C49.8,260.7,48.7,259.6,47.3,259.6z M47.3,284c-1.3,0-2.4,1.1-2.4,2.4c0,1.3,1.1,2.4,2.4,2.4s2.4-1.1,2.4-2.4
		C49.8,285.1,48.7,284,47.3,284z M47.3,308.3c-1.3,0-2.4,1.1-2.4,2.4c0,1.3,1.1,2.4,2.4,2.4s2.4-1.1,2.4-2.4
		C49.8,309.4,48.7,308.3,47.3,308.3z M47.3,332.7c-1.3,0-2.4,1.1-2.4,2.4c0,1.3,1.1,2.4,2.4,2.4s2.4-1.1,2.4-2.4
		C49.8,333.8,48.7,332.7,47.3,332.7z M47.3,357c-1.3,0-2.4,1.1-2.4,2.4c0,1.3,1.1,2.4,2.4,2.4s2.4-1.1,2.4-2.4
		C49.8,358.1,48.7,357,47.3,357z M47.3,381.4c-1.3,0-2.4,1.1-2.4,2.4c0,1.3,1.1,2.4,2.4,2.4s2.4-1.1,2.4-2.4
		C49.8,382.5,48.7,381.4,47.3,381.4z M47.3,405.7c-1.3,0-2.4,1.1-2.4,2.4c0,1.3,1.1,2.4,2.4,2.4s2.4-1.1,2.4-2.4
		C49.8,406.8,48.7,405.7,47.3,405.7z M47.3,430.1c-1.3,0-2.4,1.1-2.4,2.4c0,1.3,1.1,2.4,2.4,2.4s2.4-1.1,2.4-2.4
		C49.8,431.2,48.7,430.1,47.3,430.1z M47.3,454.5c-1.3,0-2.4,1.1-2.4,2.4c0,1.3,1.1,2.4,2.4,2.4s2.4-1.1,2.4-2.4
		C49.8,455.5,48.7,454.5,47.3,454.5z M47.3,478.8c-1.3,0-2.4,1.1-2.4,2.4c0,1.3,1.1,2.4,2.4,2.4s2.4-1.1,2.4-2.4
		C49.8,479.9,48.7,478.8,47.3,478.8z M47.3,503.2c-1.3,0-2.4,1.1-2.4,2.4c0,1.3,1.1,2.4,2.4,2.4s2.4-1.1,2.4-2.4
		C49.8,504.2,48.7,503.2,47.3,503.2z M47.3,527.5c-1.3,0-2.4,1.1-2.4,2.4s1.1,2.4,2.4,2.4s2.4-1.1,2.4-2.4S48.7,527.5,47.3,527.5z
		 M47.3,551.9c-1.3,0-2.4,1.1-2.4,2.4c0,1.3,1.1,2.4,2.4,2.4s2.4-1.1,2.4-2.4C49.8,553,48.7,551.9,47.3,551.9z"/>
</g>
<path class="st2" d="M552.4,415.2c0,4.2-3.4,7.6-7.6,7.6s-7.6-3.4-7.6-7.6s3.4-7.6,7.6-7.6S552.4,411.1,552.4,415.2z M544.8,468.3
	c-4.2,0-7.6,3.4-7.6,7.6c0,4.2,3.4,7.6,7.6,7.6s7.6-3.4,7.6-7.6C552.4,471.7,549,468.3,544.8,468.3z M544.8,529
	c-4.2,0-7.6,3.4-7.6,7.6s3.4,7.6,7.6,7.6s7.6-3.4,7.6-7.6S549,529,544.8,529z M544.8,589.7c-4.2,0-7.6,3.4-7.6,7.6s3.4,7.6,7.6,7.6
	s7.6-3.4,7.6-7.6S549,589.7,544.8,589.7z M544.8,650.4c-4.2,0-7.6,3.4-7.6,7.6s3.4,7.6,7.6,7.6s7.6-3.4,7.6-7.6
	S549,650.4,544.8,650.4z M544.8,711.1c-4.2,0-7.6,3.4-7.6,7.6s3.4,7.6,7.6,7.6s7.6-3.4,7.6-7.6S549,711.1,544.8,711.1z M484.2,407.7
	c-4.2,0-7.6,3.4-7.6,7.6s3.4,7.6,7.6,7.6s7.6-3.4,7.6-7.6S488.3,407.7,484.2,407.7z M484.2,468.3c-4.2,0-7.6,3.4-7.6,7.6
	c0,4.2,3.4,7.6,7.6,7.6s7.6-3.4,7.6-7.6C491.7,471.7,488.3,468.3,484.2,468.3z M484.2,529c-4.2,0-7.6,3.4-7.6,7.6s3.4,7.6,7.6,7.6
	s7.6-3.4,7.6-7.6S488.3,529,484.2,529z M484.2,589.7c-4.2,0-7.6,3.4-7.6,7.6s3.4,7.6,7.6,7.6s7.6-3.4,7.6-7.6
	S488.3,589.7,484.2,589.7z M484.2,650.4c-4.2,0-7.6,3.4-7.6,7.6s3.4,7.6,7.6,7.6s7.6-3.4,7.6-7.6S488.3,650.4,484.2,650.4z
	 M484.2,711.1c-4.2,0-7.6,3.4-7.6,7.6s3.4,7.6,7.6,7.6s7.6-3.4,7.6-7.6S488.3,711.1,484.2,711.1z M423.5,407.7
	c-4.2,0-7.6,3.4-7.6,7.6s3.4,7.6,7.6,7.6c4.2,0,7.6-3.4,7.6-7.6S427.7,407.7,423.5,407.7z M423.5,468.3c-4.2,0-7.6,3.4-7.6,7.6
	c0,4.2,3.4,7.6,7.6,7.6c4.2,0,7.6-3.4,7.6-7.6C431.1,471.7,427.7,468.3,423.5,468.3z M423.5,529c-4.2,0-7.6,3.4-7.6,7.6
	s3.4,7.6,7.6,7.6c4.2,0,7.6-3.4,7.6-7.6S427.7,529,423.5,529z M423.5,589.7c-4.2,0-7.6,3.4-7.6,7.6s3.4,7.6,7.6,7.6
	c4.2,0,7.6-3.4,7.6-7.6S427.7,589.7,423.5,589.7z M423.5,650.4c-4.2,0-7.6,3.4-7.6,7.6s3.4,7.6,7.6,7.6c4.2,0,7.6-3.4,7.6-7.6
	S427.7,650.4,423.5,650.4z M423.5,711.1c-4.2,0-7.6,3.4-7.6,7.6s3.4,7.6,7.6,7.6c4.2,0,7.6-3.4,7.6-7.6S427.7,711.1,423.5,711.1z"/>
<g id="blue">
	<g>
		
			<ellipse transform="matrix(0.7071 -0.7071 0.7071 0.7071 -87.1659 699.6306)" class="st3" cx="800.9" cy="455" rx="147.2" ry="147.2"/>
	</g>
</g>
<g id="tick">
	<g>
		<path class="st4" d="M931.9,326.3l-45.7-26.4l-88.4,149.6l-19.7-30.9l-44.4,28.5l42.1,70.4c9.6,15.7,32.5,15.5,41.8-0.4
			L931.9,326.3z"/>
		<path class="st5" d="M796.7,531.3c-9.3,0-17.7-4.7-22.6-12.7l-43.2-72.2l47.9-30.7l18.9,29.8L885.5,297l49.4,28.5L819.6,518.3
			c-4.8,8.1-13.2,13-22.6,13C796.9,531.3,796.8,531.3,796.7,531.3z M736.7,447.8l41.1,68.6c4.1,6.7,11.3,10.7,19.2,10.6
			c7.9-0.1,15-4.2,19-11L929,327l-42-24.3l-89.1,150.8l-20.4-32L736.7,447.8z"/>
	</g>
	<g>
		<path class="st5" d="M932.1,325.9c-3.5,6.1-16.6,5.1-29.2-2.2c-12.6-7.3-20-18.1-16.5-24.2c3.5-6.1,16.6-5.1,29.2,2.2
			C928.2,309.1,935.6,319.9,932.1,325.9z"/>
		<path class="st5" d="M922.7,332c-6,0-13.4-2.2-20.8-6.4c-13.8-8-21.4-19.9-17.3-27.1c2.1-3.7,6.8-5.4,13.2-4.9
			c5.8,0.4,12.5,2.7,18.9,6.4c13.8,8,21.4,19.9,17.3,27.1v0C932.1,330.3,928,332,922.7,332z M895.8,297.7c-3.7,0-6.4,1-7.5,2.9
			c-2.5,4.3,3.4,14.1,15.7,21.3c12.4,7.1,23.8,7.3,26.3,3c2.5-4.3-3.4-14.1-15.7-21.3c-5.8-3.4-11.9-5.4-17.1-5.8
			C896.9,297.7,896.3,297.7,895.8,297.7z"/>
	</g>
	<g>
		<path class="st5" d="M778,418.4c3.8,5.9-3,17.1-15.2,25c-12.2,8-25.2,9.6-29,3.8c-3.8-5.9,3-17.1,15.2-25
			C761.2,414.3,774.2,412.6,778,418.4z"/>
		<path class="st5" d="M742.3,452.8c-4.7,0-8.3-1.5-10.2-4.5c-2.3-3.6-1.8-8.5,1.5-14c3-5,8.1-9.9,14.2-14
			c13.4-8.7,27.4-10.1,31.9-3.2l0,0c4.5,6.9-2.4,19.2-15.8,27.9c-6.2,4-12.7,6.6-18.5,7.4C744.4,452.8,743.3,452.8,742.3,452.8z
			 M769.6,417.1c-5,0-12.1,2.1-19.4,6.9c-5.6,3.7-10.2,8.2-12.9,12.6c-2.4,3.9-3,7.4-1.6,9.5c1.4,2.1,4.7,2.9,9.3,2.3
			c5.2-0.7,11.1-3.1,16.8-6.7c12-7.8,17.3-17.9,14.6-22.1l0,0C775.2,418,772.8,417.1,769.6,417.1z"/>
	</g>
	<g>
		
			<rect x="799.9" y="448.3" transform="matrix(0.8377 -0.5461 0.5461 0.8377 -118.8546 511.9586)" class="st5" width="4.2" height="15.4"/>
	</g>
</g>
<g id="docs1">
	<g>
		<rect x="83.4" y="318.9" class="st5" width="138.9" height="176.3"/>
		<path class="st5" d="M222.4,497.4H83.4c-1.2,0-2.1-1-2.1-2.1V318.9c0-1.2,1-2.1,2.1-2.1h138.9c1.2,0,2.1,1,2.1,2.1v176.3
			C224.5,496.4,223.5,497.4,222.4,497.4z M85.5,493.1h134.7V321H85.5V493.1z"/>
	</g>
	<g>
		<rect x="72.7" y="329.6" class="st6" width="138.9" height="176.3"/>
		<path class="st5" d="M213.8,508.1H70.6V327.5h143.2V508.1z M74.9,503.8h134.7V331.7H74.9V503.8z"/>
	</g>
	<g>
		<path class="st7" d="M196.4,486.7H88V348.9h108.5V486.7z M92.2,482.5h100V353.1h-100V482.5z"/>
	</g>
	<g>
		<rect x="117.8" y="351" class="st7" width="4.2" height="133.6"/>
	</g>
	<g>
		<rect x="102.9" y="351" class="st7" width="4.2" height="133.6"/>
	</g>
	<g>
		<rect x="147.5" y="351" class="st7" width="4.2" height="133.6"/>
	</g>
	<g>
		<rect x="132.6" y="351" class="st7" width="4.2" height="133.6"/>
	</g>
	<g>
		<rect x="177.3" y="351" class="st7" width="4.2" height="133.6"/>
	</g>
	<g>
		<rect x="162.4" y="351" class="st7" width="4.2" height="133.6"/>
	</g>
	<g>
		<rect x="91.2" y="365.6" class="st7" width="101.9" height="4.2"/>
	</g>
	<g>
		<rect x="91.2" y="382.3" class="st7" width="101.9" height="4.2"/>
	</g>
	<g>
		<rect x="91.2" y="399" class="st7" width="101.9" height="4.2"/>
	</g>
	<g>
		<rect x="91.2" y="449.1" class="st7" width="101.9" height="4.2"/>
	</g>
	<g>
		<rect x="91.2" y="465.8" class="st7" width="101.9" height="4.2"/>
	</g>
	<g>
		<rect x="91.2" y="432.4" class="st7" width="101.9" height="4.2"/>
	</g>
	<g>
		<rect x="91.2" y="415.7" class="st7" width="101.9" height="4.2"/>
	</g>
</g>
<g id="docs2">
	<g>
		<polygon class="st7" points="179.6,199.5 454.2,199.5 454.2,548 242.9,548 179.6,484.6 		"/>
		<path class="st5" d="M456.3,550.1H242.1l-64.6-64.6V197.4h278.8V550.1z M243.8,545.9H452V201.6H181.7v282.1L243.8,545.9z"/>
	</g>
	<g>
		<rect x="266.8" y="276.6" class="st5" width="142.4" height="4.2"/>
	</g>
	<g>
		<rect x="266.8" y="264.8" class="st5" width="142.4" height="4.2"/>
	</g>
	<g>
		<rect x="224.5" y="299.9" class="st6" width="184.8" height="95"/>
	</g>
	<g>
		<polygon class="st5" points="245.1,548 240.8,548 240.8,486.8 179.6,486.8 179.6,482.5 245.1,482.5 		"/>
	</g>
	<g>
		
			<ellipse transform="matrix(0.19 -0.9818 0.9818 0.19 -63.4243 448.8339)" class="st3" cx="240.3" cy="262.9" rx="15.8" ry="15.8"/>
		<path class="st5" d="M240.3,280.8c-9.9,0-18-8.1-18-18s8.1-18,18-18s18,8.1,18,18S250.2,280.8,240.3,280.8z M240.3,249.1
			c-7.6,0-13.7,6.2-13.7,13.7c0,7.6,6.2,13.7,13.7,13.7c7.6,0,13.7-6.2,13.7-13.7C254,255.3,247.9,249.1,240.3,249.1z"/>
	</g>
</g>
<g id="arrow2">
	<g>
		<polygon class="st5" points="510.2,231 490.5,217 492.9,213.6 510.1,225.7 525,213.7 527.6,217 		"/>
	</g>
	<g>
		<path class="st5" d="M512.3,228.5l-4.2-0.3c1.8-26.6-7.5-54-24.8-73.2c-15.3-16.9-35.6-26.2-58.8-27c-25.8-0.9-48.8,7.7-66.6,24.7
			c-19.9,19-32.5,48-32.8,75.7l-4.2-0.1c0.3-28.8,13.4-58.9,34.1-78.7c18.7-17.8,42.7-26.8,69.7-25.9c24.4,0.8,45.7,10.6,61.8,28.4
			C504.4,172.2,514.1,200.7,512.3,228.5z"/>
	</g>
</g>
<g id="arrow1">
	<g>
		<polygon class="st5" points="291.6,421.6 270.9,455.4 310.2,455.4 		"/>
		<path class="st5" d="M313.8,457.5h-46.7l24.5-40.1L313.8,457.5z M274.7,453.2h31.9l-15.1-27.4L274.7,453.2z"/>
	</g>
	<g>
		<path class="st5" d="M200.5,692.4c-26.9,0-51.5-16-69.3-45.1c-8.9-14.5-15.8-31.8-20.6-51.4c-5-20.4-7.5-42.8-7.5-66.6h4.2
			c0,92,39.2,158.8,93.1,158.8c19.5,0,35.9-6.6,48.7-19.5c18.5-18.6,30.3-50.4,36-97.1c5-40.5,4.7-85.1,4.3-124.4
			c-0.1-9-0.1-17.5-0.1-25.7h4.2c0,8.1,0.1,16.6,0.1,25.6c0.3,39.4,0.7,84.1-4.4,124.9c-5.9,47.7-18.1,80.2-37.2,99.5
			C238.6,685.4,221.2,692.4,200.5,692.4z"/>
	</g>
</g>
<g id="arrow3">
	<g>
		<path class="st5" d="M613.4,547.1c-2.1,0-4.2,0-6.3-0.1c-46.5-1.9-88.9-24.1-116.2-60.8l3.4-2.5c26.6,35.7,67.8,57.3,113,59.1
			c46.4,1.9,91-17.4,122.3-53.1l3.2,2.8c-16.5,18.8-36.3,33.1-58.7,42.5C655,542.9,634.2,547.1,613.4,547.1z"/>
	</g>
	<g>
		<polygon class="st5" points="733.4,521 729.1,521 729.1,493.2 703.6,493.2 703.6,488.9 733.4,488.9 		"/>
	</g>
</g>
<g id="docs3">
	<g>
		<g>
			<g>
				<rect x="584.6" y="222.9" class="st7" width="141.4" height="179.4"/>
				<path class="st5" d="M728.2,404.4H582.5V220.7h145.6V404.4z M586.8,400.2h137.1V225H586.8V400.2z"/>
			</g>
			<g>
				<rect x="573.8" y="233.7" class="st6" width="141.4" height="179.4"/>
				<path class="st5" d="M717.3,415.3H571.6V231.6h145.6V415.3z M575.9,411.1H713V235.9H575.9V411.1z"/>
			</g>
			<g>
				<rect x="596.9" y="258.2" class="st7" width="95.2" height="130.5"/>
				<path class="st5" d="M694.2,390.8h-99.4V256.1h99.4V390.8z M599,386.6h90.9V260.3H599V386.6z"/>
			</g>
			<g>
				<path class="st5" d="M694.2,279.4h-99.4v-23.3h99.4V279.4z M599,275.1h90.9v-14.8H599V275.1z"/>
			</g>
			<g>
				<path class="st5" d="M618,279.4h-23.3v-23.3H618V279.4z M599,275.1h14.8v-14.8H599V275.1z"/>
			</g>
		</g>
		<g>
			<g>
				<rect x="409.2" y="246.5" class="st5" width="190.2" height="241.5"/>
				<path class="st5" d="M599.4,490.2H409.2c-1.2,0-2.1-1-2.1-2.1V246.5c0-1.2,1-2.1,2.1-2.1h190.2c1.2,0,2.1,1,2.1,2.1V488
					C601.5,489.2,600.6,490.2,599.4,490.2z M411.3,485.9h185.9V248.6H411.3V485.9z"/>
			</g>
			<g>
				<polygon class="st7" points="584.7,502.7 394.4,502.7 394.4,261.2 533.5,261.2 584.7,312.4 				"/>
				<path class="st5" d="M586.9,504.8H392.3V259h142.1l52.5,52.5V504.8z M396.6,500.6h186.1V313.3l-50-50H396.6V500.6z"/>
			</g>
			<g>
				<path class="st5" d="M546.6,448.2h-114V342.5h114V448.2z M436.8,444h105.5v-97.2H436.8V444z"/>
			</g>
			<g>
				<path class="st5" d="M546.6,368.8h-114v-26.2h114V368.8z M436.8,364.5h105.5v-17.7H436.8V364.5z"/>
			</g>
			<g>
				<rect x="492.2" y="434.6" class="st7" width="52.3" height="22"/>
				<path class="st5" d="M546.6,458.7h-56.5v-26.2h56.5V458.7z M494.3,454.4h48v-17.7h-48V454.4z"/>
			</g>
			<g>
				<polygon class="st5" points="584.7,314.5 531.4,314.5 531.4,261.2 535.6,261.2 535.6,310.3 584.7,310.3 				"/>
			</g>
			<g>
				<path class="st6" d="M565.6,445.4c0.1,11.5-9.3,20.9-20.8,20.8c-11.2-0.1-20.3-9.2-20.4-20.4c-0.1-11.5,9.3-20.9,20.8-20.8
					C556.4,425.1,565.5,434.2,565.6,445.4z"/>
				<path class="st5" d="M545,468.3c-0.1,0-0.1,0-0.2,0c-12.3-0.1-22.4-10.2-22.5-22.5c-0.1-6.1,2.3-11.9,6.7-16.3
					c4.3-4.3,10-6.7,16.1-6.7c0.1,0,0.1,0,0.2,0c12.3,0.1,22.4,10.2,22.5,22.5l0,0c0.1,6.1-2.3,11.9-6.7,16.3
					C556.8,465.9,551.1,468.3,545,468.3z M545,427.1c-4.9,0-9.6,1.9-13.1,5.4c-3.5,3.5-5.5,8.2-5.4,13.2c0.1,10,8.3,18.2,18.3,18.3
					c0.1,0,0.1,0,0.2,0c4.9,0,9.6-1.9,13.1-5.4c3.5-3.5,5.5-8.2,5.4-13.2l0,0c-0.1-10-8.3-18.2-18.3-18.3
					C545.1,427.1,545.1,427.1,545,427.1z"/>
			</g>
		</g>
		<g>
			<g>
				<rect x="333" y="418.6" class="st3" width="132.7" height="168.4"/>
				<path class="st5" d="M467.8,589.1H330.9V416.5h136.9V589.1z M335.1,584.9h128.4V420.7H335.1V584.9z"/>
			</g>
			<g>
				<path class="st7" d="M411.3,459h-58.9v-19.6h58.9V459z M356.7,454.7h50.4v-11.1h-50.4V454.7z"/>
			</g>
			<g>
				<path class="st7" d="M446.1,566.6h-93.6v-99.3h93.6V566.6z M356.8,562.4h85.1v-90.8h-85.1V562.4z"/>
			</g>
			<g>
				<path class="st7" d="M426.5,459c-5.4,0-9.8-4.4-9.8-9.8c0-5.4,4.4-9.8,9.8-9.8c5.4,0,9.8,4.4,9.8,9.8
					C436.2,454.6,431.9,459,426.5,459z M426.5,443.7c-3,0-5.5,2.5-5.5,5.5c0,3,2.5,5.5,5.5,5.5c3,0,5.5-2.5,5.5-5.5
					C432,446.2,429.5,443.7,426.5,443.7z"/>
			</g>
			<g>
				<circle class="st5" cx="436.3" cy="449.2" r="7.7"/>
				<path class="st5" d="M436.3,459c-5.4,0-9.8-4.4-9.8-9.8c0-5.4,4.4-9.8,9.8-9.8c5.4,0,9.8,4.4,9.8,9.8
					C446.1,454.6,441.7,459,436.3,459z M436.3,443.7c-3,0-5.5,2.5-5.5,5.5c0,3,2.5,5.5,5.5,5.5c3,0,5.5-2.5,5.5-5.5
					C441.9,446.2,439.4,443.7,436.3,443.7z"/>
			</g>
		</g>
	</g>
	<g>
		<path class="st7" d="M381,524.6l-4.7,14.4h-6.1l15.5-45.7h7.1l15.6,45.7h-6.3l-4.9-14.4H381z M396,520l-4.5-13.1
			c-1-3-1.7-5.7-2.4-8.3H389c-0.7,2.7-1.4,5.5-2.3,8.3l-4.5,13.2H396z"/>
		<path class="st7" d="M421,493.3V539h-5.9v-45.7H421z"/>
	</g>
</g>
</svg>
