<svg width="1712" height="198" viewBox="0 0 1712 198" fill="none" xmlns="http://www.w3.org/2000/svg">
<path d="M634.714 133.891H674.377C675.029 133.891 675.571 133.35 675.571 132.698V105.527C675.571 104.875 675.029 104.334 674.377 104.334H634.714C634.062 104.334 633.521 104.875 633.521 105.527V132.698C633.521 133.35 634.062 133.891 634.714 133.891ZM635.908 120.306H653.352V131.505H635.908V120.306ZM655.739 131.505V120.306H673.183V131.505H655.739ZM673.183 106.721V117.92H635.908V106.721H673.183Z" fill="#0A0909"/>
<path d="M634.714 188.217H674.377C675.029 188.217 675.571 187.676 675.571 187.024V151.644C675.571 150.992 675.029 150.451 674.377 150.451H634.714C634.062 150.451 633.521 150.992 633.521 151.644V187.024C633.521 187.676 634.062 188.217 634.714 188.217ZM635.908 170.527H653.352V185.655C653.352 185.655 653.384 185.767 653.384 185.83H635.908V170.527ZM655.707 185.83C655.707 185.83 655.739 185.719 655.739 185.655V170.527H673.183V185.83H655.707ZM673.183 152.837V168.141H635.908V152.837H673.183Z" fill="#0A0909"/>
<path d="M582.334 181.519H588.319C588.971 181.519 589.512 180.979 589.512 180.326C589.512 179.674 588.971 179.133 588.319 179.133H582.334C581.682 179.133 581.141 179.674 581.141 180.326C581.141 180.979 581.682 181.519 582.334 181.519Z" fill="#0A0909"/>
<path d="M417.843 57.6447H391.884C391.231 57.6447 390.69 58.1855 390.69 58.8377V94.8214C390.69 95.4736 391.231 96.0145 391.884 96.0145H417.843C418.495 96.0145 419.036 95.4736 419.036 94.8214V58.8377C419.036 58.1855 418.495 57.6447 417.843 57.6447ZM416.649 78.1499H406.049V60.2376C406.049 60.2376 406.017 60.1104 406.001 60.0308H416.633V78.134L416.649 78.1499ZM403.709 60.0308C403.709 60.0308 403.661 60.1581 403.661 60.2376V78.1499H393.061V60.0467H403.693L403.709 60.0308ZM393.077 80.5361H403.677V93.6283H393.077V80.5361ZM406.049 93.6283V80.5361H416.649V93.6283H406.049Z" fill="#0A0909"/>
<path d="M453.654 57.6447H427.695C427.042 57.6447 426.501 58.1855 426.501 58.8377V94.8214C426.501 95.4736 427.042 96.0145 427.695 96.0145H453.654C454.306 96.0145 454.847 95.4736 454.847 94.8214V58.8377C454.847 58.1855 454.306 57.6447 453.654 57.6447ZM452.46 78.1499H441.86V60.2376C441.86 60.2376 441.828 60.1104 441.812 60.0308H452.444V78.134L452.46 78.1499ZM439.52 60.0308C439.52 60.0308 439.473 60.1581 439.473 60.2376V78.1499H428.872V60.0467H439.504L439.52 60.0308ZM428.888 80.5361H439.488V93.6283H428.888V80.5361ZM441.876 93.6283V80.5361H452.476V93.6283H441.876Z" fill="#0A0909"/>
<path d="M489.194 57.6447H463.235C462.582 57.6447 462.041 58.1855 462.041 58.8377V94.8214C462.041 95.4736 462.582 96.0145 463.235 96.0145H489.194C489.846 96.0145 490.387 95.4736 490.387 94.8214V58.8377C490.387 58.1855 489.846 57.6447 489.194 57.6447ZM488 78.1499H477.4V60.2376C477.4 60.2376 477.368 60.1104 477.352 60.0308H487.984V78.134L488 78.1499ZM475.06 60.0308C475.06 60.0308 475.013 60.1581 475.013 60.2376V78.1499H464.413V60.0467H475.044L475.06 60.0308ZM464.428 80.5361H475.028V93.6283H464.428V80.5361ZM477.4 93.6283V80.5361H488V93.6283H477.4Z" fill="#0A0909"/>
<path d="M413.434 169.063H404.855C404.202 169.063 403.661 169.604 403.661 170.257C403.661 170.909 404.202 171.45 404.855 171.45H413.434C414.086 171.45 414.627 170.909 414.627 170.257C414.627 169.604 414.086 169.063 413.434 169.063Z" fill="#0A0909"/>
<path d="M432.883 165.962H491.756C492.409 165.962 492.95 165.421 492.95 164.768V134.782C492.95 134.13 492.409 133.589 491.756 133.589H432.883C432.231 133.589 431.689 134.13 431.689 134.782V164.768C431.689 165.421 432.231 165.962 432.883 165.962ZM434.077 150.96H461.134V163.575H434.077V150.96ZM463.506 163.575V150.96H490.563V163.575H463.506ZM490.563 135.975V148.59H434.077V135.975H490.563Z" fill="#0A0909"/>
<path d="M185.676 142.163C185.024 142.163 184.482 142.704 184.482 143.356V179.801C184.482 180.454 185.024 180.994 185.676 180.994H209.709C210.362 180.994 210.903 180.454 210.903 179.801V143.356C210.903 142.704 210.362 142.163 209.709 142.163H185.676ZM196.483 144.55V160.378H186.854V144.55H196.483ZM186.87 162.78H196.499V178.608H186.87V162.78ZM198.87 178.608V162.78H208.5V178.608H198.87ZM208.5 160.394H198.87V144.565H208.5V160.394Z" fill="#0A0909"/>
<path d="M335.366 171.211C335.366 170.988 335.286 170.797 335.191 170.622V156.305C335.191 155.653 334.65 155.112 333.997 155.112H273.182C272.529 155.112 271.988 155.653 271.988 156.305V186.133C271.988 186.785 272.529 187.326 273.182 187.326H333.997C334.65 187.326 335.191 186.785 335.191 186.133V171.816C335.286 171.641 335.366 171.45 335.366 171.227V171.211ZM332.787 170.018H304.775V157.483H332.787V170.018ZM302.388 157.483V170.018H274.376V157.483H302.388ZM274.36 172.404H302.372V184.94H274.36V172.404ZM304.775 184.924V172.388H332.787V184.924H304.775Z" fill="#0A0909"/>
<path d="M785.438 104.748C777.082 108.152 771.512 116.393 771.512 125.428C771.512 127.942 771.941 130.439 772.801 132.841C770.652 136.182 769.506 140.016 769.506 144.009C769.506 155.383 778.769 164.641 790.149 164.641C792.776 164.641 795.338 164.148 797.757 163.178C798.362 162.939 798.664 162.239 798.426 161.635C798.187 161.014 797.487 160.728 796.882 160.966C794.733 161.825 792.473 162.255 790.149 162.255C780.09 162.255 771.894 154.062 771.894 144.009C771.894 140.302 773.008 136.739 775.109 133.684C775.332 133.366 775.379 132.953 775.236 132.587C774.345 130.264 773.899 127.862 773.899 125.444C773.899 117.188 779.104 109.695 786.839 106.784C787.205 106.641 787.475 106.339 787.571 105.973C789.863 97.1917 797.805 91.0513 806.877 91.0513C815.949 91.0513 823.621 96.9849 826.056 105.496C826.151 105.846 826.422 106.148 826.772 106.275C834.38 109.25 839.298 116.44 839.298 124.585C839.298 125.349 839.234 126.144 839.123 127.099C839.091 127.385 839.155 127.671 839.314 127.91C841.94 131.903 843.325 136.532 843.325 141.304C843.325 154.762 832.375 165.707 818.91 165.707C817.859 165.707 816.793 165.643 815.758 165.5C815.09 165.421 814.501 165.882 814.421 166.534C814.342 167.186 814.803 167.791 815.456 167.87C816.602 168.014 817.764 168.093 818.926 168.093C833.711 168.093 845.728 156.067 845.728 141.304C845.728 136.214 844.296 131.266 841.558 126.971C841.654 126.096 841.701 125.333 841.701 124.585C841.701 115.645 836.433 107.739 828.204 104.271C825.292 95.0441 816.618 88.6492 806.893 88.6492C797.168 88.6492 788.208 95.235 785.438 104.764V104.748Z" fill="#0A0909"/>
<path d="M824.289 123.567L826.167 121.69C826.629 121.228 826.629 120.465 826.167 120.004C825.706 119.542 824.942 119.542 824.48 120.004L822.602 121.881C822.14 122.342 822.14 123.106 822.602 123.567C822.841 123.806 823.143 123.917 823.446 123.917C823.748 123.917 824.05 123.806 824.289 123.567Z" fill="#0A0909"/>
<path d="M739.823 169.779C739.17 169.684 738.566 170.161 738.486 170.813C738.407 171.466 738.868 172.07 739.521 172.15C740.428 172.261 741.367 172.325 742.29 172.325C754.1 172.325 763.713 162.716 763.713 150.913C763.713 146.872 762.583 142.959 760.434 139.538C760.514 138.87 760.546 138.298 760.546 137.725C760.546 130.598 756.36 124.299 749.85 121.499C747.479 114.165 740.555 109.107 732.82 109.107C725.085 109.107 717.923 114.34 715.679 121.897C709.057 124.649 704.633 131.219 704.633 138.409C704.633 140.382 704.967 142.338 705.62 144.231C703.932 146.888 703.057 149.926 703.057 153.076C703.057 162.191 710.474 169.62 719.61 169.62C721.711 169.62 723.764 169.223 725.721 168.443C726.326 168.205 726.629 167.505 726.39 166.9C726.151 166.296 725.451 165.993 724.846 166.232C723.191 166.9 721.424 167.234 719.626 167.234C711.811 167.234 705.46 160.887 705.46 153.076C705.46 150.197 706.32 147.429 707.959 145.059C708.182 144.74 708.23 144.327 708.087 143.961C707.402 142.163 707.036 140.286 707.036 138.409C707.036 131.998 711.079 126.176 717.095 123.901C717.461 123.758 717.732 123.456 717.827 123.09C719.61 116.265 725.769 111.493 732.82 111.493C739.871 111.493 745.823 116.106 747.733 122.724C747.829 123.074 748.099 123.376 748.45 123.503C754.354 125.81 758.174 131.394 758.174 137.725C758.174 138.314 758.126 138.934 758.031 139.682C757.999 139.968 758.063 140.254 758.222 140.493C760.275 143.611 761.357 147.206 761.357 150.929C761.357 161.412 752.826 169.954 742.322 169.954C741.494 169.954 740.667 169.907 739.855 169.795L739.823 169.779Z" fill="#0A0909"/>
<path d="M746.731 137.121L748.211 135.641C748.672 135.18 748.672 134.416 748.211 133.955C747.749 133.494 746.985 133.494 746.524 133.955L745.043 135.434C744.582 135.896 744.582 136.659 745.043 137.121C745.282 137.359 745.585 137.471 745.887 137.471C746.189 137.471 746.492 137.359 746.731 137.121Z" fill="#0A0909"/>
<path d="M117.126 104.748C108.77 108.152 103.199 116.393 103.199 125.428C103.199 127.942 103.629 130.439 104.488 132.841C102.34 136.182 101.194 140.016 101.194 144.009C101.194 155.383 110.457 164.641 121.837 164.641C124.463 164.641 127.026 164.148 129.445 163.178C130.05 162.939 130.352 162.239 130.113 161.635C129.874 161.014 129.174 160.728 128.569 160.966C126.421 161.825 124.161 162.255 121.837 162.255C111.778 162.255 103.581 154.062 103.581 144.009C103.581 140.302 104.695 136.739 106.796 133.684C107.019 133.366 107.067 132.953 106.924 132.587C106.032 130.264 105.587 127.862 105.587 125.444C105.587 117.188 110.791 109.695 118.526 106.784C118.892 106.641 119.163 106.339 119.258 105.973C121.55 97.1917 129.492 91.0513 138.565 91.0513C147.637 91.0513 155.308 96.9849 157.743 105.496C157.839 105.846 158.109 106.148 158.46 106.275C166.067 109.25 170.985 116.44 170.985 124.585C170.985 125.349 170.922 126.144 170.81 127.099C170.779 127.385 170.842 127.671 171.001 127.91C173.628 131.903 175.012 136.532 175.012 141.304C175.012 154.762 164.062 165.707 150.597 165.707C149.547 165.707 148.48 165.643 147.446 165.5C146.777 165.421 146.188 165.882 146.109 166.534C146.029 167.186 146.491 167.791 147.143 167.87C148.289 168.014 149.451 168.093 150.613 168.093C165.399 168.093 177.416 156.067 177.416 141.304C177.416 136.214 175.983 131.266 173.246 126.971C173.341 126.096 173.389 125.333 173.389 124.585C173.389 115.645 168.121 107.739 159.892 104.271C156.979 95.0441 148.305 88.6492 138.581 88.6492C128.856 88.6492 119.895 95.235 117.126 104.764V104.748Z" fill="#0A0909"/>
<path d="M155.977 123.567L157.855 121.69C158.316 121.228 158.316 120.465 157.855 120.004C157.393 119.542 156.629 119.542 156.168 120.004L154.29 121.881C153.828 122.342 153.828 123.106 154.29 123.567C154.528 123.806 154.831 123.917 155.133 123.917C155.435 123.917 155.738 123.806 155.977 123.567Z" fill="#0A0909"/>
<path d="M34.7285 153.076C34.7285 162.191 42.1613 169.62 51.2812 169.62C53.3821 169.62 55.4352 169.223 57.3929 168.443C57.9977 168.204 58.3001 167.505 58.0614 166.9C57.8226 166.296 57.1223 165.993 56.5175 166.232C54.8622 166.9 53.0956 167.234 51.2971 167.234C43.4823 167.234 37.1318 160.887 37.1318 153.076C37.1318 150.197 37.9913 147.429 39.6306 145.058C39.8535 144.74 39.9012 144.327 39.758 143.961C39.0736 142.163 38.7075 140.286 38.7075 138.409C38.7075 131.998 42.7502 126.176 48.7664 123.901C49.1325 123.758 49.4031 123.456 49.4986 123.09C51.2811 116.265 57.4406 111.493 64.4914 111.493C71.5422 111.493 77.4948 116.106 79.3888 122.724C79.4843 123.074 79.7549 123.376 80.105 123.503C86.0098 125.81 89.8297 131.394 89.8297 137.725C89.8297 138.314 89.7819 138.934 89.6864 139.682C89.6546 139.968 89.7183 140.254 89.8774 140.493C91.9306 143.595 93.0129 147.206 93.0129 150.929C93.0129 161.412 84.4819 169.954 73.9774 169.954C73.1497 169.954 72.3221 169.907 71.5104 169.795C70.8419 169.7 70.253 170.177 70.1734 170.829C70.0939 171.481 70.5554 172.086 71.208 172.166C72.1152 172.277 73.0542 172.341 73.9774 172.341C85.787 172.341 95.4003 162.732 95.4003 150.929C95.4003 146.888 94.2702 142.975 92.1216 139.554C92.2012 138.886 92.233 138.314 92.233 137.741C92.233 130.614 88.0471 124.315 81.5375 121.515C79.166 114.181 72.2425 109.123 64.5073 109.123C56.7722 109.123 49.61 114.356 47.3658 121.913C40.7448 124.665 36.3201 131.235 36.3201 138.425C36.3201 140.397 36.6544 142.354 37.3069 144.247C35.6198 146.904 34.7444 149.942 34.7444 153.092L34.7285 153.076Z" fill="#0A0909"/>
<path d="M78.418 137.121L79.8982 135.641C80.3598 135.18 80.3598 134.416 79.8982 133.955C79.4367 133.494 78.6727 133.494 78.2111 133.955L76.7309 135.434C76.2694 135.896 76.2694 136.659 76.7309 137.121C76.9697 137.359 77.2721 137.471 77.5745 137.471C77.8769 137.471 78.1793 137.359 78.418 137.121Z" fill="#0A0909"/>
<path d="M1.1937 197.459H361.118C361.325 197.777 361.675 198 362.089 198C362.503 198 362.853 197.777 363.06 197.459H390.913C391.12 197.777 391.47 198 391.884 198C392.297 198 392.648 197.777 392.854 197.459H419.959C420.166 197.777 420.516 198 420.93 198C421.344 198 421.694 197.777 421.901 197.459H516.124C516.331 197.777 516.681 198 517.095 198C517.509 198 517.859 197.777 518.066 197.459H868.774C869.427 197.459 869.968 196.918 869.968 196.266C869.968 195.614 869.427 195.073 868.774 195.073H808.023C807.944 194.341 807.816 193.609 807.625 192.909V154.492L818.575 143.547C819.037 143.086 819.037 142.322 818.575 141.861C818.114 141.4 817.35 141.4 816.888 141.861L807.625 151.119V140.207L817.812 130.026C818.273 129.564 818.273 128.801 817.812 128.339C817.35 127.878 816.586 127.878 816.124 128.339L807.625 136.834V116.281C807.625 115.629 807.084 115.088 806.432 115.088C805.779 115.088 805.238 115.629 805.238 116.281V136.548L793.969 125.285C793.508 124.824 792.744 124.824 792.282 125.285C791.821 125.746 791.821 126.51 792.282 126.971L805.238 139.92V151.978L796.404 143.15C795.943 142.688 795.179 142.688 794.717 143.15C794.256 143.611 794.256 144.375 794.717 144.836L805.158 155.271C805.158 155.271 805.206 155.303 805.238 155.319V187.867C802.93 184.701 799.413 182.458 795.306 181.853C793.635 175.029 787.492 170.145 780.377 170.145C774.982 170.145 769.904 173.041 767.151 177.686C766.817 178.258 767.008 178.99 767.565 179.324C768.138 179.658 768.87 179.467 769.204 178.911C771.528 174.981 775.809 172.531 780.377 172.531C786.632 172.531 792.012 177.002 793.142 183.142C793.237 183.667 793.667 184.065 794.208 184.112C799.54 184.606 803.821 188.28 805.238 193.228V195.057H769.156C769.284 194.405 769.363 193.753 769.363 193.084C769.363 188.042 765.798 183.842 760.928 182.983C759.702 178.481 755.596 175.299 750.869 175.299C746.826 175.299 743.213 177.59 741.478 181.185C739.823 181.44 738.295 182.188 737.117 183.365C735.924 184.558 735.144 186.117 734.921 187.803C734.444 188.026 734.03 188.312 733.632 188.63V161.444L742.211 152.869C742.672 152.408 742.672 151.644 742.211 151.183C741.749 150.722 740.985 150.722 740.523 151.183L733.632 158.071V150.165L741.606 142.195C742.067 141.734 742.067 140.97 741.606 140.509C741.144 140.048 740.38 140.048 739.919 140.509L733.632 146.792V131.171C733.632 130.519 733.091 129.978 732.438 129.978C731.786 129.978 731.244 130.519 731.244 131.171V146.57L722.777 138.107C722.316 137.645 721.552 137.645 721.09 138.107C720.628 138.568 720.628 139.332 721.09 139.793L731.244 149.942V158.755L724.703 152.217C724.241 151.756 723.477 151.756 723.016 152.217C722.554 152.678 722.554 153.442 723.016 153.903L731.244 162.128V195.057H688.255V93.5488H694.383C694.908 93.5488 695.37 93.2147 695.513 92.7216C695.672 92.2284 695.481 91.6876 695.067 91.3853L622.347 40.0983C621.949 39.8119 621.408 39.8119 621.01 40.0664L542.306 91.3535C541.86 91.6398 541.669 92.1807 541.812 92.6898C541.956 93.1988 542.433 93.5488 542.958 93.5488H552.778V129.548H547.049C546.651 129.548 546.285 129.739 546.062 130.057L530.321 152.71C530.066 153.076 530.034 153.553 530.241 153.951C530.448 154.349 530.862 154.587 531.308 154.587H537.356V195.057H518.273V179.658C518.273 179.006 517.731 178.465 517.079 178.465H503.041V118.079H511.445C512.097 118.079 512.638 117.538 512.638 116.886V104.7C512.638 104.048 512.097 103.507 511.445 103.507H503.041V50.1361H511.445C512.097 50.1361 512.638 49.5953 512.638 48.943V36.7576C512.638 36.1054 512.097 35.5645 511.445 35.5645H502.357L493.046 17.6363C492.839 17.2386 492.425 17 491.979 17H388.716C388.271 17 387.857 17.2545 387.65 17.6363L378.339 35.5645H369.251C368.598 35.5645 368.057 36.1054 368.057 36.7576V48.943C368.057 49.5953 368.598 50.1361 369.251 50.1361H377.655V103.539H369.251C368.598 103.539 368.057 104.08 368.057 104.732V116.917C368.057 117.57 368.598 118.111 369.251 118.111H377.862V178.497H362.025C361.373 178.497 360.831 179.038 360.831 179.69V195.089H346.825V142.545H353.383C353.813 142.545 354.21 142.322 354.417 141.941C354.624 141.575 354.624 141.113 354.417 140.748L343.149 121.722C343.085 121.547 343.006 121.388 342.878 121.26L320.023 82.636C319.816 82.2701 319.418 82.0474 318.988 82.0474H232.31L218.606 69.6869C218.145 69.2733 217.46 69.2733 216.999 69.6869L174.63 107.898C174.137 108.343 174.105 109.091 174.551 109.584C174.996 110.077 175.744 110.109 176.238 109.663L217.81 72.1686L280.774 128.96H269.028L218.606 83.4791C218.145 83.0655 217.46 83.0655 216.999 83.4791L181.633 115.374C181.14 115.82 181.108 116.568 181.554 117.061C181.999 117.554 182.747 117.586 183.241 117.14L217.81 85.9607L260.513 124.474V195.057H250.056V149.163C250.056 140.7 243.18 133.828 234.713 133.828C226.246 133.828 219.37 140.7 219.37 149.163V195.057H175.108V164.753C175.108 164.1 174.567 163.559 173.914 163.559C173.261 163.559 172.72 164.1 172.72 164.753V195.057H139.679C139.599 194.325 139.472 193.594 139.281 192.894V154.476L150.231 143.531C150.693 143.07 150.693 142.306 150.231 141.845C149.769 141.384 149.006 141.384 148.544 141.845L139.281 151.104V140.191L149.467 130.01C149.929 129.548 149.929 128.785 149.467 128.323C149.006 127.862 148.242 127.862 147.78 128.323L139.281 136.818V116.265C139.281 115.613 138.74 115.072 138.087 115.072C137.435 115.072 136.893 115.613 136.893 116.265V136.532L125.625 125.269C125.163 124.808 124.399 124.808 123.938 125.269C123.476 125.73 123.476 126.494 123.938 126.955L136.893 139.904V151.963L128.06 143.134C127.599 142.672 126.835 142.672 126.373 143.134C125.911 143.595 125.911 144.359 126.373 144.82L136.814 155.256C136.814 155.256 136.862 155.287 136.893 155.303V187.851C134.586 184.685 131.068 182.442 126.962 181.838C125.291 175.013 119.147 170.129 112.033 170.129C106.637 170.129 101.56 173.025 98.8065 177.67C98.4723 178.242 98.6632 178.974 99.2203 179.308C99.7933 179.642 100.525 179.451 100.86 178.895C103.183 174.965 107.465 172.516 112.033 172.516C118.288 172.516 123.651 176.986 124.797 183.126C124.893 183.651 125.323 184.049 125.864 184.097C131.196 184.59 135.477 188.264 136.893 193.212V195.041H100.812C100.939 194.389 101.019 193.737 101.019 193.069C101.019 188.026 97.4536 183.826 92.5833 182.967C91.3578 178.465 87.2515 175.284 82.5244 175.284C78.4818 175.284 74.8688 177.574 73.134 181.169C71.4787 181.424 69.9508 182.172 68.773 183.349C67.5793 184.558 66.7994 186.101 66.5766 187.803C66.0991 188.026 65.6853 188.312 65.2874 188.614V161.428L73.8502 152.869C74.3118 152.408 74.3118 151.644 73.8502 151.183C73.3886 150.722 72.6247 150.722 72.1631 151.183L65.2874 158.055V150.149L73.2613 142.179C73.7229 141.718 73.7229 140.954 73.2613 140.493C72.7998 140.032 72.0358 140.032 71.5742 140.493L65.2874 146.777V131.155C65.2874 130.503 64.7463 129.962 64.0937 129.962C63.4412 129.962 62.9 130.503 62.9 131.155V146.554L54.4327 138.091C53.9711 137.63 53.2072 137.63 52.7456 138.091C52.284 138.552 52.284 139.316 52.7456 139.777L62.9 149.926V158.739L56.3585 152.201C55.897 151.74 55.133 151.74 54.6714 152.201C54.2099 152.663 54.2099 153.426 54.6714 153.887L62.9 162.112V195.041H1.1937C0.541144 195.041 0 195.582 0 196.234C0 196.886 0.541144 197.427 1.1937 197.427V197.459ZM393.077 144.899H419.737V195.073H393.077V144.899ZM576.016 131.95L561.93 152.217H549.102L563.187 131.95H576.016ZM620.803 152.217H599.189L613.275 131.95H620.803V152.217ZM596.293 152.217H582.732L596.818 131.95H610.378L596.293 152.217ZM579.82 152.217H564.843L578.928 131.95H593.905L579.82 152.217ZM620.803 154.603V195.073H597.375V164.768C597.375 164.116 596.834 163.575 596.181 163.575H568.472C567.819 163.575 567.278 164.116 567.278 164.768V195.073H553.924V154.603H620.787H620.803ZM595.003 195.073H569.681V165.962H595.003V195.073ZM733.664 193.832C733.695 193.721 733.727 193.609 733.727 193.482C733.727 191.796 734.81 190.332 736.433 189.807C736.911 189.648 737.245 189.219 737.261 188.71C737.308 187.326 737.865 186.021 738.836 185.067C739.775 184.144 741.033 183.587 742.386 183.508C742.847 183.476 743.261 183.19 743.436 182.76C744.678 179.69 747.606 177.702 750.901 177.702C754.784 177.702 758.111 180.47 758.811 184.287C758.906 184.812 759.336 185.21 759.877 185.258C763.952 185.64 767.024 189.012 767.024 193.1C767.024 193.769 766.912 194.437 766.753 195.073H733.664V193.832ZM685.884 195.073H623.191V93.5647H685.884V195.073ZM604.68 91.1785L645.409 59.2832L690.643 91.1785H604.68ZM621.663 42.5322L643.372 57.8356L600.813 91.1785H547.001L621.663 42.5322ZM555.198 93.5647H620.803V129.564H555.198V93.5647ZM547.701 131.95H560.275L546.189 152.217H533.615L547.701 131.95ZM539.775 154.603H551.553V195.073H539.775V154.603ZM515.917 195.073H422.124V180.867H515.917V195.073ZM389.496 19.3862H491.311L499.714 35.5645H381.093L389.496 19.3862ZM370.508 37.9507H510.283V47.75H370.508V37.9507ZM380.106 50.1361H500.701V103.539H380.106V50.1361ZM370.508 105.925H510.283V115.724H370.508V105.925ZM380.313 118.095H500.685V178.481H422.124V143.706C422.124 143.054 421.583 142.513 420.93 142.513H391.884C391.231 142.513 390.69 143.054 390.69 143.706V178.481H380.313V118.095ZM363.283 180.867H390.69V195.073H363.283V180.867ZM263.33 109.966H333.488L339.95 120.894H275.442L263.33 109.966ZM250.072 98.0189H326.405L332.071 107.58H260.863C260.863 107.58 260.768 107.595 260.72 107.611L250.072 98.0189ZM318.368 84.4177L325.005 95.6168H247.43L235.016 84.4177H318.368ZM267.818 131.044C268.041 131.235 268.328 131.346 268.614 131.346H283.925C284.419 131.346 284.864 131.044 285.04 130.582C285.215 130.121 285.087 129.596 284.721 129.262L278.084 123.265H341.366L351.346 140.127H262.948V126.621L267.818 131.012V131.044ZM262.948 142.529H344.486V195.073H262.948V142.529ZM221.805 149.179C221.805 142.036 227.615 136.23 234.761 136.23C241.907 136.23 247.717 142.036 247.717 149.179V195.073H221.805V149.179ZM65.3352 193.816C65.367 193.705 65.3988 193.594 65.3988 193.482C65.3988 191.796 66.4811 190.332 68.1045 189.807C68.582 189.648 68.9163 189.219 68.9322 188.71C68.9799 187.326 69.537 186.021 70.5078 185.067C71.4469 184.144 72.7043 183.587 74.0571 183.508C74.5187 183.476 74.9325 183.19 75.1076 182.76C76.3331 179.69 79.2776 177.702 82.5722 177.702C86.4557 177.702 89.7821 180.47 90.4824 184.287C90.5779 184.812 91.0077 185.21 91.5488 185.258C95.6233 185.64 98.6951 189.012 98.6951 193.1C98.6951 193.769 98.5837 194.437 98.4245 195.073H65.3511V193.816H65.3352Z" fill="#0A0909"/>
<path d="M227.026 116.265C227.026 110.586 222.394 105.957 216.712 105.957C211.03 105.957 206.398 110.586 206.398 116.265C206.398 121.944 211.03 126.574 216.712 126.574C222.394 126.574 227.026 121.944 227.026 116.265ZM208.786 116.265C208.786 111.906 212.335 108.343 216.712 108.343C221.089 108.343 224.638 111.891 224.638 116.265C224.638 120.64 221.089 124.187 216.712 124.187C212.335 124.187 208.786 120.64 208.786 116.265Z" fill="#0A0909"/>
<rect x="163.5" y="3.5" width="240" height="55" rx="13.5" fill="white" stroke="black" stroke-width="3"/>
<path d="M193.848 36V22.9091H195.824V34.2997H201.755V36H193.848ZM205.984 22.9091V36H204.009V22.9091H205.984ZM208.86 36V22.9091H216.978V24.6094H210.835V28.598H216.396V30.2919H210.835V36H208.86ZM219.407 36V22.9091H227.614V24.6094H221.382V28.598H227.186V30.2919H221.382V34.2997H227.691V36H219.407ZM235.016 36V22.9091H243.224V24.6094H236.991V28.598H242.795V30.2919H236.991V34.2997H243.3V36H235.016ZM247.006 22.9091L250.65 33.571H250.797L254.44 22.9091H256.575L251.864 36H249.582L244.871 22.9091H247.006ZM258.466 36V22.9091H266.673V24.6094H260.441V28.598H266.245V30.2919H260.441V34.2997H266.75V36H258.466ZM279.877 22.9091V36H278.062L271.408 26.3991H271.286V36H269.311V22.9091H271.139L277.8 32.5227H277.921V22.9091H279.877ZM282.113 24.6094V22.9091H292.244V24.6094H288.16V36H286.191V24.6094H282.113ZM306.387 26.348C306.319 25.7429 306.037 25.2741 305.543 24.9418C305.049 24.6051 304.426 24.4368 303.676 24.4368C303.14 24.4368 302.675 24.522 302.283 24.6925C301.891 24.8587 301.586 25.0888 301.369 25.3828C301.156 25.6726 301.049 26.0028 301.049 26.3736C301.049 26.6847 301.122 26.9531 301.267 27.179C301.416 27.4048 301.61 27.5945 301.848 27.7479C302.091 27.897 302.351 28.0227 302.628 28.125C302.905 28.223 303.172 28.304 303.427 28.3679L304.706 28.7003C305.123 28.8026 305.551 28.9411 305.99 29.1158C306.429 29.2905 306.836 29.5206 307.211 29.8061C307.586 30.0916 307.889 30.4453 308.119 30.8672C308.353 31.2891 308.471 31.794 308.471 32.3821C308.471 33.1236 308.279 33.782 307.895 34.3572C307.516 34.9325 306.964 35.3864 306.24 35.7188C305.52 36.0511 304.648 36.2173 303.625 36.2173C302.645 36.2173 301.797 36.0618 301.081 35.7507C300.365 35.4396 299.805 34.9986 299.4 34.4276C298.995 33.8523 298.772 33.1705 298.729 32.3821H300.711C300.749 32.8551 300.902 33.2493 301.171 33.5646C301.444 33.8757 301.791 34.108 302.213 34.2614C302.639 34.4105 303.105 34.4851 303.613 34.4851C304.171 34.4851 304.667 34.3977 305.102 34.223C305.541 34.044 305.886 33.7969 306.137 33.4815C306.389 33.1619 306.515 32.7891 306.515 32.3629C306.515 31.9751 306.404 31.6577 306.182 31.4105C305.965 31.1634 305.669 30.9588 305.294 30.7969C304.923 30.6349 304.503 30.4922 304.034 30.3686L302.488 29.9467C301.439 29.6612 300.608 29.2415 299.995 28.6875C299.385 28.1335 299.081 27.4006 299.081 26.4886C299.081 25.7344 299.285 25.076 299.694 24.5135C300.103 23.951 300.657 23.5142 301.356 23.2031C302.055 22.8878 302.843 22.7301 303.721 22.7301C304.608 22.7301 305.39 22.8857 306.067 23.1967C306.749 23.5078 307.286 23.9361 307.678 24.4815C308.07 25.0227 308.275 25.6449 308.292 26.348H306.387ZM310.831 36V22.9091H319.038V24.6094H312.806V28.598H318.61V30.2919H312.806V34.2997H319.115V36H310.831ZM321.676 36V22.9091H323.652V34.2997H329.583V36H321.676ZM331.837 36V22.9091H333.812V34.2997H339.744V36H331.837ZM341.997 36V22.9091H350.204V24.6094H343.972V28.598H349.776V30.2919H343.972V34.2997H350.281V36H341.997ZM352.843 36V22.9091H357.509C358.523 22.9091 359.365 23.0838 360.034 23.4332C360.707 23.7827 361.21 24.2663 361.542 24.8842C361.874 25.4979 362.041 26.2074 362.041 27.0128C362.041 27.8139 361.872 28.5192 361.536 29.1286C361.203 29.7337 360.7 30.2045 360.027 30.5412C359.358 30.8778 358.517 31.0462 357.502 31.0462H353.968V29.3459H357.323C357.963 29.3459 358.482 29.2543 358.883 29.071C359.288 28.8878 359.584 28.6214 359.771 28.272C359.959 27.9226 360.053 27.5028 360.053 27.0128C360.053 26.5185 359.957 26.0902 359.765 25.728C359.578 25.3658 359.281 25.0888 358.877 24.897C358.476 24.701 357.95 24.603 357.298 24.603H354.818V36H352.843ZM359.305 30.0938L362.539 36H360.289L357.119 30.0938H359.305ZM371.584 26.348C371.516 25.7429 371.235 25.2741 370.74 24.9418C370.246 24.6051 369.624 24.4368 368.874 24.4368C368.337 24.4368 367.872 24.522 367.48 24.6925C367.088 24.8587 366.784 25.0888 366.566 25.3828C366.353 25.6726 366.247 26.0028 366.247 26.3736C366.247 26.6847 366.319 26.9531 366.464 27.179C366.613 27.4048 366.807 27.5945 367.046 27.7479C367.289 27.897 367.548 28.0227 367.825 28.125C368.102 28.223 368.369 28.304 368.624 28.3679L369.903 28.7003C370.32 28.8026 370.749 28.9411 371.188 29.1158C371.627 29.2905 372.034 29.5206 372.409 29.8061C372.784 30.0916 373.086 30.4453 373.316 30.8672C373.551 31.2891 373.668 31.794 373.668 32.3821C373.668 33.1236 373.476 33.782 373.093 34.3572C372.713 34.9325 372.161 35.3864 371.437 35.7188C370.717 36.0511 369.845 36.2173 368.823 36.2173C367.843 36.2173 366.994 36.0618 366.279 35.7507C365.563 35.4396 365.002 34.9986 364.597 34.4276C364.193 33.8523 363.969 33.1705 363.926 32.3821H365.908C365.946 32.8551 366.1 33.2493 366.368 33.5646C366.641 33.8757 366.988 34.108 367.41 34.2614C367.836 34.4105 368.303 34.4851 368.81 34.4851C369.368 34.4851 369.865 34.3977 370.299 34.223C370.738 34.044 371.083 33.7969 371.335 33.4815C371.586 33.1619 371.712 32.7891 371.712 32.3629C371.712 31.9751 371.601 31.6577 371.379 31.4105C371.162 31.1634 370.866 30.9588 370.491 30.7969C370.12 30.6349 369.7 30.4922 369.232 30.3686L367.685 29.9467C366.637 29.6612 365.806 29.2415 365.192 28.6875C364.583 28.1335 364.278 27.4006 364.278 26.4886C364.278 25.7344 364.482 25.076 364.892 24.5135C365.301 23.951 365.855 23.5142 366.553 23.2031C367.252 22.8878 368.041 22.7301 368.919 22.7301C369.805 22.7301 370.587 22.8857 371.264 23.1967C371.946 23.5078 372.483 23.9361 372.875 24.4815C373.267 25.0227 373.472 25.6449 373.489 26.348H371.584Z" fill="#757B8A"/>
<rect x="519.5" y="81.5" width="240" height="55" rx="13.5" fill="white" stroke="black" stroke-width="3"/>
<path d="M1282.85 186.374H1245.73C1245.08 186.374 1244.55 186.91 1244.55 187.557C1244.55 188.204 1245.08 188.74 1245.73 188.74H1282.85C1283.5 188.74 1284.04 188.204 1284.04 187.557C1284.04 186.91 1283.5 186.374 1282.85 186.374Z" fill="#0A0909"/>
<path d="M1282.85 178.392H1245.73C1245.08 178.392 1244.55 178.929 1244.55 179.575C1244.55 180.222 1245.08 180.759 1245.73 180.759H1282.85C1283.5 180.759 1284.04 180.222 1284.04 179.575C1284.04 178.929 1283.5 178.392 1282.85 178.392Z" fill="#0A0909"/>
<path d="M1282.85 170.395H1245.73C1245.08 170.395 1244.55 170.931 1244.55 171.578C1244.55 172.224 1245.08 172.761 1245.73 172.761H1282.85C1283.5 172.761 1284.04 172.224 1284.04 171.578C1284.04 170.931 1283.5 170.395 1282.85 170.395Z" fill="#0A0909"/>
<path d="M1245.73 164.779H1282.85C1283.5 164.779 1284.04 164.242 1284.04 163.596C1284.04 162.949 1283.5 162.413 1282.85 162.413H1245.73C1245.08 162.413 1244.55 162.949 1244.55 163.596C1244.55 164.242 1245.08 164.779 1245.73 164.779Z" fill="#0A0909"/>
<path d="M1319.86 74.8011C1327.5 74.8011 1333.71 68.5859 1333.71 60.9511C1333.71 53.3162 1327.5 47.1011 1319.86 47.1011C1312.23 47.1011 1306.01 53.3162 1306.01 60.9511C1306.01 68.5859 1312.23 74.8011 1319.86 74.8011ZM1319.86 49.4672C1326.21 49.4672 1331.35 54.6255 1331.35 60.9511C1331.35 67.2767 1326.19 72.4349 1319.86 72.4349C1313.54 72.4349 1308.38 67.2767 1308.38 60.9511C1308.38 54.6255 1313.54 49.4672 1319.86 49.4672Z" fill="#0A0909"/>
<path d="M1357.6 112.96C1358.25 112.96 1358.78 112.423 1358.78 111.777V91.9953C1358.78 91.3486 1358.25 90.8123 1357.6 90.8123H1280.44C1279.79 90.8123 1279.26 91.3486 1279.26 91.9953V111.777C1279.26 112.423 1279.79 112.96 1280.44 112.96H1357.6ZM1306.97 110.593V93.1784H1329.96V110.593H1306.97ZM1356.42 110.593H1332.31V93.1784H1356.42V110.593ZM1281.62 93.1784H1304.61V110.593H1281.62V93.1784Z" fill="#0A0909"/>
<path d="M1015.66 175.758H1020.4C1021.04 175.758 1021.58 175.222 1021.58 174.575C1021.58 173.928 1021.04 173.392 1020.4 173.392H1015.66C1015.02 173.392 1014.48 173.928 1014.48 174.575C1014.48 175.222 1015.02 175.758 1015.66 175.758Z" fill="#0A0909"/>
<path d="M1129 147.79H1057.82C1057.17 147.79 1056.64 148.326 1056.64 148.973V172.729C1056.64 173.376 1057.17 173.912 1057.82 173.912H1129C1129.65 173.912 1130.18 173.376 1130.18 172.729V148.973C1130.18 148.326 1129.65 147.79 1129 147.79ZM1101.44 150.156V171.546H1082.22V150.156H1101.44ZM1059 150.156H1079.86V171.546H1059V150.156ZM1127.82 171.562H1103.81V150.172H1127.82V171.562Z" fill="#0A0909"/>
<path d="M1018.46 66.4722C1010.54 66.4722 1004.08 72.9239 1004.08 80.8427V114.931C1004.08 115.578 1004.62 116.115 1005.27 116.115H1031.65C1032.29 116.115 1032.83 115.578 1032.83 114.931V80.8427C1032.83 72.9239 1026.38 66.4722 1018.46 66.4722ZM1030.46 80.8427V95.4342H1019.64V68.8857C1025.71 69.4851 1030.46 74.6118 1030.46 80.827V80.8427ZM1017.27 68.8857V95.4342H1006.45V80.8427C1006.45 74.6276 1011.22 69.4851 1017.27 68.9014V68.8857ZM1006.45 97.8003H1017.27V113.733H1006.45V97.8003ZM1019.64 113.748V97.8161H1030.46V113.748H1019.64Z" fill="#0A0909"/>
<path d="M1409.21 156.844C1414.03 156.844 1417.96 152.916 1417.96 148.089C1417.96 143.262 1414.03 139.334 1409.21 139.334C1404.38 139.334 1400.45 143.262 1400.45 148.089C1400.45 152.916 1404.38 156.844 1409.21 156.844ZM1409.21 141.716C1412.72 141.716 1415.59 144.587 1415.59 148.105C1415.59 151.623 1412.72 154.494 1409.21 154.494C1405.69 154.494 1402.82 151.623 1402.82 148.105C1402.82 144.587 1405.69 141.716 1409.21 141.716Z" fill="#0A0909"/>
<path d="M1497.9 164.937H1452.27C1451.63 164.937 1451.09 165.473 1451.09 166.12V184.812C1451.09 185.459 1451.63 185.995 1452.27 185.995H1497.9C1498.55 185.995 1499.08 185.459 1499.08 184.812V166.12C1499.08 165.473 1498.55 164.937 1497.9 164.937ZM1453.46 167.303H1473.9V183.629H1453.46V167.303ZM1496.72 183.629H1476.27V167.303H1496.72V183.629Z" fill="#0A0909"/>
<path d="M1543.78 147.143C1539.6 147.143 1536.2 150.535 1536.2 154.715C1536.2 158.895 1539.6 162.287 1543.78 162.287C1547.96 162.287 1551.35 158.895 1551.35 154.715C1551.35 150.535 1547.96 147.143 1543.78 147.143ZM1543.78 159.92C1540.91 159.92 1538.57 157.586 1538.57 154.715C1538.57 151.844 1540.91 149.509 1543.78 149.509C1546.65 149.509 1548.98 151.844 1548.98 154.715C1548.98 157.586 1546.65 159.92 1543.78 159.92Z" fill="#0A0909"/>
<path d="M1618.65 168.754H1580.14C1579.49 168.754 1578.96 169.29 1578.96 169.937V185.711C1578.96 186.358 1579.49 186.895 1580.14 186.895H1618.65C1619.3 186.895 1619.83 186.358 1619.83 185.711V169.937C1619.83 169.29 1619.3 168.754 1618.65 168.754ZM1581.31 171.12H1598.21V184.528H1581.31V171.12ZM1617.47 184.528H1600.57V171.12H1617.47V184.528Z" fill="#0A0909"/>
<path d="M1675.68 110.593C1675.68 109.947 1675.15 109.41 1674.5 109.41H1635.99C1635.34 109.41 1634.81 109.947 1634.81 110.593V126.368C1634.81 127.015 1635.34 127.551 1635.99 127.551H1674.5C1675.15 127.551 1675.68 127.015 1675.68 126.368V110.593ZM1637.17 111.777H1654.07V125.185H1637.17V111.777ZM1673.32 125.185H1656.42V111.777H1673.32V125.185Z" fill="#0A0909"/>
<path d="M1675.68 134.287C1675.68 133.64 1675.15 133.104 1674.5 133.104H1635.99C1635.34 133.104 1634.81 133.64 1634.81 134.287V150.061C1634.81 150.708 1635.34 151.244 1635.99 151.244H1674.5C1675.15 151.244 1675.68 150.708 1675.68 150.061V134.287ZM1637.17 135.47H1654.07V148.878H1637.17V135.47ZM1673.32 148.894H1656.42V135.486H1673.32V148.894Z" fill="#0A0909"/>
<path d="M1674.5 171.12C1675.15 171.12 1675.68 170.584 1675.68 169.937V158.564C1675.68 157.917 1675.15 157.381 1674.5 157.381H1635.99C1635.34 157.381 1634.81 157.917 1634.81 158.564V174.338C1634.81 174.985 1635.34 175.521 1635.99 175.521H1652.21C1652.85 175.521 1653.39 174.985 1653.39 174.338C1653.39 173.691 1652.85 173.155 1652.21 173.155H1637.17V159.747H1673.32V169.937C1673.32 170.584 1673.85 171.12 1674.5 171.12Z" fill="#0A0909"/>
<path d="M1591.5 98.9992V118.481C1591.5 119.127 1592.04 119.664 1592.68 119.664H1606.63C1607.28 119.664 1607.81 119.127 1607.81 118.481V98.9992C1607.81 94.5034 1604.15 90.8438 1599.66 90.8438C1595.16 90.8438 1591.5 94.5034 1591.5 98.9992ZM1593.87 108.101H1598.21V117.298H1593.87V108.101ZM1600.57 117.298V108.101H1605.45V117.298H1600.57ZM1605.45 98.9992V105.735H1593.87V98.9992C1593.87 95.8127 1596.47 93.2099 1599.66 93.2099C1602.84 93.2099 1605.45 95.8127 1605.45 98.9992Z" fill="#0A0909"/>
<path d="M913.718 133.246C916.179 136.984 917.472 141.322 917.472 145.771C917.472 146.417 918.009 146.954 918.656 146.954C919.302 146.954 919.839 146.417 919.839 145.771C919.839 140.991 918.482 136.337 915.926 132.299C916.021 131.479 916.053 130.769 916.053 130.075C916.053 121.667 911.099 114.237 903.384 110.972C900.623 102.312 892.467 96.3018 883.348 96.3018C874.23 96.3018 865.789 102.501 863.17 111.43C855.329 114.648 850.092 122.393 850.092 130.879C850.092 133.23 850.502 135.58 851.291 137.836C849.271 140.975 848.214 144.588 848.214 148.326C848.214 159.037 856.939 167.76 867.651 167.76C870.128 167.76 872.541 167.303 874.813 166.388C875.413 166.151 875.712 165.457 875.476 164.858C875.239 164.258 874.545 163.959 873.946 164.195C871.942 165 869.828 165.394 867.651 165.394C858.248 165.394 850.581 157.743 850.581 148.326C850.581 144.856 851.622 141.527 853.578 138.672C853.799 138.357 853.847 137.946 853.705 137.584C852.868 135.423 852.442 133.167 852.442 130.895C852.442 123.182 857.302 116.162 864.543 113.433C864.906 113.291 865.174 112.991 865.269 112.628C867.414 104.41 874.829 98.6837 883.317 98.6837C891.804 98.6837 898.967 104.236 901.254 112.202C901.349 112.549 901.617 112.849 901.964 112.975C909.079 115.767 913.67 122.487 913.67 130.107C913.67 130.816 913.623 131.558 913.497 132.457C913.465 132.741 913.528 133.025 913.686 133.261L913.718 133.246Z" fill="#0A0909"/>
<path d="M900.371 167.902C897.563 168.628 894.55 168.817 891.678 168.439C891.031 168.344 890.432 168.817 890.353 169.464C890.274 170.111 890.732 170.71 891.379 170.789C892.451 170.931 893.54 170.994 894.644 170.994C896.79 170.994 898.92 170.726 900.971 170.19C901.602 170.032 901.98 169.385 901.822 168.754C901.665 168.123 901.002 167.744 900.387 167.902H900.371Z" fill="#0A0909"/>
<path d="M901.491 125.768C901.034 125.311 900.276 125.311 899.819 125.768L896.285 129.302C895.828 129.759 895.828 130.517 896.285 130.974C896.522 131.211 896.821 131.321 897.121 131.321C897.421 131.321 897.721 131.211 897.957 130.974L901.491 127.44C901.949 126.983 901.949 126.226 901.491 125.768Z" fill="#0A0909"/>
<path d="M1710.82 195.46H1697.86C1698.02 195.255 1698.13 194.987 1698.12 194.703C1697.96 190.318 1704.93 183.219 1707.65 180.853C1708.02 180.522 1708.15 179.986 1707.96 179.528C1707.77 179.055 1707.31 178.755 1706.81 178.787C1701.29 179.023 1697.44 180.459 1695.02 181.768C1698.84 173.013 1707.3 167.886 1707.39 167.823C1707.84 167.555 1708.06 167.035 1707.95 166.53C1707.82 166.025 1707.39 165.662 1706.89 165.615C1688.37 164.243 1680.72 176.973 1678.36 182.257C1675.19 177.809 1666.42 167.24 1653.44 165.615C1652.9 165.552 1652.4 165.852 1652.19 166.341C1651.99 166.83 1652.14 167.397 1652.55 167.729C1652.7 167.839 1667.04 179.276 1662.08 194.892C1662.02 195.082 1662.02 195.271 1662.05 195.445H1627.86C1628.21 195.239 1628.46 194.877 1628.46 194.435V160.346H1630.15C1630.59 160.346 1631 160.094 1631.21 159.7C1631.41 159.305 1631.37 158.816 1631.1 158.469L1605.97 124.475C1605.75 124.175 1605.38 124.002 1605.02 124.002H1579.68V94.8032L1600.52 67.813L1624.49 100.23V142.19C1624.49 142.837 1625.03 143.373 1625.67 143.373C1626.32 143.373 1626.86 142.837 1626.86 142.19V101.018H1681.95V166.12C1681.95 166.766 1682.48 167.303 1683.13 167.303C1683.78 167.303 1684.31 166.766 1684.31 166.12V101.018H1686C1686.44 101.018 1686.85 100.766 1687.06 100.372C1687.26 99.9772 1687.22 99.4882 1686.95 99.1412L1661.82 65.1471C1661.59 64.8474 1661.23 64.6739 1660.87 64.6739H1600.54C1600.54 64.6739 1600.48 64.6739 1600.45 64.6739C1600.4 64.6739 1600.37 64.6739 1600.32 64.6897C1600.21 64.7055 1600.11 64.737 1600.02 64.7843C1599.99 64.7843 1599.97 64.8001 1599.94 64.8159C1599.83 64.879 1599.72 64.9736 1599.64 65.084C1599.64 65.084 1599.63 65.084 1599.61 65.1156L1573.36 99.1096C1572.96 99.6302 1573.06 100.372 1573.58 100.766C1573.8 100.939 1574.05 101.018 1574.3 101.018C1574.65 101.018 1575.01 100.861 1575.23 100.561L1577.32 97.8635V124.002H1545.56V107.123C1561.08 105.546 1573.25 92.4055 1573.25 76.4732C1573.25 66.6457 1568.58 57.4492 1560.67 51.6442C1563.31 47.9056 1564.68 43.5203 1564.68 38.8984C1564.68 26.6258 1554.69 16.6405 1542.42 16.6405C1530.15 16.6405 1520.16 26.6258 1520.16 38.8984C1520.16 43.5203 1521.55 47.8898 1524.17 51.6442C1523.41 52.212 1522.67 52.7957 1521.96 53.4267C1521.47 53.8526 1521.42 54.6098 1521.86 55.0988C1522.29 55.5878 1523.05 55.6351 1523.54 55.1934C1524.48 54.3574 1525.48 53.5844 1526.5 52.8904C1526.77 52.7011 1526.96 52.4171 1527.01 52.0859C1527.05 51.7546 1526.98 51.4233 1526.77 51.1709C1523.99 47.6374 1522.53 43.3941 1522.53 38.8984C1522.53 27.9351 1531.46 19.0067 1542.42 19.0067C1553.38 19.0067 1562.31 27.9351 1562.31 38.8984C1562.31 43.3941 1560.85 47.6374 1558.07 51.1709C1557.87 51.4233 1557.79 51.7546 1557.83 52.0859C1557.88 52.4171 1558.07 52.7011 1558.34 52.8904C1566.2 58.1906 1570.88 67.0085 1570.88 76.4732C1570.88 91.0962 1559.77 103.179 1545.56 104.741V100.009L1560.61 79.5493C1561 79.0287 1560.88 78.2873 1560.36 77.8929C1559.84 77.4986 1559.1 77.6248 1558.7 78.1453L1545.56 96.0178V68.1601C1545.56 67.5133 1545.02 66.977 1544.38 66.977C1543.73 66.977 1543.19 67.5133 1543.19 68.1601V81.7104L1533.29 72.1826C1532.81 71.7251 1532.07 71.7409 1531.61 72.2141C1531.16 72.6874 1531.17 73.4288 1531.64 73.8862L1543.19 84.9915V104.883C1542.94 104.883 1542.69 104.915 1542.42 104.915C1537.02 104.915 1531.76 103.4 1527.21 100.514C1527.12 100.45 1527.02 100.435 1526.93 100.403V72.8766C1526.93 62.6705 1518.63 54.3574 1508.41 54.3574C1498.18 54.3574 1489.89 62.6705 1489.89 72.8766V101.287C1489.89 111.082 1497.54 119.112 1507.18 119.743V145.518L1482.69 112.408C1482.47 112.108 1482.11 111.934 1481.74 111.934H1410.29C1410.29 111.934 1410.23 111.934 1410.2 111.934C1410.15 111.934 1410.1 111.934 1410.07 111.95C1409.96 111.966 1409.87 111.997 1409.77 112.045C1409.74 112.045 1409.71 112.061 1409.69 112.076C1409.58 112.139 1409.47 112.234 1409.39 112.344C1409.39 112.344 1409.38 112.344 1409.36 112.376L1378.27 152.648C1377.87 153.169 1377.97 153.91 1378.49 154.305C1378.71 154.478 1378.96 154.557 1379.21 154.557C1379.56 154.557 1379.92 154.399 1380.14 154.1L1383 150.408V195.176C1383 195.287 1383.03 195.366 1383.06 195.476H1374.28V81.1583L1386.94 93.2889C1387.17 93.5097 1387.47 93.6201 1387.76 93.6201C1388.06 93.6201 1388.36 93.5097 1388.6 93.2731L1394.33 87.5469C1394.55 87.3261 1394.67 87.0106 1394.67 86.6951C1394.67 86.3796 1394.53 86.0799 1394.31 85.8591L1320.67 15.3313C1320.21 14.8896 1319.48 14.8896 1319.03 15.3313L1245.42 85.8117C1245.18 86.0326 1245.05 86.3323 1245.05 86.6478C1245.05 86.9633 1245.18 87.2788 1245.4 87.4996L1251.13 93.2258C1251.58 93.6832 1252.31 93.6832 1252.78 93.2415L1266.03 80.5588V120.721H1237.37C1236.72 120.721 1236.19 121.257 1236.19 121.904V195.445H1199.05V161.182C1211.65 159.794 1221.48 149.099 1221.48 136.148C1221.48 128.182 1217.73 120.721 1211.39 115.973C1213.47 112.944 1214.56 109.41 1214.56 105.703C1214.56 95.6393 1206.37 87.4365 1196.29 87.4365C1186.21 87.4365 1178.02 95.6235 1178.02 105.703C1178.02 109.41 1179.11 112.944 1181.19 115.973C1180.62 116.398 1180.09 116.84 1179.56 117.298C1179.08 117.739 1179.03 118.481 1179.47 118.97C1179.91 119.459 1180.65 119.506 1181.14 119.064C1181.88 118.402 1182.69 117.771 1183.52 117.219C1183.79 117.029 1183.98 116.746 1184.03 116.414C1184.08 116.083 1184 115.752 1183.79 115.499C1181.57 112.676 1180.4 109.284 1180.4 105.688C1180.4 96.917 1187.53 89.7869 1196.3 89.7869C1205.07 89.7869 1212.21 96.917 1212.21 105.688C1212.21 109.284 1211.04 112.676 1208.81 115.499C1208.61 115.752 1208.53 116.083 1208.58 116.414C1208.62 116.746 1208.81 117.029 1209.08 117.219C1215.38 121.478 1219.15 128.561 1219.15 136.148C1219.15 147.806 1210.36 157.428 1199.08 158.785V155.283L1211.23 138.767C1211.62 138.246 1211.5 137.505 1210.98 137.11C1210.45 136.716 1209.71 136.842 1209.32 137.363L1199.08 151.292V129.397C1199.08 128.75 1198.54 128.214 1197.9 128.214C1197.25 128.214 1196.71 128.75 1196.71 129.397V139.855L1189.06 132.504C1188.59 132.047 1187.85 132.063 1187.39 132.536C1186.93 133.009 1186.95 133.75 1187.42 134.208L1196.71 143.136V158.942C1196.59 158.942 1196.45 158.958 1196.32 158.958C1191.98 158.958 1187.77 157.743 1184.12 155.425C1184.08 155.393 1184.03 155.393 1184 155.377V133.23C1184 124.838 1177.17 118.008 1168.77 118.008C1160.38 118.008 1153.55 124.838 1153.55 133.23V156.245C1153.55 164.227 1159.73 170.789 1167.56 171.404V195.429H1155.92V181.137C1155.92 180.49 1155.38 179.954 1154.73 179.954H1141.43V137.016H1146.99C1147.63 137.016 1148.17 136.479 1148.17 135.833C1148.17 135.186 1147.63 134.65 1146.99 134.65H1134.41V128.529H1146.99C1147.63 128.529 1148.17 127.993 1148.17 127.346C1148.17 126.699 1147.63 126.163 1146.99 126.163H1134.41V95.166H1146.13C1146.78 95.166 1147.32 94.6297 1147.32 93.9829C1147.32 93.3362 1146.78 92.7998 1146.13 92.7998H1056.13V73.3183L1062.85 79.7543C1063.07 79.9752 1063.37 80.0856 1063.67 80.0856C1063.97 80.0856 1064.27 79.9752 1064.51 79.7386L1070.11 74.1386C1070.33 73.9178 1070.46 73.6023 1070.46 73.2868C1070.46 72.9713 1070.31 72.6716 1070.09 72.4507L1021.28 25.7109C1020.82 25.2692 1020.1 25.2692 1019.64 25.7109L971.601 71.6936C971.364 71.9144 971.238 72.2141 971.238 72.5296C971.238 72.8451 971.364 73.1606 971.585 73.3814L977.186 78.9814C977.643 79.4388 978.369 79.4388 978.842 78.9972L982.077 75.9054V126.179H972.5C971.854 126.179 971.317 126.715 971.317 127.362C971.317 128.009 971.854 128.545 972.5 128.545H982.077V134.665H972.5C971.854 134.665 971.317 135.202 971.317 135.848C971.317 136.495 971.854 137.032 972.5 137.032H982.077V179.97H967.767C967.121 179.97 966.584 180.506 966.584 181.153V195.445H949.514V188.504H954.578C955.225 188.504 955.762 187.967 955.762 187.321V177.982C955.762 177.335 955.225 176.799 954.578 176.799H943.377V168.833H948.205C948.852 168.833 949.388 168.297 949.388 167.65V157.586C949.388 156.939 948.852 156.403 948.205 156.403H942.825V154.005C942.825 153.358 942.289 152.822 941.642 152.822C940.995 152.822 940.459 153.358 940.459 154.005V156.403H915.406V154.005C915.406 153.358 914.869 152.822 914.223 152.822C913.576 152.822 913.039 153.358 913.039 154.005V156.403H907.549C906.902 156.403 906.366 156.939 906.366 157.586V167.65C906.366 168.297 906.902 168.833 907.549 168.833H912.503V176.799H901.176C900.529 176.799 899.992 177.335 899.992 177.982V187.321C899.992 187.967 900.529 188.504 901.176 188.504H906.366V195.445H884.184V158.217L894.439 147.963C894.897 147.506 894.897 146.749 894.439 146.291C893.982 145.834 893.224 145.834 892.767 146.291L884.184 154.873V144.808L893.713 135.265C894.171 134.807 894.171 134.05 893.713 133.593C893.256 133.135 892.499 133.135 892.041 133.593L884.184 141.448V122.298C884.184 121.651 883.648 121.115 883.001 121.115C882.354 121.115 881.818 121.651 881.818 122.298V141.18L871.358 130.722C870.901 130.264 870.144 130.264 869.686 130.722C869.229 131.179 869.229 131.936 869.686 132.394L881.818 144.524V155.661L873.646 147.49C873.188 147.033 872.431 147.033 871.974 147.49C871.516 147.947 871.516 148.705 871.974 149.162L881.771 158.958C881.771 158.958 881.802 158.974 881.834 158.99V195.429H835.183C834.536 195.429 834 195.965 834 196.612C834 197.259 834.536 197.795 835.183 197.795H1236.77C1236.94 197.905 1237.15 197.968 1237.35 197.968C1237.56 197.968 1237.76 197.89 1237.94 197.795H1292.24C1292.41 197.905 1292.62 197.968 1292.82 197.968C1293.03 197.968 1293.23 197.89 1293.41 197.795H1306.72C1306.9 197.905 1307.1 197.968 1307.31 197.968C1307.51 197.968 1307.72 197.89 1307.89 197.795H1326.14C1326.32 197.905 1326.51 197.968 1326.73 197.968C1326.95 197.968 1327.14 197.89 1327.31 197.795H1340.63C1340.8 197.905 1340.99 197.968 1341.21 197.968C1341.43 197.968 1341.62 197.89 1341.79 197.795H1372.43C1372.6 197.905 1372.79 197.968 1373.01 197.968C1373.23 197.968 1373.42 197.89 1373.6 197.795H1710.72C1711.37 197.795 1711.91 197.259 1711.91 196.612C1711.91 195.965 1711.37 195.429 1710.72 195.429L1710.82 195.46ZM1660.29 67.0243L1683.67 98.6522H1626.29L1602.91 67.0243H1660.29ZM1657.07 168.801C1669.75 172.524 1677.53 185.286 1677.61 185.428C1677.84 185.838 1678.32 186.059 1678.77 185.996C1679.25 185.933 1679.63 185.601 1679.75 185.144C1679.96 184.418 1684.82 168.391 1703.18 167.886C1699.54 170.757 1693.64 176.452 1691.55 184.513C1691.41 185.033 1691.65 185.57 1692.12 185.838C1692.6 186.106 1693.18 186.011 1693.56 185.633C1693.59 185.601 1696.67 182.525 1703.54 181.468C1700.4 184.639 1695.58 190.27 1695.73 194.782C1695.73 195.034 1695.85 195.255 1695.99 195.445H1664.36C1668.14 183.219 1661.33 173.423 1657.04 168.786L1657.07 168.801ZM1626.7 195.46H1570.42C1570.77 195.255 1571.02 194.892 1571.02 194.451V160.362H1626.11V194.451C1626.11 194.892 1626.37 195.255 1626.71 195.46H1626.7ZM1550.04 195.46H1537.5C1537.85 195.255 1538.1 194.892 1538.1 194.451V171.688H1549.44V194.451C1549.44 194.892 1549.69 195.255 1550.04 195.46ZM1550.64 169.322H1536.93C1536.28 169.322 1535.75 169.858 1535.75 170.505V194.451C1535.75 194.892 1536 195.255 1536.35 195.46H1523.25C1523.6 195.255 1523.85 194.892 1523.85 194.451V154.147L1544.69 127.157L1568.66 159.573V194.451C1568.66 194.892 1568.91 195.255 1569.26 195.46H1551.22C1551.57 195.255 1551.82 194.892 1551.82 194.451V170.505C1551.82 169.858 1551.29 169.322 1550.64 169.322ZM1604.44 126.368L1627.82 157.996H1570.44L1547.06 126.368H1604.44ZM1492.27 101.287V72.8766C1492.27 63.9798 1499.51 56.7236 1508.42 56.7236C1517.34 56.7236 1524.58 63.9641 1524.58 72.8766V101.287C1524.58 109.805 1517.94 116.793 1509.57 117.377V109.537L1515.13 103.984C1515.58 103.527 1515.58 102.769 1515.13 102.312C1514.67 101.854 1513.91 101.854 1513.45 102.312L1509.57 106.192V99.2043L1517.73 91.0331C1518.19 90.5756 1518.19 89.8185 1517.73 89.361C1517.27 88.9035 1516.52 88.9035 1516.06 89.361L1509.57 95.8443V90.197C1509.57 89.5503 1509.04 89.014 1508.39 89.014C1507.74 89.014 1507.21 89.5503 1507.21 90.197V92.9103L1503.66 89.361C1503.2 88.9035 1502.44 88.9035 1501.99 89.361C1501.53 89.8185 1501.53 90.5756 1501.99 91.0331L1507.21 96.2545V107.107L1499.49 99.3936C1499.04 98.9361 1498.28 98.9361 1497.82 99.3936C1497.36 99.851 1497.36 100.608 1497.82 101.066L1507.21 110.452V117.361C1498.88 116.73 1492.28 109.773 1492.28 101.271L1492.27 101.287ZM1509.57 119.743C1518.68 119.191 1526.01 112.045 1526.86 103.037C1531.58 105.814 1536.95 107.281 1542.45 107.281C1542.7 107.281 1542.96 107.249 1543.22 107.249V125.185L1517.54 158.438C1517.15 158.958 1517.24 159.7 1517.76 160.094C1517.98 160.267 1518.24 160.346 1518.49 160.346C1518.83 160.346 1519.2 160.189 1519.42 159.889L1521.5 157.191V194.435C1521.5 194.877 1521.75 195.239 1522.1 195.445H1509.31C1509.34 195.35 1509.37 195.255 1509.37 195.145V154.541H1511.58C1512.02 154.541 1512.43 154.289 1512.63 153.894C1512.84 153.5 1512.79 153.011 1512.52 152.664L1509.61 148.705V119.727L1509.57 119.743ZM1441.26 195.161V154.557H1506.96V195.161C1506.96 195.271 1506.99 195.35 1507.02 195.46H1441.22C1441.25 195.366 1441.28 195.271 1441.28 195.161H1441.26ZM1481.16 114.285L1507.19 149.493V150.929C1507.19 151.576 1507.73 152.112 1508.37 152.112C1508.61 152.112 1508.8 152.033 1508.99 151.923L1509.18 152.191H1440.66L1412.64 114.285H1481.16ZM1385.37 195.161V147.332L1410.28 115.073L1438.9 153.768V195.161C1438.9 195.271 1438.93 195.35 1438.96 195.46H1418.45C1418.48 195.366 1418.51 195.271 1418.51 195.161V166.782C1418.51 166.136 1417.98 165.599 1417.33 165.599H1401.08C1400.43 165.599 1399.9 166.136 1399.9 166.782V195.161C1399.9 195.271 1399.93 195.35 1399.96 195.46H1385.32C1385.35 195.366 1385.38 195.271 1385.38 195.161H1385.37ZM1416.21 195.46H1402.22C1402.25 195.366 1402.28 195.271 1402.28 195.161V167.965H1416.16V195.161C1416.16 195.271 1416.19 195.35 1416.23 195.46H1416.21ZM1251.98 90.7334L1247.92 86.6793L1319.85 17.8236L1391.8 86.7267L1387.75 90.7807L1320.67 26.5469C1320.45 26.3261 1320.15 26.2157 1319.85 26.2157C1319.55 26.2157 1319.26 26.3261 1319.03 26.5469L1251.98 90.7492V90.7334ZM1268.39 78.3031L1319.85 29.0393L1371.91 78.9025V195.46H1342.46V156.34H1351.26C1351.91 156.34 1352.44 155.803 1352.44 155.156V146.496C1352.44 145.849 1351.91 145.313 1351.26 145.313H1298.23V121.92C1298.23 121.273 1297.7 120.736 1297.05 120.736H1268.39V78.3031ZM1325.59 195.46H1308.52V166.183H1325.59V195.46ZM1326.77 163.817H1307.34C1306.69 163.817 1306.15 164.353 1306.15 165V195.46H1294.02V156.34H1340.09V195.46H1327.96V165C1327.96 164.353 1327.42 163.817 1326.77 163.817ZM1350.08 147.679V153.973H1284.05V147.679H1350.08ZM1238.54 123.103H1295.87V145.313H1282.85C1282.21 145.313 1281.67 145.849 1281.67 146.496V155.156C1281.67 155.803 1282.21 156.34 1282.85 156.34H1291.66V195.46H1238.54V123.103ZM1155.85 156.276V133.261C1155.85 126.163 1161.63 120.405 1168.71 120.405C1175.79 120.405 1181.57 126.179 1181.57 133.261V156.276C1181.57 162.981 1176.41 168.502 1169.86 169.085V163.059L1174.3 158.627C1174.75 158.169 1174.75 157.412 1174.3 156.955C1173.84 156.497 1173.08 156.497 1172.62 156.955L1169.86 159.715V154.699L1176.41 148.153C1176.87 147.695 1176.87 146.938 1176.41 146.48C1175.95 146.023 1175.19 146.023 1174.74 146.48L1169.86 151.355V147.317C1169.86 146.67 1169.33 146.133 1168.68 146.133C1168.03 146.133 1167.5 146.67 1167.5 147.317V148.973L1165 146.48C1164.55 146.023 1163.79 146.023 1163.33 146.48C1162.87 146.938 1162.87 147.695 1163.33 148.153L1167.5 152.317V160.488L1161.63 154.62C1161.17 154.163 1160.41 154.163 1159.95 154.62C1159.5 155.078 1159.5 155.835 1159.95 156.292L1167.5 163.832V169.101C1160.96 168.486 1155.85 162.981 1155.85 156.308V156.276ZM1169.86 171.436C1177.14 170.884 1182.99 165.236 1183.82 158.043C1187.61 160.189 1191.89 161.34 1196.27 161.34C1196.4 161.34 1196.54 161.324 1196.67 161.324V195.445H1169.86V171.436ZM1153.49 195.46H1046.1V182.352H1153.49V195.46ZM1024.8 195.46H1003.5V150.172H1024.8V195.46ZM1025.98 147.79H1002.32C1001.67 147.79 1001.13 148.326 1001.13 148.973V195.445H992.536V137.032H1035.54V195.445H1027.15V148.973C1027.15 148.326 1026.61 147.79 1025.97 147.79H1025.98ZM984.364 137.047H990.17V195.46H984.364V137.047ZM1037.92 137.047H1043.73V195.46H1037.92V137.047ZM1046.1 179.986V137.047H1139V179.986H1046.1ZM1131.98 134.681H1056.07V128.561H1131.98V134.681ZM1131.98 95.1818V126.179H1056.07V95.1818H1131.98ZM977.959 76.489L974.031 72.5612L1020.37 28.1875L1067.49 73.3026L1063.56 77.2304L1055.7 69.706L1021.19 36.6584C1020.97 36.4375 1020.67 36.3271 1020.37 36.3271C1020.07 36.3271 1019.78 36.4375 1019.55 36.6584L982.897 71.7409C982.487 71.8355 982.155 72.151 982.045 72.5612L977.943 76.489H977.959ZM984.364 73.6496L1020.38 39.1665L1053.69 71.0626V126.179H984.364V73.6338V73.6496ZM1053.69 128.545V134.665H984.364V128.545H1053.69ZM968.888 182.352H982.014V195.46H968.888V182.352ZM908.685 158.785H946.974V166.483H908.685V158.785ZM914.822 168.849H940.948V176.815H914.822V168.849ZM902.311 179.181H953.348V186.153H902.311V179.181ZM908.685 188.52H947.085V195.46H908.685V188.52Z" fill="#0A0909"/>
<rect x="828.5" y="1.5" width="240" height="55" rx="13.5" fill="white" stroke="black" stroke-width="3"/>
<rect x="1064.5" y="74.5" width="240" height="55" rx="13.5" fill="white" stroke="black" stroke-width="3"/>
<path d="M555.486 114H551.248V100.909H555.62C556.903 100.909 558.004 101.171 558.925 101.695C559.845 102.215 560.55 102.963 561.04 103.939C561.535 104.911 561.782 106.076 561.782 107.435C561.782 108.799 561.533 109.971 561.034 110.951C560.54 111.931 559.824 112.685 558.886 113.214C557.949 113.738 556.815 114 555.486 114ZM553.223 112.274H555.377C556.374 112.274 557.203 112.087 557.864 111.712C558.524 111.332 559.018 110.785 559.347 110.069C559.675 109.349 559.839 108.471 559.839 107.435C559.839 106.408 559.675 105.537 559.347 104.821C559.023 104.105 558.539 103.562 557.896 103.191C557.252 102.82 556.453 102.635 555.498 102.635H553.223V112.274ZM564.238 114V100.909H572.445V102.609H566.213V106.598H572.017V108.292H566.213V112.3H572.522V114H564.238ZM585.957 105.166H583.962C583.886 104.74 583.743 104.365 583.534 104.041C583.325 103.717 583.07 103.442 582.767 103.217C582.464 102.991 582.126 102.82 581.751 102.705C581.38 102.59 580.986 102.533 580.568 102.533C579.814 102.533 579.138 102.722 578.542 103.102C577.949 103.481 577.481 104.037 577.136 104.77C576.795 105.503 576.624 106.398 576.624 107.455C576.624 108.52 576.795 109.419 577.136 110.152C577.481 110.885 577.952 111.439 578.548 111.814C579.145 112.189 579.816 112.376 580.562 112.376C580.975 112.376 581.367 112.321 581.738 112.21C582.113 112.095 582.452 111.927 582.754 111.705C583.057 111.484 583.312 111.213 583.521 110.893C583.734 110.57 583.881 110.199 583.962 109.781L585.957 109.788C585.85 110.431 585.643 111.023 585.337 111.565C585.034 112.102 584.644 112.566 584.167 112.958C583.694 113.346 583.153 113.646 582.543 113.859C581.934 114.072 581.269 114.179 580.549 114.179C579.415 114.179 578.405 113.911 577.519 113.374C576.633 112.832 575.934 112.059 575.422 111.053C574.915 110.048 574.662 108.848 574.662 107.455C574.662 106.057 574.918 104.857 575.429 103.856C575.94 102.85 576.639 102.079 577.525 101.542C578.412 101.001 579.42 100.73 580.549 100.73C581.244 100.73 581.891 100.83 582.492 101.031C583.097 101.227 583.641 101.516 584.122 101.9C584.604 102.279 585.002 102.744 585.317 103.293C585.633 103.839 585.846 104.463 585.957 105.166ZM588.32 114V100.909H596.527V102.609H590.295V106.598H596.099V108.292H590.295V112.3H596.604V114H588.32ZM600.272 114H598.175L602.886 100.909H605.168L609.879 114H607.782L604.081 103.287H603.979L600.272 114ZM600.623 108.874H607.424V110.536H600.623V108.874ZM618.804 104.348C618.736 103.743 618.454 103.274 617.96 102.942C617.466 102.605 616.843 102.437 616.093 102.437C615.557 102.437 615.092 102.522 614.7 102.692C614.308 102.859 614.003 103.089 613.786 103.383C613.573 103.673 613.466 104.003 613.466 104.374C613.466 104.685 613.539 104.953 613.684 105.179C613.833 105.405 614.027 105.594 614.265 105.748C614.508 105.897 614.768 106.023 615.045 106.125C615.322 106.223 615.589 106.304 615.844 106.368L617.123 106.7C617.54 106.803 617.968 106.941 618.407 107.116C618.846 107.29 619.253 107.521 619.628 107.806C620.003 108.092 620.306 108.445 620.536 108.867C620.77 109.289 620.888 109.794 620.888 110.382C620.888 111.124 620.696 111.782 620.312 112.357C619.933 112.933 619.381 113.386 618.657 113.719C617.937 114.051 617.065 114.217 616.042 114.217C615.062 114.217 614.214 114.062 613.498 113.751C612.782 113.44 612.222 112.999 611.817 112.428C611.412 111.852 611.189 111.17 611.146 110.382H613.128C613.166 110.855 613.319 111.249 613.588 111.565C613.861 111.876 614.208 112.108 614.63 112.261C615.056 112.411 615.522 112.485 616.03 112.485C616.588 112.485 617.084 112.398 617.519 112.223C617.958 112.044 618.303 111.797 618.554 111.482C618.806 111.162 618.932 110.789 618.932 110.363C618.932 109.975 618.821 109.658 618.599 109.411C618.382 109.163 618.086 108.959 617.711 108.797C617.34 108.635 616.92 108.492 616.451 108.369L614.905 107.947C613.856 107.661 613.025 107.241 612.412 106.688C611.802 106.134 611.498 105.401 611.498 104.489C611.498 103.734 611.702 103.076 612.111 102.513C612.52 101.951 613.074 101.514 613.773 101.203C614.472 100.888 615.26 100.73 616.138 100.73C617.025 100.73 617.807 100.886 618.484 101.197C619.166 101.508 619.703 101.936 620.095 102.482C620.487 103.023 620.691 103.645 620.709 104.348H618.804ZM623.248 114V100.909H631.455V102.609H625.223V106.598H631.027V108.292H625.223V112.3H631.532V114H623.248ZM638.331 114H634.093V100.909H638.466C639.748 100.909 640.85 101.171 641.77 101.695C642.691 102.215 643.396 102.963 643.886 103.939C644.38 104.911 644.628 106.076 644.628 107.435C644.628 108.799 644.378 109.971 643.88 110.951C643.385 111.931 642.669 112.685 641.732 113.214C640.794 113.738 639.661 114 638.331 114ZM636.069 112.274H638.223C639.22 112.274 640.049 112.087 640.709 111.712C641.37 111.332 641.864 110.785 642.192 110.069C642.52 109.349 642.684 108.471 642.684 107.435C642.684 106.408 642.52 105.537 642.192 104.821C641.868 104.105 641.385 103.562 640.741 103.191C640.098 102.82 639.299 102.635 638.344 102.635H636.069V112.274ZM658.987 104.348C658.919 103.743 658.638 103.274 658.144 102.942C657.649 102.605 657.027 102.437 656.277 102.437C655.74 102.437 655.276 102.522 654.884 102.692C654.492 102.859 654.187 103.089 653.97 103.383C653.756 103.673 653.65 104.003 653.65 104.374C653.65 104.685 653.722 104.953 653.867 105.179C654.016 105.405 654.21 105.594 654.449 105.748C654.692 105.897 654.952 106.023 655.229 106.125C655.506 106.223 655.772 106.304 656.028 106.368L657.306 106.7C657.724 106.803 658.152 106.941 658.591 107.116C659.03 107.29 659.437 107.521 659.812 107.806C660.187 108.092 660.489 108.445 660.72 108.867C660.954 109.289 661.071 109.794 661.071 110.382C661.071 111.124 660.879 111.782 660.496 112.357C660.117 112.933 659.565 113.386 658.84 113.719C658.12 114.051 657.249 114.217 656.226 114.217C655.246 114.217 654.398 114.062 653.682 113.751C652.966 113.44 652.406 112.999 652.001 112.428C651.596 111.852 651.372 111.17 651.33 110.382H653.311C653.35 110.855 653.503 111.249 653.771 111.565C654.044 111.876 654.391 112.108 654.813 112.261C655.239 112.411 655.706 112.485 656.213 112.485C656.771 112.485 657.268 112.398 657.703 112.223C658.141 112.044 658.487 111.797 658.738 111.482C658.989 111.162 659.115 110.789 659.115 110.363C659.115 109.975 659.004 109.658 658.783 109.411C658.565 109.163 658.269 108.959 657.894 108.797C657.524 108.635 657.104 108.492 656.635 108.369L655.088 107.947C654.04 107.661 653.209 107.241 652.595 106.688C651.986 106.134 651.681 105.401 651.681 104.489C651.681 103.734 651.886 103.076 652.295 102.513C652.704 101.951 653.258 101.514 653.957 101.203C654.656 100.888 655.444 100.73 656.322 100.73C657.208 100.73 657.99 100.886 658.668 101.197C659.35 101.508 659.886 101.936 660.278 102.482C660.671 103.023 660.875 103.645 660.892 104.348H658.987ZM663.431 114V100.909H671.639V102.609H665.407V106.598H671.21V108.292H665.407V112.3H671.715V114H663.431ZM674.277 114V100.909H676.252V112.3H682.184V114H674.277ZM684.437 114V100.909H686.412V112.3H692.344V114H684.437ZM694.597 114V100.909H702.805V102.609H696.573V106.598H702.377V108.292H696.573V112.3H702.881V114H694.597ZM705.443 114V100.909H710.109C711.123 100.909 711.965 101.084 712.634 101.433C713.307 101.783 713.81 102.266 714.143 102.884C714.475 103.498 714.641 104.207 714.641 105.013C714.641 105.814 714.473 106.519 714.136 107.129C713.804 107.734 713.301 108.205 712.628 108.541C711.959 108.878 711.117 109.046 710.103 109.046H706.568V107.346H709.924C710.563 107.346 711.083 107.254 711.484 107.071C711.888 106.888 712.185 106.621 712.372 106.272C712.56 105.923 712.653 105.503 712.653 105.013C712.653 104.518 712.557 104.09 712.366 103.728C712.178 103.366 711.882 103.089 711.477 102.897C711.077 102.701 710.55 102.603 709.898 102.603H707.418V114H705.443ZM711.905 108.094L715.14 114H712.89L709.719 108.094H711.905ZM724.185 104.348C724.116 103.743 723.835 103.274 723.341 102.942C722.847 102.605 722.224 102.437 721.474 102.437C720.937 102.437 720.473 102.522 720.081 102.692C719.689 102.859 719.384 103.089 719.167 103.383C718.954 103.673 718.847 104.003 718.847 104.374C718.847 104.685 718.92 104.953 719.065 105.179C719.214 105.405 719.408 105.594 719.646 105.748C719.889 105.897 720.149 106.023 720.426 106.125C720.703 106.223 720.969 106.304 721.225 106.368L722.503 106.7C722.921 106.803 723.349 106.941 723.788 107.116C724.227 107.29 724.634 107.521 725.009 107.806C725.384 108.092 725.687 108.445 725.917 108.867C726.151 109.289 726.268 109.794 726.268 110.382C726.268 111.124 726.077 111.782 725.693 112.357C725.314 112.933 724.762 113.386 724.038 113.719C723.317 114.051 722.446 114.217 721.423 114.217C720.443 114.217 719.595 114.062 718.879 113.751C718.163 113.44 717.603 112.999 717.198 112.428C716.793 111.852 716.57 111.17 716.527 110.382H718.508C718.547 110.855 718.7 111.249 718.969 111.565C719.241 111.876 719.589 112.108 720.011 112.261C720.437 112.411 720.903 112.485 721.41 112.485C721.969 112.485 722.465 112.398 722.9 112.223C723.339 112.044 723.684 111.797 723.935 111.482C724.187 111.162 724.312 110.789 724.312 110.363C724.312 109.975 724.202 109.658 723.98 109.411C723.763 109.163 723.467 108.959 723.092 108.797C722.721 108.635 722.301 108.492 721.832 108.369L720.285 107.947C719.237 107.661 718.406 107.241 717.793 106.688C717.183 106.134 716.878 105.401 716.878 104.489C716.878 103.734 717.083 103.076 717.492 102.513C717.901 101.951 718.455 101.514 719.154 101.203C719.853 100.888 720.641 100.73 721.519 100.73C722.405 100.73 723.187 100.886 723.865 101.197C724.547 101.508 725.084 101.936 725.476 102.482C725.868 103.023 726.072 103.645 726.089 104.348H724.185Z" fill="#757B8A"/>
<path d="M856.071 21.9091H858.468L862.636 32.0852H862.789L866.957 21.9091H869.354V35H867.474V25.527H867.353L863.492 34.9808H861.933L858.072 25.5206H857.95V35H856.071V21.9091ZM872.225 35V21.9091H880.433V23.6094H874.2V27.598H880.004V29.2919H874.2V33.2997H880.509V35H872.225ZM887.309 35H883.071V21.9091H887.443C888.726 21.9091 889.827 22.1712 890.748 22.6953C891.668 23.2152 892.374 23.9631 892.864 24.9389C893.358 25.9105 893.605 27.076 893.605 28.4354C893.605 29.799 893.356 30.9709 892.857 31.951C892.363 32.9311 891.647 33.6854 890.71 34.2138C889.772 34.7379 888.638 35 887.309 35ZM885.046 33.2741H887.2C888.197 33.2741 889.026 33.0866 889.687 32.7116C890.347 32.3324 890.842 31.7848 891.17 31.0689C891.498 30.3487 891.662 29.4709 891.662 28.4354C891.662 27.4084 891.498 26.5369 891.17 25.821C890.846 25.1051 890.362 24.5618 889.719 24.1911C889.075 23.8203 888.276 23.6349 887.322 23.6349H885.046V33.2741ZM898.036 21.9091V35H896.061V21.9091H898.036ZM911.786 26.1662H909.791C909.715 25.7401 909.572 25.3651 909.363 25.0412C909.154 24.7173 908.899 24.4425 908.596 24.2166C908.294 23.9908 907.955 23.8203 907.58 23.7053C907.209 23.5902 906.815 23.5327 906.397 23.5327C905.643 23.5327 904.968 23.7223 904.371 24.1016C903.779 24.4808 903.31 25.0369 902.965 25.7699C902.624 26.5028 902.453 27.3977 902.453 28.4545C902.453 29.5199 902.624 30.419 902.965 31.152C903.31 31.8849 903.781 32.4389 904.377 32.8139C904.974 33.1889 905.645 33.3764 906.391 33.3764C906.804 33.3764 907.196 33.321 907.567 33.2102C907.942 33.0952 908.281 32.9268 908.583 32.7053C908.886 32.4837 909.142 32.2131 909.35 31.8935C909.563 31.5696 909.71 31.1989 909.791 30.7812L911.786 30.7876C911.679 31.4311 911.472 32.0234 911.166 32.5646C910.863 33.1016 910.473 33.5661 909.996 33.9581C909.523 34.3459 908.982 34.6463 908.372 34.8594C907.763 35.0724 907.098 35.179 906.378 35.179C905.244 35.179 904.235 34.9105 903.348 34.3736C902.462 33.8324 901.763 33.0589 901.252 32.0533C900.744 31.0476 900.491 29.848 900.491 28.4545C900.491 27.0568 900.747 25.8572 901.258 24.8558C901.769 23.8501 902.468 23.0788 903.355 22.5419C904.241 22.0007 905.249 21.7301 906.378 21.7301C907.073 21.7301 907.72 21.8303 908.321 22.0305C908.926 22.2266 909.47 22.5163 909.951 22.8999C910.433 23.2791 910.831 23.7436 911.146 24.2933C911.462 24.8388 911.675 25.4631 911.786 26.1662ZM915.167 35H913.07L917.781 21.9091H920.063L924.774 35H922.678L918.977 24.2869H918.874L915.167 35ZM915.519 29.8736H922.32V31.5355H915.519V29.8736ZM926.665 35V21.9091H928.64V33.2997H934.572V35H926.665ZM952.461 26.1662H950.467C950.39 25.7401 950.248 25.3651 950.039 25.0412C949.83 24.7173 949.574 24.4425 949.272 24.2166C948.969 23.9908 948.631 23.8203 948.256 23.7053C947.885 23.5902 947.491 23.5327 947.073 23.5327C946.319 23.5327 945.643 23.7223 945.047 24.1016C944.454 24.4808 943.986 25.0369 943.64 25.7699C943.3 26.5028 943.129 27.3977 943.129 28.4545C943.129 29.5199 943.3 30.419 943.64 31.152C943.986 31.8849 944.456 32.4389 945.053 32.8139C945.65 33.1889 946.321 33.3764 947.067 33.3764C947.48 33.3764 947.872 33.321 948.243 33.2102C948.618 33.0952 948.956 32.9268 949.259 32.7053C949.562 32.4837 949.817 32.2131 950.026 31.8935C950.239 31.5696 950.386 31.1989 950.467 30.7812L952.461 30.7876C952.355 31.4311 952.148 32.0234 951.841 32.5646C951.539 33.1016 951.149 33.5661 950.672 33.9581C950.199 34.3459 949.657 34.6463 949.048 34.8594C948.439 35.0724 947.774 35.179 947.054 35.179C945.92 35.179 944.91 34.9105 944.024 34.3736C943.138 33.8324 942.439 33.0589 941.927 32.0533C941.42 31.0476 941.167 29.848 941.167 28.4545C941.167 27.0568 941.422 25.8572 941.934 24.8558C942.445 23.8501 943.144 23.0788 944.03 22.5419C944.917 22.0007 945.925 21.7301 947.054 21.7301C947.748 21.7301 948.396 21.8303 948.997 22.0305C949.602 22.2266 950.145 22.5163 950.627 22.8999C951.108 23.2791 951.507 23.7436 951.822 24.2933C952.138 24.8388 952.351 25.4631 952.461 26.1662ZM966.196 28.4545C966.196 29.8523 965.941 31.054 965.429 32.0597C964.918 33.0611 964.217 33.8324 963.326 34.3736C962.44 34.9105 961.432 35.179 960.303 35.179C959.169 35.179 958.157 34.9105 957.267 34.3736C956.38 33.8324 955.681 33.0589 955.17 32.0533C954.659 31.0476 954.403 29.848 954.403 28.4545C954.403 27.0568 954.659 25.8572 955.17 24.8558C955.681 23.8501 956.38 23.0788 957.267 22.5419C958.157 22.0007 959.169 21.7301 960.303 21.7301C961.432 21.7301 962.44 22.0007 963.326 22.5419C964.217 23.0788 964.918 23.8501 965.429 24.8558C965.941 25.8572 966.196 27.0568 966.196 28.4545ZM964.24 28.4545C964.24 27.3892 964.068 26.4922 963.723 25.7635C963.382 25.0305 962.913 24.4766 962.316 24.1016C961.724 23.7223 961.053 23.5327 960.303 23.5327C959.549 23.5327 958.875 23.7223 958.283 24.1016C957.691 24.4766 957.222 25.0305 956.877 25.7635C956.536 26.4922 956.365 27.3892 956.365 28.4545C956.365 29.5199 956.536 30.419 956.877 31.152C957.222 31.8807 957.691 32.4347 958.283 32.8139C958.875 33.1889 959.549 33.3764 960.303 33.3764C961.053 33.3764 961.724 33.1889 962.316 32.8139C962.913 32.4347 963.382 31.8807 963.723 31.152C964.068 30.419 964.24 29.5199 964.24 28.4545ZM979.225 21.9091V35H977.41L970.756 25.3991H970.634V35H968.659V21.9091H970.487L977.148 31.5227H977.269V21.9091H979.225ZM986.344 35H982.106V21.9091H986.478C987.761 21.9091 988.863 22.1712 989.783 22.6953C990.703 23.2152 991.409 23.9631 991.899 24.9389C992.393 25.9105 992.64 27.076 992.64 28.4354C992.64 29.799 992.391 30.9709 991.892 31.951C991.398 32.9311 990.682 33.6854 989.745 34.2138C988.807 34.7379 987.674 35 986.344 35ZM984.081 33.2741H986.235C987.233 33.2741 988.061 33.0866 988.722 32.7116C989.382 32.3324 989.877 31.7848 990.205 31.0689C990.533 30.3487 990.697 29.4709 990.697 28.4354C990.697 27.4084 990.533 26.5369 990.205 25.821C989.881 25.1051 989.397 24.5618 988.754 24.1911C988.11 23.8203 987.311 23.6349 986.357 23.6349H984.081V33.2741ZM997.072 21.9091V35H995.096V21.9091H997.072ZM999.302 23.6094V21.9091H1009.43V23.6094H1005.35V35H1003.38V23.6094H999.302ZM1013.65 21.9091V35H1011.67V21.9091H1013.65ZM1027.9 28.4545C1027.9 29.8523 1027.64 31.054 1027.13 32.0597C1026.62 33.0611 1025.92 33.8324 1025.03 34.3736C1024.14 34.9105 1023.13 35.179 1022 35.179C1020.87 35.179 1019.86 34.9105 1018.97 34.3736C1018.08 33.8324 1017.38 33.0589 1016.87 32.0533C1016.36 31.0476 1016.1 29.848 1016.1 28.4545C1016.1 27.0568 1016.36 25.8572 1016.87 24.8558C1017.38 23.8501 1018.08 23.0788 1018.97 22.5419C1019.86 22.0007 1020.87 21.7301 1022 21.7301C1023.13 21.7301 1024.14 22.0007 1025.03 22.5419C1025.92 23.0788 1026.62 23.8501 1027.13 24.8558C1027.64 25.8572 1027.9 27.0568 1027.9 28.4545ZM1025.94 28.4545C1025.94 27.3892 1025.77 26.4922 1025.42 25.7635C1025.08 25.0305 1024.61 24.4766 1024.02 24.1016C1023.42 23.7223 1022.75 23.5327 1022 23.5327C1021.25 23.5327 1020.57 23.7223 1019.98 24.1016C1019.39 24.4766 1018.92 25.0305 1018.58 25.7635C1018.24 26.4922 1018.06 27.3892 1018.06 28.4545C1018.06 29.5199 1018.24 30.419 1018.58 31.152C1018.92 31.8807 1019.39 32.4347 1019.98 32.8139C1020.57 33.1889 1021.25 33.3764 1022 33.3764C1022.75 33.3764 1023.42 33.1889 1024.02 32.8139C1024.61 32.4347 1025.08 31.8807 1025.42 31.152C1025.77 30.419 1025.94 29.5199 1025.94 28.4545ZM1040.92 21.9091V35H1039.11L1032.45 25.3991H1032.33V35H1030.36V21.9091H1032.19L1038.85 31.5227H1038.97V21.9091H1040.92Z" fill="#757B8A"/>
<path d="M1091.47 100.455C1091.47 101.852 1091.22 103.054 1090.71 104.06C1090.2 105.061 1089.49 105.832 1088.6 106.374C1087.72 106.911 1086.71 107.179 1085.58 107.179C1084.45 107.179 1083.43 106.911 1082.54 106.374C1081.66 105.832 1080.96 105.059 1080.45 104.053C1079.94 103.048 1079.68 101.848 1079.68 100.455C1079.68 99.0568 1079.94 97.8572 1080.45 96.8558C1080.96 95.8501 1081.66 95.0788 1082.54 94.5419C1083.43 94.0007 1084.45 93.7301 1085.58 93.7301C1086.71 93.7301 1087.72 94.0007 1088.6 94.5419C1089.49 95.0788 1090.2 95.8501 1090.71 96.8558C1091.22 97.8572 1091.47 99.0568 1091.47 100.455ZM1089.52 100.455C1089.52 99.3892 1089.35 98.4922 1089 97.7635C1088.66 97.0305 1088.19 96.4766 1087.59 96.1016C1087 95.7223 1086.33 95.5327 1085.58 95.5327C1084.83 95.5327 1084.15 95.7223 1083.56 96.1016C1082.97 96.4766 1082.5 97.0305 1082.15 97.7635C1081.81 98.4922 1081.64 99.3892 1081.64 100.455C1081.64 101.52 1081.81 102.419 1082.15 103.152C1082.5 103.881 1082.97 104.435 1083.56 104.814C1084.15 105.189 1084.83 105.376 1085.58 105.376C1086.33 105.376 1087 105.189 1087.59 104.814C1088.19 104.435 1088.66 103.881 1089 103.152C1089.35 102.419 1089.52 101.52 1089.52 100.455ZM1102.35 93.9091H1104.34V102.519C1104.34 103.435 1104.12 104.247 1103.69 104.955C1103.26 105.658 1102.66 106.212 1101.88 106.616C1101.1 107.017 1100.18 107.217 1099.13 107.217C1098.09 107.217 1097.18 107.017 1096.4 106.616C1095.62 106.212 1095.01 105.658 1094.58 104.955C1094.15 104.247 1093.94 103.435 1093.94 102.519V93.9091H1095.91V102.359C1095.91 102.952 1096.04 103.478 1096.3 103.938C1096.57 104.398 1096.94 104.761 1097.42 105.025C1097.9 105.285 1098.47 105.415 1099.13 105.415C1099.8 105.415 1100.37 105.285 1100.85 105.025C1101.34 104.761 1101.71 104.398 1101.96 103.938C1102.22 103.478 1102.35 102.952 1102.35 102.359V93.9091ZM1106.56 95.6094V93.9091H1116.69V95.6094H1112.61V107H1110.64V95.6094H1106.56ZM1135.07 100.455C1135.07 101.852 1134.81 103.054 1134.3 104.06C1133.79 105.061 1133.09 105.832 1132.2 106.374C1131.31 106.911 1130.3 107.179 1129.17 107.179C1128.04 107.179 1127.03 106.911 1126.14 106.374C1125.25 105.832 1124.55 105.059 1124.04 104.053C1123.53 103.048 1123.27 101.848 1123.27 100.455C1123.27 99.0568 1123.53 97.8572 1124.04 96.8558C1124.55 95.8501 1125.25 95.0788 1126.14 94.5419C1127.03 94.0007 1128.04 93.7301 1129.17 93.7301C1130.3 93.7301 1131.31 94.0007 1132.2 94.5419C1133.09 95.0788 1133.79 95.8501 1134.3 96.8558C1134.81 97.8572 1135.07 99.0568 1135.07 100.455ZM1133.11 100.455C1133.11 99.3892 1132.94 98.4922 1132.59 97.7635C1132.25 97.0305 1131.78 96.4766 1131.19 96.1016C1130.6 95.7223 1129.92 95.5327 1129.17 95.5327C1128.42 95.5327 1127.75 95.7223 1127.15 96.1016C1126.56 96.4766 1126.09 97.0305 1125.75 97.7635C1125.41 98.4922 1125.24 99.3892 1125.24 100.455C1125.24 101.52 1125.41 102.419 1125.75 103.152C1126.09 103.881 1126.56 104.435 1127.15 104.814C1127.75 105.189 1128.42 105.376 1129.17 105.376C1129.92 105.376 1130.6 105.189 1131.19 104.814C1131.78 104.435 1132.25 103.881 1132.59 103.152C1132.94 102.419 1133.11 101.52 1133.11 100.455ZM1137.53 107V93.9091H1145.65V95.6094H1139.51V99.598H1145.07V101.292H1139.51V107H1137.53ZM1159.98 97.348C1159.91 96.7429 1159.63 96.2741 1159.14 95.9418C1158.64 95.6051 1158.02 95.4368 1157.27 95.4368C1156.73 95.4368 1156.27 95.522 1155.88 95.6925C1155.48 95.8587 1155.18 96.0888 1154.96 96.3828C1154.75 96.6726 1154.64 97.0028 1154.64 97.3736C1154.64 97.6847 1154.72 97.9531 1154.86 98.179C1155.01 98.4048 1155.2 98.5945 1155.44 98.7479C1155.69 98.897 1155.94 99.0227 1156.22 99.125C1156.5 99.223 1156.77 99.304 1157.02 99.3679L1158.3 99.7003C1158.72 99.8026 1159.15 99.9411 1159.58 100.116C1160.02 100.29 1160.43 100.521 1160.81 100.806C1161.18 101.092 1161.48 101.445 1161.71 101.867C1161.95 102.289 1162.06 102.794 1162.06 103.382C1162.06 104.124 1161.87 104.782 1161.49 105.357C1161.11 105.933 1160.56 106.386 1159.83 106.719C1159.11 107.051 1158.24 107.217 1157.22 107.217C1156.24 107.217 1155.39 107.062 1154.68 106.751C1153.96 106.44 1153.4 105.999 1152.99 105.428C1152.59 104.852 1152.37 104.17 1152.32 103.382H1154.3C1154.34 103.855 1154.5 104.249 1154.76 104.565C1155.04 104.876 1155.38 105.108 1155.81 105.261C1156.23 105.411 1156.7 105.485 1157.21 105.485C1157.76 105.485 1158.26 105.398 1158.7 105.223C1159.13 105.044 1159.48 104.797 1159.73 104.482C1159.98 104.162 1160.11 103.789 1160.11 103.363C1160.11 102.975 1160 102.658 1159.78 102.411C1159.56 102.163 1159.26 101.959 1158.89 101.797C1158.52 101.635 1158.1 101.492 1157.63 101.369L1156.08 100.947C1155.03 100.661 1154.2 100.241 1153.59 99.6875C1152.98 99.1335 1152.67 98.4006 1152.67 97.4886C1152.67 96.7344 1152.88 96.076 1153.29 95.5135C1153.7 94.951 1154.25 94.5142 1154.95 94.2031C1155.65 93.8878 1156.44 93.7301 1157.31 93.7301C1158.2 93.7301 1158.98 93.8857 1159.66 94.1967C1160.34 94.5078 1160.88 94.9361 1161.27 95.4815C1161.66 96.0227 1161.87 96.6449 1161.89 97.348H1159.98ZM1163.78 95.6094V93.9091H1173.91V95.6094H1169.83V107H1167.86V95.6094H1163.78ZM1175.71 107H1173.61L1178.32 93.9091H1180.6L1185.32 107H1183.22L1179.52 96.2869H1179.42L1175.71 107ZM1176.06 101.874H1182.86V103.536H1176.06V101.874ZM1185.01 95.6094V93.9091H1195.14V95.6094H1191.06V107H1189.09V95.6094H1185.01ZM1197.38 107V93.9091H1205.59V95.6094H1199.36V99.598H1205.16V101.292H1199.36V105.3H1205.67V107H1197.38ZM1220.13 97.348C1220.06 96.7429 1219.78 96.2741 1219.29 95.9418C1218.79 95.6051 1218.17 95.4368 1217.42 95.4368C1216.89 95.4368 1216.42 95.522 1216.03 95.6925C1215.64 95.8587 1215.33 96.0888 1215.12 96.3828C1214.9 96.6726 1214.8 97.0028 1214.8 97.3736C1214.8 97.6847 1214.87 97.9531 1215.01 98.179C1215.16 98.4048 1215.36 98.5945 1215.59 98.7479C1215.84 98.897 1216.1 99.0227 1216.37 99.125C1216.65 99.223 1216.92 99.304 1217.17 99.3679L1218.45 99.7003C1218.87 99.8026 1219.3 99.9411 1219.74 100.116C1220.18 100.29 1220.58 100.521 1220.96 100.806C1221.33 101.092 1221.63 101.445 1221.87 101.867C1222.1 102.289 1222.22 102.794 1222.22 103.382C1222.22 104.124 1222.02 104.782 1221.64 105.357C1221.26 105.933 1220.71 106.386 1219.99 106.719C1219.27 107.051 1218.39 107.217 1217.37 107.217C1216.39 107.217 1215.54 107.062 1214.83 106.751C1214.11 106.44 1213.55 105.999 1213.15 105.428C1212.74 104.852 1212.52 104.17 1212.48 103.382H1214.46C1214.5 103.855 1214.65 104.249 1214.92 104.565C1215.19 104.876 1215.54 105.108 1215.96 105.261C1216.38 105.411 1216.85 105.485 1217.36 105.485C1217.92 105.485 1218.41 105.398 1218.85 105.223C1219.29 105.044 1219.63 104.797 1219.88 104.482C1220.13 104.162 1220.26 103.789 1220.26 103.363C1220.26 102.975 1220.15 102.658 1219.93 102.411C1219.71 102.163 1219.41 101.959 1219.04 101.797C1218.67 101.635 1218.25 101.492 1217.78 101.369L1216.23 100.947C1215.19 100.661 1214.35 100.241 1213.74 99.6875C1213.13 99.1335 1212.83 98.4006 1212.83 97.4886C1212.83 96.7344 1213.03 96.076 1213.44 95.5135C1213.85 94.951 1214.4 94.5142 1215.1 94.2031C1215.8 93.8878 1216.59 93.7301 1217.47 93.7301C1218.35 93.7301 1219.14 93.8857 1219.81 94.1967C1220.5 94.5078 1221.03 94.9361 1221.42 95.4815C1221.82 96.0227 1222.02 96.6449 1222.04 97.348H1220.13ZM1224.58 107V93.9091H1232.78V95.6094H1226.55V99.598H1232.36V101.292H1226.55V105.3H1232.86V107H1224.58ZM1235.42 107V93.9091H1237.4V105.3H1243.33V107H1235.42ZM1245.58 107V93.9091H1247.56V105.3H1253.49V107H1245.58ZM1255.74 107V93.9091H1263.95V95.6094H1257.72V99.598H1263.52V101.292H1257.72V105.3H1264.03V107H1255.74ZM1266.59 107V93.9091H1271.25C1272.27 93.9091 1273.11 94.0838 1273.78 94.4332C1274.45 94.7827 1274.96 95.2663 1275.29 95.8842C1275.62 96.4979 1275.79 97.2074 1275.79 98.0128C1275.79 98.8139 1275.62 99.5192 1275.28 100.129C1274.95 100.734 1274.45 101.205 1273.77 101.541C1273.1 101.878 1272.26 102.046 1271.25 102.046H1267.71V100.346H1271.07C1271.71 100.346 1272.23 100.254 1272.63 100.071C1273.03 99.8878 1273.33 99.6214 1273.52 99.272C1273.71 98.9226 1273.8 98.5028 1273.8 98.0128C1273.8 97.5185 1273.7 97.0902 1273.51 96.728C1273.32 96.3658 1273.03 96.0888 1272.62 95.897C1272.22 95.701 1271.7 95.603 1271.04 95.603H1268.56V107H1266.59ZM1273.05 101.094L1276.29 107H1274.04L1270.86 101.094H1273.05ZM1285.33 97.348C1285.26 96.7429 1284.98 96.2741 1284.49 95.9418C1283.99 95.6051 1283.37 95.4368 1282.62 95.4368C1282.08 95.4368 1281.62 95.522 1281.23 95.6925C1280.83 95.8587 1280.53 96.0888 1280.31 96.3828C1280.1 96.6726 1279.99 97.0028 1279.99 97.3736C1279.99 97.6847 1280.07 97.9531 1280.21 98.179C1280.36 98.4048 1280.55 98.5945 1280.79 98.7479C1281.03 98.897 1281.29 99.0227 1281.57 99.125C1281.85 99.223 1282.11 99.304 1282.37 99.3679L1283.65 99.7003C1284.07 99.8026 1284.49 99.9411 1284.93 100.116C1285.37 100.29 1285.78 100.521 1286.15 100.806C1286.53 101.092 1286.83 101.445 1287.06 101.867C1287.3 102.289 1287.41 102.794 1287.41 103.382C1287.41 104.124 1287.22 104.782 1286.84 105.357C1286.46 105.933 1285.91 106.386 1285.18 106.719C1284.46 107.051 1283.59 107.217 1282.57 107.217C1281.59 107.217 1280.74 107.062 1280.02 106.751C1279.31 106.44 1278.75 105.999 1278.34 105.428C1277.94 104.852 1277.72 104.17 1277.67 103.382H1279.65C1279.69 103.855 1279.85 104.249 1280.11 104.565C1280.39 104.876 1280.73 105.108 1281.16 105.261C1281.58 105.411 1282.05 105.485 1282.56 105.485C1283.11 105.485 1283.61 105.398 1284.05 105.223C1284.48 105.044 1284.83 104.797 1285.08 104.482C1285.33 104.162 1285.46 103.789 1285.46 103.363C1285.46 102.975 1285.35 102.658 1285.13 102.411C1284.91 102.163 1284.61 101.959 1284.24 101.797C1283.87 101.635 1283.45 101.492 1282.98 101.369L1281.43 100.947C1280.38 100.661 1279.55 100.241 1278.94 99.6875C1278.33 99.1335 1278.02 98.4006 1278.02 97.4886C1278.02 96.7344 1278.23 96.076 1278.64 95.5135C1279.05 94.951 1279.6 94.5142 1280.3 94.2031C1281 93.8878 1281.79 93.7301 1282.66 93.7301C1283.55 93.7301 1284.33 93.8857 1285.01 94.1967C1285.69 94.5078 1286.23 94.9361 1286.62 95.4815C1287.01 96.0227 1287.22 96.6449 1287.23 97.348H1285.33Z" fill="#757B8A"/>
</svg>
