<svg width="674" height="332" viewBox="0 0 674 332" fill="none" xmlns="http://www.w3.org/2000/svg">
<g clip-path="url(#clip0_76_217)">
<g style="mix-blend-mode:multiply">
<path d="M650.64 104.29H406.41C393.973 104.29 383.89 114.373 383.89 126.81V309.18C383.89 321.617 393.973 331.7 406.41 331.7H650.64C663.077 331.7 673.16 321.617 673.16 309.18V126.81C673.16 114.373 663.077 104.29 650.64 104.29Z" fill="#D7DCE2"/>
</g>
<path d="M647.24 98.09H397.27C386.418 98.09 377.62 106.888 377.62 117.74V305.85C377.62 316.702 386.418 325.5 397.27 325.5H647.24C658.092 325.5 666.89 316.702 666.89 305.85V117.74C666.89 106.888 658.092 98.09 647.24 98.09Z" fill="#F5F7FF"/>
<path opacity="0.42" d="M636.5 116.96H407.81C400.47 116.96 394.52 122.91 394.52 130.25V231.16C394.52 238.5 400.47 244.45 407.81 244.45H636.5C643.84 244.45 649.79 238.5 649.79 231.16V130.25C649.79 122.91 643.84 116.96 636.5 116.96Z" fill="#AFBAEF"/>
<path d="M407.82 244.45H636.5C643.84 244.45 649.79 238.5 649.79 231.16V225.47H394.52V231.16C394.52 238.5 400.47 244.45 407.81 244.45H407.82Z" fill="#E27A5D"/>
<path opacity="0.43" d="M472.42 261.81H398.78V268.34H472.42V261.81Z" fill="#AFBAEF"/>
<path opacity="0.28" d="M646.9 279.2H398.78V284.81H646.9V279.2Z" fill="#AFBAEF"/>
<path opacity="0.28" d="M646.9 290.62H398.78V296.23H646.9V290.62Z" fill="#AFBAEF"/>
<path opacity="0.28" d="M646.9 302.04H398.78V307.65H646.9V302.04Z" fill="#AFBAEF"/>
<path d="M616.28 264.4C616.28 266.58 614.51 268.35 612.33 268.35C610.15 268.35 608.38 266.58 608.38 264.4C608.38 262.22 610.15 260.45 612.33 260.45C614.51 260.45 616.28 262.22 616.28 264.4Z" fill="#AFBAEF"/>
<path d="M631.43 264.4C631.43 266.58 629.66 268.35 627.48 268.35C625.3 268.35 623.53 266.58 623.53 264.4C623.53 262.22 625.3 260.45 627.48 260.45C629.66 260.45 631.43 262.22 631.43 264.4Z" fill="#AFBAEF"/>
<path d="M646.58 264.4C646.58 266.58 644.81 268.35 642.63 268.35C640.45 268.35 638.68 266.58 638.68 264.4C638.68 262.22 640.45 260.45 642.63 260.45C644.81 260.45 646.58 262.22 646.58 264.4Z" fill="#AFBAEF"/>
<path d="M514.4 238.66C515.615 238.66 516.6 237.675 516.6 236.46C516.6 235.245 515.615 234.26 514.4 234.26C513.185 234.26 512.2 235.245 512.2 236.46C512.2 237.675 513.185 238.66 514.4 238.66Z" fill="white"/>
<path d="M525.05 236.46C525.05 237.68 524.06 238.66 522.85 238.66C521.64 238.66 520.65 237.67 520.65 236.46C520.65 235.25 521.64 234.26 522.85 234.26C524.06 234.26 525.05 235.25 525.05 236.46Z" fill="white"/>
<path d="M531.29 238.66C532.505 238.66 533.49 237.675 533.49 236.46C533.49 235.245 532.505 234.26 531.29 234.26C530.075 234.26 529.09 235.245 529.09 236.46C529.09 237.675 530.075 238.66 531.29 238.66Z" fill="white"/>
<path d="M627.43 177.81H547.52V226.03H627.43V177.81Z" fill="#C18F85"/>
<path d="M629.23 180.02H547.65V164.93L629.23 176.39V180.02Z" fill="#E27A5D"/>
<path d="M629.23 176.39H547.65V180.02H629.23V176.39Z" fill="#032C3F"/>
<path d="M433.49 226.04H513.4V177.82H433.49V226.04Z" fill="#C18F85"/>
<path d="M431.69 180.02H513.27V164.93L431.69 176.39V180.02Z" fill="#E27A5D"/>
<path d="M431.7 180.01H513.28V176.38H431.7V180.01Z" fill="#032C3F"/>
<path d="M567.47 225.98H491.85V159.25L529.66 147.85L567.47 159.25V225.98Z" fill="#EDA391"/>
<path d="M627.43 222.73H433.63V225.98H627.43V222.73Z" fill="#E27A5D"/>
<path d="M567.34 147.73H491.72V159.11H567.34V147.73Z" fill="#39533E"/>
<path d="M488.07 160.26L529.53 147.73L571.17 160.25L488.07 160.26Z" fill="#C5CDFF"/>
<path d="M488.07 160.26V156.55L502.31 152.38L500.85 156.37L488.07 160.26Z" fill="#39533E"/>
<path d="M571.17 160.25V156.85L564.6 154.43V158.28L571.17 160.25Z" fill="#39533E"/>
<path d="M520.34 147.85L529.85 144.94L539.35 147.85L534.02 149.08L529.53 147.73L522.35 149.9L520.34 147.85Z" fill="#39533E"/>
<path d="M520.9 225.7V200.35C520.9 195.33 524.99 191.24 530.01 191.24C535.03 191.24 539.12 195.33 539.12 200.35V225.7H520.91H520.9Z" fill="#E27A5D"/>
<path d="M530.01 194.02C533.5 194.02 536.34 196.86 536.34 200.35V225.7H523.68V200.35C523.68 196.86 526.52 194.02 530.01 194.02Z" fill="#E27A5D"/>
<path d="M530.87 194.88C532.4 194.88 533.8 195.42 534.9 196.32C533.74 194.91 531.98 194.01 530.01 194.01C526.51 194.01 523.68 196.84 523.68 200.34V225.69H524.54V201.2C524.54 197.7 527.37 194.87 530.87 194.87V194.88Z" fill="#E27A5D"/>
<path d="M512.5 193V170.64H498.86V193H512.5Z" fill="#39533E"/>
<path d="M511.12 172.03H500.26V191.62H511.12V172.03Z" fill="white"/>
<path d="M511.12 173.96L500.26 180.63V172.03H511.12V173.96Z" fill="#E27A5D"/>
<path d="M513.75 190.65H497.62V193.6H513.75V190.65Z" fill="#E6EAFF"/>
<path d="M512.25 176.65H499.78V177.8H512.25V176.65Z" fill="#39533E"/>
<path d="M512.25 189.5H499.78V190.65H512.25V189.5Z" fill="#39533E"/>
<path d="M506.32 171.24H505.06V190.65H506.32V171.24Z" fill="#39533E"/>
<path d="M513.75 192.35H497.62V193.66H513.75V192.35Z" fill="#E27A5D"/>
<path d="M560.64 193.01V170.65H547V193.01H560.64Z" fill="#39533E"/>
<path d="M559.25 172.03H548.39V191.62H559.25V172.03Z" fill="white"/>
<path d="M559.25 173.96L548.39 180.63V172.03H559.25V173.96Z" fill="#E27A5D"/>
<path d="M561.88 190.65H545.75V193.6H561.88V190.65Z" fill="#E6EAFF"/>
<path d="M560.38 176.65H547.91V177.8H560.38V176.65Z" fill="#39533E"/>
<path d="M560.38 189.5H547.91V190.65H560.38V189.5Z" fill="#39533E"/>
<path d="M554.45 171.24H553.19V190.65H554.45V171.24Z" fill="#39533E"/>
<path d="M561.88 192.35H545.75V193.66H561.88V192.35Z" fill="#E27A5D"/>
<path d="M534.13 207.14C534.13 207.76 533.63 208.26 533.01 208.26C532.39 208.26 531.89 207.76 531.89 207.14C531.89 206.52 532.39 206.02 533.01 206.02C533.63 206.02 534.13 206.52 534.13 207.14Z" fill="#E27A5D"/>
<path d="M539.11 222.73H520.9V225.98H539.11V222.73Z" fill="#E6EAFF"/>
<path d="M536.33 219.73H523.67V222.73H536.33V219.73Z" fill="#AEBEFF"/>
<path d="M491.72 155.47L520.76 147.73H491.72V155.47Z" fill="#E27A5D"/>
<path d="M539.35 147.85L567.34 155.44V147.73L539.35 147.85Z" fill="#E27A5D"/>
<path d="M491.85 160.26L529.66 149.33L567.47 160.52V160.88H491.8L491.85 160.26Z" fill="#E27A5D"/>
<path d="M449.9 208.51V193.44H440.81V208.51H449.9Z" fill="#39533E"/>
<path d="M448.77 194.45H441.94V206.49H448.77V194.45Z" fill="white"/>
<path d="M449.44 199.47H441.23V200.06H449.44V199.47Z" fill="#39533E"/>
<path d="M444.46 194.02H443.84V199.93H444.46V194.02Z" fill="#39533E"/>
<path d="M447.08 194.02H446.46V199.93H447.08V194.02Z" fill="#39533E"/>
<path d="M450.95 208.54H439.76V210.37H450.95V208.54Z" fill="#E6EAFF"/>
<path d="M450.95 209.59H439.76V210.4H450.95V209.59Z" fill="#E27A5D"/>
<path d="M466.63 208.51V193.44H457.54V208.51H466.63Z" fill="#39533E"/>
<path d="M465.5 194.45H458.67V206.49H465.5V194.45Z" fill="white"/>
<path d="M466.17 199.47H457.96V200.06H466.17V199.47Z" fill="#39533E"/>
<path d="M461.19 194.02H460.57V199.93H461.19V194.02Z" fill="#39533E"/>
<path d="M463.81 194.02H463.19V199.93H463.81V194.02Z" fill="#39533E"/>
<path d="M467.68 208.54H456.49V210.37H467.68V208.54Z" fill="#E6EAFF"/>
<path d="M467.68 209.59H456.49V210.4H467.68V209.59Z" fill="#E27A5D"/>
<path d="M483.36 208.51V193.44H474.27V208.51H483.36Z" fill="#39533E"/>
<path d="M482.23 194.45H475.4V206.49H482.23V194.45Z" fill="white"/>
<path d="M482.9 199.47H474.69V200.06H482.9V199.47Z" fill="#39533E"/>
<path d="M477.92 194.02H477.3V199.93H477.92V194.02Z" fill="#39533E"/>
<path d="M480.54 194.02H479.92V199.93H480.54V194.02Z" fill="#39533E"/>
<path d="M484.41 208.54H473.22V210.37H484.41V208.54Z" fill="#E6EAFF"/>
<path d="M484.41 209.59H473.22V210.4H484.41V209.59Z" fill="#E27A5D"/>
<path d="M584.78 208.51V193.44H575.69V208.51H584.78Z" fill="#39533E"/>
<path d="M583.65 194.45H576.82V206.49H583.65V194.45Z" fill="white"/>
<path d="M584.31 199.47H576.1V200.06H584.31V199.47Z" fill="#39533E"/>
<path d="M579.34 194.02H578.72V199.93H579.34V194.02Z" fill="#39533E"/>
<path d="M581.96 194.02H581.34V199.93H581.96V194.02Z" fill="#39533E"/>
<path d="M585.83 208.54H574.64V210.37H585.83V208.54Z" fill="#E6EAFF"/>
<path d="M585.83 209.59H574.64V210.4H585.83V209.59Z" fill="#E27A5D"/>
<path d="M601.51 208.51V193.44H592.42V208.51H601.51Z" fill="#39533E"/>
<path d="M600.38 194.45H593.55V206.49H600.38V194.45Z" fill="white"/>
<path d="M601.04 199.47H592.83V200.06H601.04V199.47Z" fill="#39533E"/>
<path d="M596.07 194.02H595.45V199.93H596.07V194.02Z" fill="#39533E"/>
<path d="M598.69 194.02H598.07V199.93H598.69V194.02Z" fill="#39533E"/>
<path d="M602.56 208.54H591.37V210.37H602.56V208.54Z" fill="#E6EAFF"/>
<path d="M602.56 209.59H591.37V210.4H602.56V209.59Z" fill="#E27A5D"/>
<path d="M618.24 208.51V193.44H609.15V208.51H618.24Z" fill="#39533E"/>
<path d="M617.11 194.45H610.28V206.49H617.11V194.45Z" fill="white"/>
<path d="M617.77 199.47H609.56V200.06H617.77V199.47Z" fill="#39533E"/>
<path d="M612.8 194.02H612.18V199.93H612.8V194.02Z" fill="#39533E"/>
<path d="M615.42 194.02H614.8V199.93H615.42V194.02Z" fill="#39533E"/>
<path d="M619.29 208.54H608.1V210.37H619.29V208.54Z" fill="#E6EAFF"/>
<path d="M619.29 209.59H608.1V210.4H619.29V209.59Z" fill="#E27A5D"/>
<g style="mix-blend-mode:multiply">
<path d="M31.62 81.95H166C179.65 81.95 190.73 93.03 190.73 106.68V306.98C190.73 320.63 179.65 331.71 166 331.71H31.62C17.97 331.71 6.89001 320.63 6.89001 306.98V106.68C6.89001 93.03 17.97 81.95 31.62 81.95Z" fill="#D7DCE2"/>
</g>
<path d="M162.26 75.13H21.58C9.6617 75.13 0 84.7917 0 96.71V303.31C0 315.228 9.6617 324.89 21.58 324.89H162.26C174.178 324.89 183.84 315.228 183.84 303.31V96.71C183.84 84.7917 174.178 75.13 162.26 75.13Z" fill="#F5F7FF"/>
<path opacity="0.42" d="M150.47 95.86H33.1699C25.1066 95.86 18.5699 102.397 18.5699 110.46V221.27C18.5699 229.333 25.1066 235.87 33.1699 235.87H150.47C158.533 235.87 165.07 229.333 165.07 221.27V110.46C165.07 102.397 158.533 95.86 150.47 95.86Z" fill="#AFBAEF"/>
<path d="M33.1699 235.87H150.47C158.53 235.87 165.07 229.33 165.07 221.27V215.02H18.5699V221.27C18.5699 229.33 25.1099 235.87 33.1699 235.87Z" fill="#E27A5D"/>
<path opacity="0.43" d="M103.47 253.44H22.6V260.61H103.47V253.44Z" fill="#AFBAEF"/>
<path opacity="0.28" d="M161.25 272.54H22.6V278.7H161.25V272.54Z" fill="#AFBAEF"/>
<path opacity="0.28" d="M161.25 285.08H22.6V291.24H161.25V285.08Z" fill="#AFBAEF"/>
<path opacity="0.28" d="M161.25 297.63H22.6V303.79H161.25V297.63Z" fill="#AFBAEF"/>
<path d="M123.28 260.62C125.677 260.62 127.62 258.677 127.62 256.28C127.62 253.883 125.677 251.94 123.28 251.94C120.883 251.94 118.94 253.883 118.94 256.28C118.94 258.677 120.883 260.62 123.28 260.62Z" fill="#AFBAEF"/>
<path d="M139.91 260.62C142.307 260.62 144.25 258.677 144.25 256.28C144.25 253.883 142.307 251.94 139.91 251.94C137.513 251.94 135.57 253.883 135.57 256.28C135.57 258.677 137.513 260.62 139.91 260.62Z" fill="#AFBAEF"/>
<path d="M156.55 260.62C158.947 260.62 160.89 258.677 160.89 256.28C160.89 253.883 158.947 251.94 156.55 251.94C154.153 251.94 152.21 253.883 152.21 256.28C152.21 258.677 154.153 260.62 156.55 260.62Z" fill="#AFBAEF"/>
<path d="M67.66 104.08H58V122.2H67.66V104.08Z" fill="#E27A5D"/>
<path d="M133.61 116.74H50.35V135.96H133.61V116.74Z" fill="#032C3F"/>
<path d="M133.61 222.7H50.35V135.05L91.5 114.67L133.61 135.05V222.7Z" fill="#EDA391"/>
<path d="M133.61 216.02H50.35V222.7H133.61V216.02Z" fill="#E27A5D"/>
<path d="M109.25 185.38H75.8199V221.55H109.25V185.38Z" fill="white"/>
<path d="M106.73 188.15H78.76V222.7H106.73V188.15Z" fill="#E27A5D"/>
<path d="M106.64 214.49H78.78V218.59H106.64V214.49Z" fill="#AEBEFF"/>
<path d="M104.41 190.37H81.4V195.39H104.41V190.37Z" fill="#39533E"/>
<path d="M104.41 196.84V214.49H81.4V196.84" fill="#E27A5D"/>
<path d="M90.0201 204.2C90.0201 204.74 89.5801 205.18 89.0401 205.18C88.5001 205.18 88.0601 204.74 88.0601 204.2C88.0601 203.66 88.5001 203.22 89.0401 203.22C89.5801 203.22 90.0201 203.66 90.0201 204.2Z" fill="#AEBEFF"/>
<path d="M96.68 204.2C96.68 204.74 96.24 205.18 95.7 205.18C95.16 205.18 94.72 204.74 94.72 204.2C94.72 203.66 95.16 203.22 95.7 203.22C96.24 203.22 96.68 203.66 96.68 204.2Z" fill="#AEBEFF"/>
<path d="M47.09 139.81L47.4 132.9L91.48 111.54L137 132.6L136.42 139.54L91.51 117.8L47.09 139.81Z" fill="#E27A5D"/>
<path d="M93.2401 189.67H91.8101V214.49H93.2401V189.67Z" fill="white"/>
<path d="M62.1901 168.33V154.45C62.1901 149.58 66.1501 145.63 71.0101 145.63C75.8701 145.63 79.8301 149.59 79.8301 154.45V168.33H62.1801H62.1901Z" fill="#E27A5D"/>
<path d="M78 166.49H64.03V154.45C64.03 150.59 67.16 147.47 71.01 147.47C74.87 147.47 77.99 150.6 77.99 154.45V166.49H78Z" fill="white"/>
<path d="M79.1899 158.05V156.15H62.8199V158.05H79.1899Z" fill="#E27A5D"/>
<path d="M71.8499 146.49H69.9399V156.98H71.8499V146.49Z" fill="#E27A5D"/>
<path d="M81.7101 168.33H60.3101V172.25H81.7101V168.33Z" fill="#E6EAFF"/>
<path d="M81.7101 170.59H60.3101V172.33H81.7101V170.59Z" fill="#E27A5D"/>
<path d="M107.2 168.33V154.45C107.2 149.58 111.16 145.63 116.02 145.63C120.88 145.63 124.84 149.59 124.84 154.45V168.33H107.19H107.2Z" fill="#E27A5D"/>
<path d="M123.01 166.49H109.04V154.45C109.04 150.59 112.17 147.47 116.02 147.47C119.88 147.47 123 150.6 123 154.45V166.49H123.01Z" fill="white"/>
<path d="M124.2 158.05V156.15H107.83V158.05H124.2Z" fill="#E27A5D"/>
<path d="M116.86 146.49H114.95V156.98H116.86V146.49Z" fill="#E27A5D"/>
<path d="M126.72 168.33H105.32V172.25H126.72V168.33Z" fill="#E6EAFF"/>
<path d="M126.72 170.59H105.32V172.33H126.72V170.59Z" fill="#E27A5D"/>
<path d="M109.25 217.86H75.21V222.7H109.25V217.86Z" fill="#E6EAFF"/>
<g style="mix-blend-mode:multiply">
<path d="M236.3 6.81H426.03C439.68 6.81 450.76 17.89 450.76 31.54V231.84C450.76 245.49 439.68 256.57 426.03 256.57H236.3C222.65 256.57 211.57 245.49 211.57 231.84V31.54C211.57 17.89 222.65 6.81 236.3 6.81Z" fill="#D7DCE2"/>
</g>
<path d="M422.3 0H226.26C214.342 0 204.68 9.6617 204.68 21.58V228.18C204.68 240.098 214.342 249.76 226.26 249.76H422.3C434.218 249.76 443.88 240.098 443.88 228.18V21.58C443.88 9.6617 434.218 0 422.3 0Z" fill="white"/>
<path opacity="0.42" d="M410.51 20.73H237.85C229.787 20.73 223.25 27.2667 223.25 35.33V146.14C223.25 154.203 229.787 160.74 237.85 160.74H410.51C418.573 160.74 425.11 154.203 425.11 146.14V35.33C425.11 27.2667 418.573 20.73 410.51 20.73Z" fill="#AFBAEF"/>
<path d="M237.85 160.74H410.51C418.57 160.74 425.11 154.2 425.11 146.14V139.89H223.25V146.14C223.25 154.2 229.79 160.74 237.85 160.74Z" fill="#E27A5D"/>
<path d="M404.94 134.15C404.94 134.15 404.92 134.15 404.91 134.15C404.61 131.45 402.32 129.35 399.54 129.35C398.3 129.35 397.16 129.77 396.25 130.47C396.28 130.19 396.3 129.91 396.3 129.63C396.3 128.3 395.95 127.04 395.34 125.96C395.64 125.06 395.8 124.09 395.8 123.09C395.8 118.05 391.71 113.96 386.67 113.96C381.63 113.96 377.54 118.05 377.54 123.09C373.4 123.09 370.05 126.44 370.05 130.58C370.05 131.15 370.11 131.7 370.23 132.23C370.17 132.23 370.11 132.23 370.05 132.23C368.09 132.23 366.37 133.27 365.43 134.84C365.14 134.79 364.84 134.76 364.53 134.76C361.55 134.76 359.13 137.18 359.13 140.16H410.31C410.33 139.96 410.34 139.76 410.34 139.56C410.34 136.58 407.92 134.16 404.94 134.16V134.15Z" fill="#E27A5D"/>
<path d="M244.22 132.66C244.22 132.66 244.24 132.66 244.26 132.66C244.59 129.67 247.12 127.35 250.19 127.35C251.56 127.35 252.82 127.81 253.83 128.59C253.8 128.28 253.78 127.98 253.78 127.66C253.78 126.19 254.17 124.8 254.84 123.6C254.51 122.6 254.33 121.54 254.33 120.43C254.33 114.86 258.85 110.34 264.42 110.34C269.99 110.34 274.51 114.86 274.51 120.43C279.08 120.43 282.79 124.14 282.79 128.71C282.79 129.34 282.72 129.94 282.59 130.53C282.66 130.53 282.72 130.53 282.79 130.53C284.96 130.53 286.85 131.68 287.9 133.41C288.22 133.36 288.55 133.33 288.89 133.33C292.19 133.33 294.86 136 294.86 139.3H238.29C238.27 139.08 238.25 138.86 238.25 138.64C238.25 135.34 240.92 132.67 244.22 132.67V132.66Z" fill="#E27A5D"/>
<path d="M391.24 70.78H264.66V139.86H391.24V70.78Z" fill="#C18F85"/>
<path d="M391.24 132.65H264.57V139.78H391.24V132.65Z" fill="#E27A5D"/>
<path d="M308.23 28.87H296.94V53.77H308.23V28.87Z" fill="#E27A5D"/>
<path d="M398.29 71.08H257.69L265.26 58.33H390.73L398.29 71.08Z" fill="#E27A5D"/>
<path d="M372.38 46.34H283.53V139.86H372.38V46.34Z" fill="#EDA391"/>
<path d="M379.94 59.08H275.96L283.53 46.34H372.37L379.94 59.08Z" fill="#032C3F"/>
<path d="M309.83 95.91V72H296.94V95.91H309.83Z" fill="#E27A5D"/>
<path d="M308.23 73.6H298.54V92.7H308.23V73.6Z" fill="white"/>
<path d="M309.17 81.55H297.53V82.48H309.17V81.55Z" fill="#E27A5D"/>
<path d="M302.12 72.91H301.24V82.28H302.12V72.91Z" fill="#E27A5D"/>
<path d="M305.83 72.91H304.95V82.28H305.83V72.91Z" fill="#E27A5D"/>
<path d="M311.32 95.94H295.46V98.84H311.32V95.94Z" fill="#E6EAFF"/>
<path d="M311.32 97.62H295.46V98.91H311.32V97.62Z" fill="#E27A5D"/>
<path d="M357.74 95.91V72H344.85V95.91H357.74Z" fill="#E27A5D"/>
<path d="M356.14 73.6H346.45V92.7H356.14V73.6Z" fill="white"/>
<path d="M357.08 81.55H345.44V82.48H357.08V81.55Z" fill="#E27A5D"/>
<path d="M350.03 72.91H349.15V82.28H350.03V72.91Z" fill="#E27A5D"/>
<path d="M353.74 72.91H352.86V82.28H353.74V72.91Z" fill="#E27A5D"/>
<path d="M359.23 95.94H343.37V98.84H359.23V95.94Z" fill="#E6EAFF"/>
<path d="M359.23 97.62H343.37V98.91H359.23V97.62Z" fill="#E27A5D"/>
<path d="M359.86 67.6H294.09V71.99H359.86V67.6Z" fill="#E6EAFF"/>
<path d="M320.4 96.02V77.94C320.4 74.06 323.56 70.9 327.44 70.9C331.32 70.9 334.48 74.06 334.48 77.94V96.02H320.41H320.4Z" fill="#E27A5D"/>
<path d="M333 94.55H321.86V77.94C321.86 74.86 324.35 72.37 327.43 72.37C330.51 72.37 333 74.86 333 77.94V94.55Z" fill="white"/>
<path d="M333.96 80.41V79.3H320.91V80.41H333.96Z" fill="#E27A5D"/>
<path d="M328.1 71.59H327.02V79.95H328.1V71.59Z" fill="#E27A5D"/>
<path d="M335.27 95.94H319.41V98.84H335.27V95.94Z" fill="#E6EAFF"/>
<path d="M335.27 97.62H319.41V98.91H335.27V97.62Z" fill="#E27A5D"/>
<path d="M321.54 75.78H333.01C333.01 75.78 332.3 71.78 328.1 71.6C323.9 71.42 321.54 75.78 321.54 75.78Z" fill="#E27A5D"/>
<path d="M372.38 132.73H283.53V139.86H372.38V132.73Z" fill="#E27A5D"/>
<path d="M337.35 107.6H317.14V139.86H337.35V107.6Z" fill="#39533E"/>
<path d="M335.27 109.85H319.41V139.86H335.27V109.85Z" fill="#E27A5D"/>
<path d="M339.65 136.3H315.03V139.86H339.65V136.3Z" fill="#E6EAFF"/>
<path d="M335.22 132.73H319.42V136.29H335.22V132.73Z" fill="#AEBEFF"/>
<path d="M333.96 111.78H320.91V116.14H333.96V111.78Z" fill="#E27A5D"/>
<path d="M333.96 117.39H320.91V131.39H333.96V117.39Z" fill="#E27A5D"/>
<path d="M331.7 122.61C332.424 122.61 333.01 122.023 333.01 121.3C333.01 120.577 332.424 119.99 331.7 119.99C330.977 119.99 330.39 120.577 330.39 121.3C330.39 122.023 330.977 122.61 331.7 122.61Z" fill="#E6EAFF"/>
<path d="M278.86 109.74V93.55H270.13V109.74H278.86Z" fill="#39533E"/>
<path d="M277.78 94.63H271.22V107.56H277.78V94.63Z" fill="white"/>
<path d="M278.41 100.02H270.53V100.65H278.41V100.02Z" fill="#39533E"/>
<path d="M273.64 94.17H273.04V100.51H273.64V94.17Z" fill="#39533E"/>
<path d="M276.15 94.17H275.55V100.51H276.15V94.17Z" fill="#39533E"/>
<path d="M279.86 109.77H269.12V111.74H279.86V109.77Z" fill="#E6EAFF"/>
<path d="M279.86 110.9H269.12V111.77H279.86V110.9Z" fill="#E27A5D"/>
<path d="M386.3 109.74V93.55H377.57V109.74H386.3Z" fill="#39533E"/>
<path d="M385.21 94.63H378.65V107.56H385.21V94.63Z" fill="white"/>
<path d="M385.84 100.02H377.96V100.65H385.84V100.02Z" fill="#39533E"/>
<path d="M381.07 94.17H380.47V100.51H381.07V94.17Z" fill="#39533E"/>
<path d="M383.59 94.17H382.99V100.51H383.59V94.17Z" fill="#39533E"/>
<path d="M387.3 109.77H376.56V111.74H387.3V109.77Z" fill="#E6EAFF"/>
<path d="M387.3 110.9H376.56V111.77H387.3V110.9Z" fill="#E27A5D"/>
<path d="M239 136.06C240.57 136.06 242.03 136.51 243.26 137.29C244.64 133.89 247.97 131.49 251.87 131.49C253.57 131.49 255.16 131.95 256.53 132.74C258.02 126.6 263.54 122.05 270.14 122.05C277.25 122.05 283.12 127.35 284.02 134.21C284.39 134.16 284.77 134.13 285.15 134.13C288.77 134.13 291.82 136.54 292.79 139.84H232.23C233.63 137.57 236.14 136.06 239.01 136.06H239Z" fill="#39533E"/>
<path d="M408.19 137.22C406.81 137.22 405.52 137.62 404.43 138.31C403.21 135.31 400.27 133.19 396.83 133.19C395.33 133.19 393.92 133.59 392.71 134.3C391.4 128.88 386.51 124.85 380.69 124.85C374.41 124.85 369.22 129.53 368.43 135.59C368.1 135.54 367.77 135.52 367.43 135.52C364.24 135.52 361.54 137.65 360.68 140.56H414.19C412.95 138.55 410.73 137.22 408.2 137.22H408.19Z" fill="#39533E"/>
<path opacity="0.43" d="M308.79 179.81H227.92V186.98H308.79V179.81Z" fill="#AFBAEF"/>
<path opacity="0.28" d="M421.93 198.9H227.92V205.06H421.93V198.9Z" fill="#AFBAEF"/>
<path opacity="0.28" d="M421.93 211.45H227.92V217.61H421.93V211.45Z" fill="#AFBAEF"/>
<path opacity="0.28" d="M421.93 223.99H227.92V230.15H421.93V223.99Z" fill="#AFBAEF"/>
<path d="M383.96 186.99C386.357 186.99 388.3 185.047 388.3 182.65C388.3 180.253 386.357 178.31 383.96 178.31C381.563 178.31 379.62 180.253 379.62 182.65C379.62 185.047 381.563 186.99 383.96 186.99Z" fill="#AFBAEF"/>
<path d="M400.6 186.99C402.997 186.99 404.94 185.047 404.94 182.65C404.94 180.253 402.997 178.31 400.6 178.31C398.203 178.31 396.26 180.253 396.26 182.65C396.26 185.047 398.203 186.99 400.6 186.99Z" fill="#AFBAEF"/>
<path d="M417.23 186.99C419.627 186.99 421.57 185.047 421.57 182.65C421.57 180.253 419.627 178.31 417.23 178.31C414.833 178.31 412.89 180.253 412.89 182.65C412.89 185.047 414.833 186.99 417.23 186.99Z" fill="#AFBAEF"/>
<path d="M319.97 151.96C319.97 153.3 318.89 154.38 317.55 154.38C316.21 154.38 315.13 153.3 315.13 151.96C315.13 150.62 316.21 149.54 317.55 149.54C318.89 149.54 319.97 150.62 319.97 151.96Z" fill="white"/>
<path d="M329.25 151.96C329.25 153.3 328.17 154.38 326.83 154.38C325.49 154.38 324.41 153.3 324.41 151.96C324.41 150.62 325.49 149.54 326.83 149.54C328.17 149.54 329.25 150.62 329.25 151.96Z" fill="white"/>
<path d="M338.53 151.96C338.53 153.3 337.45 154.38 336.11 154.38C334.77 154.38 333.69 153.3 333.69 151.96C333.69 150.62 334.77 149.54 336.11 149.54C337.45 149.54 338.53 150.62 338.53 151.96Z" fill="white"/>
<g filter="url(#filter0_d_76_217)">
<rect x="121" y="59" width="84" height="43" rx="10" fill="#D6D9DF"/>
</g>
<g filter="url(#filter1_d_76_217)">
<rect x="238" y="233" width="84" height="43" rx="10" fill="#D6D9DF"/>
</g>
<g filter="url(#filter2_d_76_217)">
<rect x="575" y="90" width="84" height="43" rx="10" fill="#D6D9DF"/>
</g>
<path d="M134.448 85V75.582L132.493 76.041V74.375L135.366 73.1H136.709V85H134.448ZM143.895 85.204C142.796 85.204 141.855 84.949 141.073 84.439C140.291 83.9177 139.685 83.198 139.254 82.28C138.835 81.3507 138.625 80.274 138.625 79.05C138.625 77.8373 138.835 76.7663 139.254 75.837C139.685 74.9077 140.291 74.188 141.073 73.678C141.855 73.1567 142.796 72.896 143.895 72.896C144.995 72.896 145.935 73.1567 146.717 73.678C147.499 74.188 148.1 74.9077 148.519 75.837C148.95 76.7663 149.165 77.8373 149.165 79.05C149.165 80.274 148.95 81.3507 148.519 82.28C148.1 83.198 147.499 83.9177 146.717 84.439C145.935 84.949 144.995 85.204 143.895 85.204ZM143.895 83.249C144.791 83.249 145.522 82.875 146.088 82.127C146.655 81.379 146.938 80.3533 146.938 79.05C146.938 77.7467 146.655 76.721 146.088 75.973C145.522 75.225 144.791 74.851 143.895 74.851C142.989 74.851 142.252 75.225 141.685 75.973C141.13 76.721 140.852 77.7467 140.852 79.05C140.852 80.3533 141.13 81.379 141.685 82.127C142.252 82.875 142.989 83.249 143.895 83.249ZM155.965 85.204C154.865 85.204 153.925 84.949 153.143 84.439C152.361 83.9177 151.754 83.198 151.324 82.28C150.904 81.3507 150.695 80.274 150.695 79.05C150.695 77.8373 150.904 76.7663 151.324 75.837C151.754 74.9077 152.361 74.188 153.143 73.678C153.925 73.1567 154.865 72.896 155.965 72.896C157.064 72.896 158.005 73.1567 158.787 73.678C159.569 74.188 160.169 74.9077 160.589 75.837C161.019 76.7663 161.235 77.8373 161.235 79.05C161.235 80.274 161.019 81.3507 160.589 82.28C160.169 83.198 159.569 83.9177 158.787 84.439C158.005 84.949 157.064 85.204 155.965 85.204ZM155.965 83.249C156.86 83.249 157.591 82.875 158.158 82.127C158.724 81.379 159.008 80.3533 159.008 79.05C159.008 77.7467 158.724 76.721 158.158 75.973C157.591 75.225 156.86 74.851 155.965 74.851C155.058 74.851 154.321 75.225 153.755 75.973C153.199 76.721 152.922 77.7467 152.922 79.05C152.922 80.3533 153.199 81.379 153.755 82.127C154.321 82.875 155.058 83.249 155.965 83.249ZM167.155 88.74V76.568H169.093L169.331 77.775C169.603 77.401 169.96 77.0723 170.402 76.789C170.855 76.5057 171.439 76.364 172.153 76.364C172.946 76.364 173.654 76.5567 174.278 76.942C174.901 77.3273 175.394 77.8543 175.757 78.523C176.119 79.1917 176.301 79.951 176.301 80.801C176.301 81.651 176.119 82.4103 175.757 83.079C175.394 83.7363 174.901 84.2577 174.278 84.643C173.654 85.017 172.946 85.204 172.153 85.204C171.518 85.204 170.963 85.085 170.487 84.847C170.011 84.609 169.625 84.2747 169.331 83.844V88.74H167.155ZM171.694 83.3C172.385 83.3 172.957 83.0677 173.411 82.603C173.864 82.1383 174.091 81.5377 174.091 80.801C174.091 80.0643 173.864 79.458 173.411 78.982C172.957 78.506 172.385 78.268 171.694 78.268C170.991 78.268 170.413 78.506 169.96 78.982C169.518 79.4467 169.297 80.0473 169.297 80.784C169.297 81.5207 169.518 82.127 169.96 82.603C170.413 83.0677 170.991 83.3 171.694 83.3ZM181.67 85C180.786 85 180.077 84.7847 179.545 84.354C179.012 83.9233 178.746 83.1583 178.746 82.059V78.387H177.301V76.568H178.746L179.001 74.307H180.922V76.568H183.2V78.387H180.922V82.076C180.922 82.484 181.007 82.7673 181.177 82.926C181.358 83.0733 181.664 83.147 182.095 83.147H183.149V85H181.67ZM188.553 85.204C187.805 85.204 187.148 85.085 186.581 84.847C186.014 84.5977 185.561 84.2577 185.221 83.827C184.881 83.3963 184.677 82.8977 184.609 82.331H186.802C186.87 82.6597 187.051 82.943 187.346 83.181C187.652 83.4077 188.043 83.521 188.519 83.521C188.995 83.521 189.341 83.4247 189.556 83.232C189.783 83.0393 189.896 82.8183 189.896 82.569C189.896 82.2063 189.737 81.9627 189.42 81.838C189.103 81.702 188.661 81.5717 188.094 81.447C187.731 81.3677 187.363 81.2713 186.989 81.158C186.615 81.0447 186.269 80.903 185.952 80.733C185.646 80.5517 185.397 80.325 185.204 80.053C185.011 79.7697 184.915 79.424 184.915 79.016C184.915 78.268 185.21 77.639 185.799 77.129C186.4 76.619 187.238 76.364 188.315 76.364C189.312 76.364 190.106 76.5963 190.695 77.061C191.296 77.5257 191.653 78.166 191.766 78.982H189.709C189.584 78.3587 189.114 78.047 188.298 78.047C187.89 78.047 187.573 78.1263 187.346 78.285C187.131 78.4437 187.023 78.642 187.023 78.88C187.023 79.1293 187.187 79.3277 187.516 79.475C187.845 79.6223 188.281 79.7583 188.825 79.883C189.414 80.019 189.953 80.172 190.44 80.342C190.939 80.5007 191.335 80.7443 191.63 81.073C191.925 81.3903 192.072 81.8493 192.072 82.45C192.083 82.9713 191.947 83.4417 191.664 83.861C191.381 84.2803 190.973 84.609 190.44 84.847C189.907 85.085 189.278 85.204 188.553 85.204Z" fill="#032C3F"/>
<path d="M256.836 260L261.324 249.953H255.459V248.1H263.568V249.647L259.097 260H256.836ZM270 260.204C268.901 260.204 267.96 259.949 267.178 259.439C266.396 258.918 265.79 258.198 265.359 257.28C264.94 256.351 264.73 255.274 264.73 254.05C264.73 252.837 264.94 251.766 265.359 250.837C265.79 249.908 266.396 249.188 267.178 248.678C267.96 248.157 268.901 247.896 270 247.896C271.099 247.896 272.04 248.157 272.822 248.678C273.604 249.188 274.205 249.908 274.624 250.837C275.055 251.766 275.27 252.837 275.27 254.05C275.27 255.274 275.055 256.351 274.624 257.28C274.205 258.198 273.604 258.918 272.822 259.439C272.04 259.949 271.099 260.204 270 260.204ZM270 258.249C270.895 258.249 271.626 257.875 272.193 257.127C272.76 256.379 273.043 255.353 273.043 254.05C273.043 252.747 272.76 251.721 272.193 250.973C271.626 250.225 270.895 249.851 270 249.851C269.093 249.851 268.357 250.225 267.79 250.973C267.235 251.721 266.957 252.747 266.957 254.05C266.957 255.353 267.235 256.379 267.79 257.127C268.357 257.875 269.093 258.249 270 258.249ZM281.19 263.74V251.568H283.128L283.366 252.775C283.638 252.401 283.995 252.072 284.437 251.789C284.89 251.506 285.474 251.364 286.188 251.364C286.981 251.364 287.69 251.557 288.313 251.942C288.936 252.327 289.429 252.854 289.792 253.523C290.155 254.192 290.336 254.951 290.336 255.801C290.336 256.651 290.155 257.41 289.792 258.079C289.429 258.736 288.936 259.258 288.313 259.643C287.69 260.017 286.981 260.204 286.188 260.204C285.553 260.204 284.998 260.085 284.522 259.847C284.046 259.609 283.661 259.275 283.366 258.844V263.74H281.19ZM285.729 258.3C286.42 258.3 286.993 258.068 287.446 257.603C287.899 257.138 288.126 256.538 288.126 255.801C288.126 255.064 287.899 254.458 287.446 253.982C286.993 253.506 286.42 253.268 285.729 253.268C285.026 253.268 284.448 253.506 283.995 253.982C283.553 254.447 283.332 255.047 283.332 255.784C283.332 256.521 283.553 257.127 283.995 257.603C284.448 258.068 285.026 258.3 285.729 258.3ZM295.705 260C294.821 260 294.112 259.785 293.58 259.354C293.047 258.923 292.781 258.158 292.781 257.059V253.387H291.336V251.568H292.781L293.036 249.307H294.957V251.568H297.235V253.387H294.957V257.076C294.957 257.484 295.042 257.767 295.212 257.926C295.393 258.073 295.699 258.147 296.13 258.147H297.184V260H295.705ZM302.588 260.204C301.84 260.204 301.183 260.085 300.616 259.847C300.049 259.598 299.596 259.258 299.256 258.827C298.916 258.396 298.712 257.898 298.644 257.331H300.837C300.905 257.66 301.086 257.943 301.381 258.181C301.687 258.408 302.078 258.521 302.554 258.521C303.03 258.521 303.376 258.425 303.591 258.232C303.818 258.039 303.931 257.818 303.931 257.569C303.931 257.206 303.772 256.963 303.455 256.838C303.138 256.702 302.696 256.572 302.129 256.447C301.766 256.368 301.398 256.271 301.024 256.158C300.65 256.045 300.304 255.903 299.987 255.733C299.681 255.552 299.432 255.325 299.239 255.053C299.046 254.77 298.95 254.424 298.95 254.016C298.95 253.268 299.245 252.639 299.834 252.129C300.435 251.619 301.273 251.364 302.35 251.364C303.347 251.364 304.141 251.596 304.73 252.061C305.331 252.526 305.688 253.166 305.801 253.982H303.744C303.619 253.359 303.149 253.047 302.333 253.047C301.925 253.047 301.608 253.126 301.381 253.285C301.166 253.444 301.058 253.642 301.058 253.88C301.058 254.129 301.222 254.328 301.551 254.475C301.88 254.622 302.316 254.758 302.86 254.883C303.449 255.019 303.988 255.172 304.475 255.342C304.974 255.501 305.37 255.744 305.665 256.073C305.96 256.39 306.107 256.849 306.107 257.45C306.118 257.971 305.982 258.442 305.699 258.861C305.416 259.28 305.008 259.609 304.475 259.847C303.942 260.085 303.313 260.204 302.588 260.204Z" fill="#032C3F"/>
<path d="M591.867 117V115.419C592.592 114.818 593.295 114.223 593.975 113.634C594.666 113.045 595.278 112.461 595.811 111.883C596.355 111.305 596.786 110.744 597.103 110.2C597.432 109.645 597.596 109.106 597.596 108.585C597.596 108.098 597.46 107.667 597.188 107.293C596.927 106.919 596.491 106.732 595.879 106.732C595.256 106.732 594.785 106.936 594.468 107.344C594.151 107.752 593.992 108.245 593.992 108.823H591.884C591.907 107.95 592.099 107.225 592.462 106.647C592.825 106.058 593.306 105.621 593.907 105.338C594.508 105.043 595.182 104.896 595.93 104.896C597.143 104.896 598.083 105.23 598.752 105.899C599.432 106.556 599.772 107.412 599.772 108.466C599.772 109.123 599.619 109.764 599.313 110.387C599.018 111.01 598.627 111.611 598.14 112.189C597.653 112.767 597.126 113.311 596.559 113.821C595.992 114.32 595.443 114.784 594.91 115.215H600.061V117H591.867ZM606.664 117.204C605.565 117.204 604.624 116.949 603.842 116.439C603.06 115.918 602.454 115.198 602.023 114.28C601.604 113.351 601.394 112.274 601.394 111.05C601.394 109.837 601.604 108.766 602.023 107.837C602.454 106.908 603.06 106.188 603.842 105.678C604.624 105.157 605.565 104.896 606.664 104.896C607.763 104.896 608.704 105.157 609.486 105.678C610.268 106.188 610.869 106.908 611.288 107.837C611.719 108.766 611.934 109.837 611.934 111.05C611.934 112.274 611.719 113.351 611.288 114.28C610.869 115.198 610.268 115.918 609.486 116.439C608.704 116.949 607.763 117.204 606.664 117.204ZM606.664 115.249C607.559 115.249 608.29 114.875 608.857 114.127C609.424 113.379 609.707 112.353 609.707 111.05C609.707 109.747 609.424 108.721 608.857 107.973C608.29 107.225 607.559 106.851 606.664 106.851C605.757 106.851 605.021 107.225 604.454 107.973C603.899 108.721 603.621 109.747 603.621 111.05C603.621 112.353 603.899 113.379 604.454 114.127C605.021 114.875 605.757 115.249 606.664 115.249ZM617.854 120.74V108.568H619.792L620.03 109.775C620.302 109.401 620.659 109.072 621.101 108.789C621.554 108.506 622.138 108.364 622.852 108.364C623.645 108.364 624.354 108.557 624.977 108.942C625.6 109.327 626.093 109.854 626.456 110.523C626.819 111.192 627 111.951 627 112.801C627 113.651 626.819 114.41 626.456 115.079C626.093 115.736 625.6 116.258 624.977 116.643C624.354 117.017 623.645 117.204 622.852 117.204C622.217 117.204 621.662 117.085 621.186 116.847C620.71 116.609 620.325 116.275 620.03 115.844V120.74H617.854ZM622.393 115.3C623.084 115.3 623.657 115.068 624.11 114.603C624.563 114.138 624.79 113.538 624.79 112.801C624.79 112.064 624.563 111.458 624.11 110.982C623.657 110.506 623.084 110.268 622.393 110.268C621.69 110.268 621.112 110.506 620.659 110.982C620.217 111.447 619.996 112.047 619.996 112.784C619.996 113.521 620.217 114.127 620.659 114.603C621.112 115.068 621.69 115.3 622.393 115.3ZM632.369 117C631.485 117 630.777 116.785 630.244 116.354C629.711 115.923 629.445 115.158 629.445 114.059V110.387H628V108.568H629.445L629.7 106.307H631.621V108.568H633.899V110.387H631.621V114.076C631.621 114.484 631.706 114.767 631.876 114.926C632.057 115.073 632.363 115.147 632.794 115.147H633.848V117H632.369ZM639.252 117.204C638.504 117.204 637.847 117.085 637.28 116.847C636.713 116.598 636.26 116.258 635.92 115.827C635.58 115.396 635.376 114.898 635.308 114.331H637.501C637.569 114.66 637.75 114.943 638.045 115.181C638.351 115.408 638.742 115.521 639.218 115.521C639.694 115.521 640.04 115.425 640.255 115.232C640.482 115.039 640.595 114.818 640.595 114.569C640.595 114.206 640.436 113.963 640.119 113.838C639.802 113.702 639.36 113.572 638.793 113.447C638.43 113.368 638.062 113.271 637.688 113.158C637.314 113.045 636.968 112.903 636.651 112.733C636.345 112.552 636.096 112.325 635.903 112.053C635.71 111.77 635.614 111.424 635.614 111.016C635.614 110.268 635.909 109.639 636.498 109.129C637.099 108.619 637.937 108.364 639.014 108.364C640.011 108.364 640.805 108.596 641.394 109.061C641.995 109.526 642.352 110.166 642.465 110.982H640.408C640.283 110.359 639.813 110.047 638.997 110.047C638.589 110.047 638.272 110.126 638.045 110.285C637.83 110.444 637.722 110.642 637.722 110.88C637.722 111.129 637.886 111.328 638.215 111.475C638.544 111.622 638.98 111.758 639.524 111.883C640.113 112.019 640.652 112.172 641.139 112.342C641.638 112.501 642.034 112.744 642.329 113.073C642.624 113.39 642.771 113.849 642.771 114.45C642.782 114.971 642.646 115.442 642.363 115.861C642.08 116.28 641.672 116.609 641.139 116.847C640.606 117.085 639.977 117.204 639.252 117.204Z" fill="#032C3F"/>
</g>
<defs>
<filter id="filter0_d_76_217" x="117" y="59" width="92" height="51" filterUnits="userSpaceOnUse" color-interpolation-filters="sRGB">
<feFlood flood-opacity="0" result="BackgroundImageFix"/>
<feColorMatrix in="SourceAlpha" type="matrix" values="0 0 0 0 0 0 0 0 0 0 0 0 0 0 0 0 0 0 127 0" result="hardAlpha"/>
<feOffset dy="4"/>
<feGaussianBlur stdDeviation="2"/>
<feComposite in2="hardAlpha" operator="out"/>
<feColorMatrix type="matrix" values="0 0 0 0 0 0 0 0 0 0 0 0 0 0 0 0 0 0 0.25 0"/>
<feBlend mode="normal" in2="BackgroundImageFix" result="effect1_dropShadow_76_217"/>
<feBlend mode="normal" in="SourceGraphic" in2="effect1_dropShadow_76_217" result="shape"/>
</filter>
<filter id="filter1_d_76_217" x="234" y="233" width="92" height="51" filterUnits="userSpaceOnUse" color-interpolation-filters="sRGB">
<feFlood flood-opacity="0" result="BackgroundImageFix"/>
<feColorMatrix in="SourceAlpha" type="matrix" values="0 0 0 0 0 0 0 0 0 0 0 0 0 0 0 0 0 0 127 0" result="hardAlpha"/>
<feOffset dy="4"/>
<feGaussianBlur stdDeviation="2"/>
<feComposite in2="hardAlpha" operator="out"/>
<feColorMatrix type="matrix" values="0 0 0 0 0 0 0 0 0 0 0 0 0 0 0 0 0 0 0.25 0"/>
<feBlend mode="normal" in2="BackgroundImageFix" result="effect1_dropShadow_76_217"/>
<feBlend mode="normal" in="SourceGraphic" in2="effect1_dropShadow_76_217" result="shape"/>
</filter>
<filter id="filter2_d_76_217" x="571" y="90" width="92" height="51" filterUnits="userSpaceOnUse" color-interpolation-filters="sRGB">
<feFlood flood-opacity="0" result="BackgroundImageFix"/>
<feColorMatrix in="SourceAlpha" type="matrix" values="0 0 0 0 0 0 0 0 0 0 0 0 0 0 0 0 0 0 127 0" result="hardAlpha"/>
<feOffset dy="4"/>
<feGaussianBlur stdDeviation="2"/>
<feComposite in2="hardAlpha" operator="out"/>
<feColorMatrix type="matrix" values="0 0 0 0 0 0 0 0 0 0 0 0 0 0 0 0 0 0 0.25 0"/>
<feBlend mode="normal" in2="BackgroundImageFix" result="effect1_dropShadow_76_217"/>
<feBlend mode="normal" in="SourceGraphic" in2="effect1_dropShadow_76_217" result="shape"/>
</filter>
<clipPath id="clip0_76_217">
<rect width="673.16" height="331.71" fill="white"/>
</clipPath>
</defs>
</svg>
