<svg width="852" height="39" viewBox="0 0 852 39" fill="none" xmlns="http://www.w3.org/2000/svg">
<path d="M8.8 17.6H17.6C21.55 17.6 24.8 14.35 24.8 10.4C24.8 6.45 21.55 3.2 17.6 3.2H4V30.4C4 31.3 3.3 32 2.4 32C1.5 32 0.8 31.3 0.8 30.4V1.6C0.8 0.699998 1.5 -2.26498e-06 2.4 -2.26498e-06H17.6C23.35 -2.26498e-06 28 4.65 28 10.4C28 16.15 23.35 20.8 17.6 20.8H8.8C7.9 20.8 7.2 20.1 7.2 19.2C7.2 18.3 7.9 17.6 8.8 17.6ZM43.5918 17.6V16C43.5918 15.1 44.2918 14.4 45.1918 14.4H50.7918C53.8918 14.4 56.3918 11.9 56.3918 8.8C56.3918 5.7 53.8918 3.2 50.7918 3.2H35.5918V30.4C35.5918 31.3 34.8918 32 33.9918 32C33.0918 32 32.3918 31.3 32.3918 30.4V1.6C32.3918 0.699998 33.0918 -2.26498e-06 33.9918 -2.26498e-06H50.7918C55.6418 -2.26498e-06 59.5918 3.95 59.5918 8.8C59.5918 13.65 55.6418 17.6 50.7918 17.6H46.7918C46.7918 23.8 51.7918 28.8 57.9918 28.8C58.8918 28.8 59.5918 29.5 59.5918 30.4C59.5918 31.3 58.8918 32 57.9918 32C50.0418 32 43.5918 25.55 43.5918 17.6ZM62.7836 16C62.7836 7.15 69.9336 -2.26498e-06 78.7836 -2.26498e-06C87.6336 -2.26498e-06 94.7836 7.15 94.7836 16C94.7836 24.85 87.6336 32 78.7836 32C69.9336 32 62.7836 24.85 62.7836 16ZM65.9836 16C65.9836 23.05 71.7336 28.8 78.7836 28.8C85.8336 28.8 91.5836 23.05 91.5836 16C91.5836 8.95 85.8336 3.2 78.7836 3.2C71.7336 3.2 65.9836 8.95 65.9836 16ZM102.389 3.2V30.4C102.389 31.3 101.689 32 100.789 32C99.8887 32 99.1887 31.3 99.1887 30.4V1.6C99.1887 0.699998 99.8887 -2.26498e-06 100.789 -2.26498e-06H123.189C124.089 -2.26498e-06 124.789 0.699998 124.789 1.6C124.789 2.5 124.089 3.2 123.189 3.2H102.389ZM119.989 17.6H107.189C106.289 17.6 105.589 16.9 105.589 16C105.589 15.1 106.289 14.4 107.189 14.4H119.989C120.889 14.4 121.589 15.1 121.589 16C121.589 16.9 120.889 17.6 119.989 17.6ZM131.979 3.2V28.8H152.779C153.679 28.8 154.379 29.5 154.379 30.4C154.379 31.3 153.679 32 152.779 32H130.379C129.479 32 128.779 31.3 128.779 30.4V1.6C128.779 0.699998 129.479 -2.26498e-06 130.379 -2.26498e-06H152.779C153.679 -2.26498e-06 154.379 0.699998 154.379 1.6C154.379 2.5 153.679 3.2 152.779 3.2H131.979ZM149.579 17.6H136.779C135.879 17.6 135.179 16.9 135.179 16C135.179 15.1 135.879 14.4 136.779 14.4H149.579C150.479 14.4 151.179 15.1 151.179 16C151.179 16.9 150.479 17.6 149.579 17.6ZM167.968 17.6H166.368C161.518 17.6 157.568 13.65 157.568 8.8C157.568 3.95 161.518 -2.26498e-06 166.368 -2.26498e-06C169.618 -2.26498e-06 172.918 1.25 175.418 3.75C175.718 4.1 175.868 4.5 175.868 4.9C175.868 5.8 175.168 6.5 174.268 6.5C173.868 6.5 173.418 6.35 173.168 6C171.268 4.15 168.818 3.2 166.368 3.2C163.268 3.2 160.768 5.7 160.768 8.8C160.768 11.9 163.268 14.4 166.368 14.4H167.968C172.818 14.4 176.768 18.35 176.768 23.2C176.768 28.05 172.818 32 167.968 32H166.368C163.118 32 159.818 30.75 157.318 28.25C157.018 27.9 156.868 27.5 156.868 27.1C156.868 26.2 157.568 25.5 158.468 25.5C158.868 25.5 159.318 25.65 159.568 26C161.468 27.85 163.918 28.8 166.368 28.8H167.968C171.068 28.8 173.568 26.3 173.568 23.2C173.568 20.1 171.068 17.6 167.968 17.6ZM190.771 17.6H189.171C184.321 17.6 180.371 13.65 180.371 8.8C180.371 3.95 184.321 -2.26498e-06 189.171 -2.26498e-06C192.421 -2.26498e-06 195.721 1.25 198.221 3.75C198.521 4.1 198.671 4.5 198.671 4.9C198.671 5.8 197.971 6.5 197.071 6.5C196.671 6.5 196.221 6.35 195.971 6C194.071 4.15 191.621 3.2 189.171 3.2C186.071 3.2 183.571 5.7 183.571 8.8C183.571 11.9 186.071 14.4 189.171 14.4H190.771C195.621 14.4 199.571 18.35 199.571 23.2C199.571 28.05 195.621 32 190.771 32H189.171C185.921 32 182.621 30.75 180.121 28.25C179.821 27.9 179.671 27.5 179.671 27.1C179.671 26.2 180.371 25.5 181.271 25.5C181.671 25.5 182.121 25.65 182.371 26C184.271 27.85 186.721 28.8 189.171 28.8H190.771C193.871 28.8 196.371 26.3 196.371 23.2C196.371 20.1 193.871 17.6 190.771 17.6ZM203.974 30.4V1.6C203.974 0.699998 204.674 -2.26498e-06 205.574 -2.26498e-06C206.474 -2.26498e-06 207.174 0.699998 207.174 1.6V30.4C207.174 31.3 206.474 32 205.574 32C204.674 32 203.974 31.3 203.974 30.4ZM211.563 16C211.563 7.15 218.713 -2.26498e-06 227.563 -2.26498e-06C236.413 -2.26498e-06 243.563 7.15 243.563 16C243.563 24.85 236.413 32 227.563 32C218.713 32 211.563 24.85 211.563 16ZM214.763 16C214.763 23.05 220.513 28.8 227.563 28.8C234.613 28.8 240.363 23.05 240.363 16C240.363 8.95 234.613 3.2 227.563 3.2C220.513 3.2 214.763 8.95 214.763 16ZM273.568 30.4V28.8C273.568 22.6 268.568 17.6 262.368 17.6C257.818 17.6 253.818 15.55 251.168 12.25V30.4C251.168 31.3 250.468 32 249.568 32C248.668 32 247.968 31.3 247.968 30.4V1.6C247.968 0.699998 248.668 -2.26498e-06 249.568 -2.26498e-06C250.468 -2.26498e-06 251.168 0.699998 251.168 1.6V3.2C251.168 9.4 256.168 14.4 262.368 14.4C266.868 14.4 270.918 16.5 273.568 19.75V1.6C273.568 0.699998 274.268 -2.26498e-06 275.168 -2.26498e-06C276.068 -2.26498e-06 276.768 0.699998 276.768 1.6V30.4C276.768 31.3 276.068 32 275.168 32C274.268 32 273.568 31.3 273.568 30.4ZM307.992 30.4V14.4C307.992 8.2 302.992 3.2 296.792 3.2C290.592 3.2 285.592 8.2 285.592 14.4V30.4C285.592 31.3 284.892 32 283.992 32C283.092 32 282.392 31.3 282.392 30.4V14.4C282.392 6.45 288.842 -2.26498e-06 296.792 -2.26498e-06C304.742 -2.26498e-06 311.192 6.45 311.192 14.4V30.4C311.192 31.3 310.492 32 309.592 32C308.692 32 307.992 31.3 307.992 30.4ZM303.192 20.8H290.392C289.492 20.8 288.792 20.1 288.792 19.2C288.792 18.3 289.492 17.6 290.392 17.6H303.192C304.092 17.6 304.792 18.3 304.792 19.2C304.792 20.1 304.092 20.8 303.192 20.8ZM328.816 28.8H340.016C340.916 28.8 341.616 29.5 341.616 30.4C341.616 31.3 340.916 32 340.016 32H328.816C321.766 32 316.016 26.25 316.016 19.2V1.6C316.016 0.699998 316.716 -2.26498e-06 317.616 -2.26498e-06C318.516 -2.26498e-06 319.216 0.699998 319.216 1.6V19.2C319.216 24.5 323.516 28.8 328.816 28.8ZM370.41 17.6H368.81C363.96 17.6 360.01 13.65 360.01 8.8C360.01 3.95 363.96 -2.26498e-06 368.81 -2.26498e-06C372.06 -2.26498e-06 375.36 1.25 377.86 3.75C378.16 4.1 378.31 4.5 378.31 4.9C378.31 5.8 377.61 6.5 376.71 6.5C376.31 6.5 375.86 6.35 375.61 6C373.71 4.15 371.26 3.2 368.81 3.2C365.71 3.2 363.21 5.7 363.21 8.8C363.21 11.9 365.71 14.4 368.81 14.4H370.41C375.26 14.4 379.21 18.35 379.21 23.2C379.21 28.05 375.26 32 370.41 32H368.81C365.56 32 362.26 30.75 359.76 28.25C359.46 27.9 359.31 27.5 359.31 27.1C359.31 26.2 360.01 25.5 360.91 25.5C361.31 25.5 361.76 25.65 362.01 26C363.91 27.85 366.36 28.8 368.81 28.8H370.41C373.51 28.8 376.01 26.3 376.01 23.2C376.01 20.1 373.51 17.6 370.41 17.6ZM386.813 3.2V28.8H407.613C408.513 28.8 409.213 29.5 409.213 30.4C409.213 31.3 408.513 32 407.613 32H385.213C384.313 32 383.613 31.3 383.613 30.4V1.6C383.613 0.699998 384.313 -2.26498e-06 385.213 -2.26498e-06H407.613C408.513 -2.26498e-06 409.213 0.699998 409.213 1.6C409.213 2.5 408.513 3.2 407.613 3.2H386.813ZM404.413 17.6H391.613C390.713 17.6 390.013 16.9 390.013 16C390.013 15.1 390.713 14.4 391.613 14.4H404.413C405.313 14.4 406.013 15.1 406.013 16C406.013 16.9 405.313 17.6 404.413 17.6ZM424.402 17.6V16C424.402 15.1 425.102 14.4 426.002 14.4H431.602C434.702 14.4 437.202 11.9 437.202 8.8C437.202 5.7 434.702 3.2 431.602 3.2H416.402V30.4C416.402 31.3 415.702 32 414.802 32C413.902 32 413.202 31.3 413.202 30.4V1.6C413.202 0.699998 413.902 -2.26498e-06 414.802 -2.26498e-06H431.602C436.452 -2.26498e-06 440.402 3.95 440.402 8.8C440.402 13.65 436.452 17.6 431.602 17.6H427.602C427.602 23.8 432.602 28.8 438.802 28.8C439.702 28.8 440.402 29.5 440.402 30.4C440.402 31.3 439.702 32 438.802 32C430.852 32 424.402 25.55 424.402 17.6ZM472.794 12.8V17.6C472.794 25.55 466.344 32 458.394 32C450.444 32 443.994 25.55 443.994 17.6V1.6C443.994 0.699998 444.694 -2.26498e-06 445.594 -2.26498e-06C446.494 -2.26498e-06 447.194 0.699998 447.194 1.6V17.6C447.194 23.8 452.194 28.8 458.394 28.8C464.594 28.8 469.594 23.8 469.594 17.6V12.8C469.594 7.5 465.294 3.2 459.994 3.2H458.394C457.494 3.2 456.794 2.5 456.794 1.6C456.794 0.699998 457.494 -2.26498e-06 458.394 -2.26498e-06H459.994C467.044 -2.26498e-06 472.794 5.75 472.794 12.8ZM477.607 30.4V1.6C477.607 0.699998 478.307 -2.26498e-06 479.207 -2.26498e-06C480.107 -2.26498e-06 480.807 0.699998 480.807 1.6V30.4C480.807 31.3 480.107 32 479.207 32C478.307 32 477.607 31.3 477.607 30.4ZM510.246 25.05C510.546 24.75 510.946 24.55 511.346 24.55C512.246 24.55 512.946 25.25 512.946 26.15C512.946 26.55 512.796 27 512.496 27.3C509.346 30.45 505.296 32 501.196 32C492.346 32 485.196 24.85 485.196 16C485.196 7.15 492.346 -2.26498e-06 501.196 -2.26498e-06C505.296 -2.26498e-06 509.346 1.6 512.496 4.7C512.796 5.05 512.946 5.45 512.946 5.85C512.946 6.75 512.246 7.45 511.346 7.45C510.946 7.45 510.496 7.3 510.246 6.95C507.746 4.45 504.446 3.2 501.196 3.2C494.146 3.2 488.396 8.95 488.396 16C488.396 23.05 494.146 28.8 501.196 28.8C504.446 28.8 507.746 27.55 510.246 25.05ZM520.406 3.2V28.8H541.206C542.106 28.8 542.806 29.5 542.806 30.4C542.806 31.3 542.106 32 541.206 32H518.806C517.906 32 517.206 31.3 517.206 30.4V1.6C517.206 0.699998 517.906 -2.26498e-06 518.806 -2.26498e-06H541.206C542.106 -2.26498e-06 542.806 0.699998 542.806 1.6C542.806 2.5 542.106 3.2 541.206 3.2H520.406ZM538.006 17.6H525.206C524.306 17.6 523.606 16.9 523.606 16C523.606 15.1 524.306 14.4 525.206 14.4H538.006C538.906 14.4 539.606 15.1 539.606 16C539.606 16.9 538.906 17.6 538.006 17.6ZM545.996 36.8V30.4C545.996 29.5 546.696 28.8 547.596 28.8C548.496 28.8 549.196 29.5 549.196 30.4V36.8C549.196 37.7 548.496 38.4 547.596 38.4C546.696 38.4 545.996 37.7 545.996 36.8ZM596.759 16C596.759 8.95 591.009 3.2 583.959 3.2C576.909 3.2 571.159 8.95 571.159 16C571.159 23.05 576.909 28.8 583.959 28.8H598.359C599.259 28.8 599.959 29.5 599.959 30.4C599.959 31.3 599.259 32 598.359 32H583.959C575.109 32 567.959 24.85 567.959 16C567.959 7.15 575.109 -2.26498e-06 583.959 -2.26498e-06C592.809 -2.26498e-06 599.959 7.15 599.959 16C599.959 19.25 598.709 22.55 596.209 25.05C595.859 25.35 595.459 25.5 595.059 25.5C594.159 25.5 593.459 24.8 593.459 23.9C593.459 23.5 593.609 23.05 593.959 22.8C595.809 20.9 596.759 18.45 596.759 16ZM630.336 17.6V1.6C630.336 0.699998 631.036 -2.26498e-06 631.936 -2.26498e-06C632.836 -2.26498e-06 633.536 0.699998 633.536 1.6V17.6C633.536 25.55 627.086 32 619.136 32C611.186 32 604.736 25.55 604.736 17.6V1.6C604.736 0.699998 605.436 -2.26498e-06 606.336 -2.26498e-06C607.236 -2.26498e-06 607.936 0.699998 607.936 1.6V17.6C607.936 23.8 612.936 28.8 619.136 28.8C625.336 28.8 630.336 23.8 630.336 17.6ZM638.349 30.4V1.6C638.349 0.699998 639.049 -2.26498e-06 639.949 -2.26498e-06C640.849 -2.26498e-06 641.549 0.699998 641.549 1.6V30.4C641.549 31.3 640.849 32 639.949 32C639.049 32 638.349 31.3 638.349 30.4ZM670.988 25.05C671.288 24.75 671.688 24.55 672.088 24.55C672.988 24.55 673.688 25.25 673.688 26.15C673.688 26.55 673.538 27 673.238 27.3C670.088 30.45 666.038 32 661.938 32C653.088 32 645.938 24.85 645.938 16C645.938 7.15 653.088 -2.26498e-06 661.938 -2.26498e-06C666.038 -2.26498e-06 670.088 1.6 673.238 4.7C673.538 5.05 673.688 5.45 673.688 5.85C673.688 6.75 672.988 7.45 672.088 7.45C671.688 7.45 671.238 7.3 670.988 6.95C668.488 4.45 665.188 3.2 661.938 3.2C654.888 3.2 649.138 8.95 649.138 16C649.138 23.05 654.888 28.8 661.938 28.8C665.188 28.8 668.488 27.55 670.988 25.05ZM692.348 17.6H685.948C685.048 17.6 684.348 16.9 684.348 16C684.348 15.1 685.048 14.4 685.948 14.4H692.348C698.548 14.4 703.548 9.4 703.548 3.2V1.6C703.548 0.699998 704.248 -2.26498e-06 705.148 -2.26498e-06C706.048 -2.26498e-06 706.748 0.699998 706.748 1.6V3.2C706.748 8.8 703.598 13.6 698.948 16C703.598 18.4 706.748 23.25 706.748 28.8V30.4C706.748 31.3 706.048 32 705.148 32C704.248 32 703.548 31.3 703.548 30.4V28.8C703.548 22.6 698.548 17.6 692.348 17.6ZM677.948 30.4V1.6C677.948 0.699998 678.648 -2.26498e-06 679.548 -2.26498e-06C680.448 -2.26498e-06 681.148 0.699998 681.148 1.6V30.4C681.148 31.3 680.448 32 679.548 32C678.648 32 677.948 31.3 677.948 30.4ZM750.578 25.05C750.878 24.75 751.278 24.55 751.678 24.55C752.578 24.55 753.278 25.25 753.278 26.15C753.278 26.55 753.128 27 752.828 27.3C749.678 30.45 745.628 32 741.528 32C732.678 32 725.528 24.85 725.528 16C725.528 7.15 732.678 -2.26498e-06 741.528 -2.26498e-06C745.628 -2.26498e-06 749.678 1.6 752.828 4.7C753.128 5.05 753.278 5.45 753.278 5.85C753.278 6.75 752.578 7.45 751.678 7.45C751.278 7.45 750.828 7.3 750.578 6.95C748.078 4.45 744.778 3.2 741.528 3.2C734.478 3.2 728.728 8.95 728.728 16C728.728 23.05 734.478 28.8 741.528 28.8C744.778 28.8 748.078 27.55 750.578 25.05ZM783.138 30.4V14.4C783.138 8.2 778.138 3.2 771.938 3.2C765.738 3.2 760.738 8.2 760.738 14.4V30.4C760.738 31.3 760.038 32 759.138 32C758.238 32 757.538 31.3 757.538 30.4V14.4C757.538 6.45 763.988 -2.26498e-06 771.938 -2.26498e-06C779.888 -2.26498e-06 786.338 6.45 786.338 14.4V30.4C786.338 31.3 785.638 32 784.738 32C783.838 32 783.138 31.3 783.138 30.4ZM778.338 20.8H765.538C764.638 20.8 763.938 20.1 763.938 19.2C763.938 18.3 764.638 17.6 765.538 17.6H778.338C779.238 17.6 779.938 18.3 779.938 19.2C779.938 20.1 779.238 20.8 778.338 20.8ZM801.562 17.6H799.962C795.112 17.6 791.162 13.65 791.162 8.8C791.162 3.95 795.112 -2.26498e-06 799.962 -2.26498e-06C803.212 -2.26498e-06 806.512 1.25 809.012 3.75C809.312 4.1 809.462 4.5 809.462 4.9C809.462 5.8 808.762 6.5 807.862 6.5C807.462 6.5 807.012 6.35 806.762 6C804.862 4.15 802.412 3.2 799.962 3.2C796.862 3.2 794.362 5.7 794.362 8.8C794.362 11.9 796.862 14.4 799.962 14.4H801.562C806.412 14.4 810.362 18.35 810.362 23.2C810.362 28.05 806.412 32 801.562 32H799.962C796.712 32 793.412 30.75 790.912 28.25C790.612 27.9 790.462 27.5 790.462 27.1C790.462 26.2 791.162 25.5 792.062 25.5C792.462 25.5 792.912 25.65 793.162 26C795.062 27.85 797.512 28.8 799.962 28.8H801.562C804.662 28.8 807.162 26.3 807.162 23.2C807.162 20.1 804.662 17.6 801.562 17.6ZM840.365 30.4V17.6H817.965V30.4C817.965 31.3 817.265 32 816.365 32C815.465 32 814.765 31.3 814.765 30.4V1.6C814.765 0.699998 815.465 -2.26498e-06 816.365 -2.26498e-06C817.265 -2.26498e-06 817.965 0.699998 817.965 1.6V14.4H840.365V1.6C840.365 0.699998 841.065 -2.26498e-06 841.965 -2.26498e-06C842.865 -2.26498e-06 843.565 0.699998 843.565 1.6V30.4C843.565 31.3 842.865 32 841.965 32C841.065 32 840.365 31.3 840.365 30.4ZM847.989 30C847.989 28.9 848.889 28 849.989 28C851.089 28 851.989 28.9 851.989 30C851.989 31.1 851.089 32 849.989 32C848.889 32 847.989 31.1 847.989 30Z" fill="#032C3F"/>
</svg>
