<svg width="461" height="32" viewBox="0 0 461 32" fill="none" xmlns="http://www.w3.org/2000/svg">
<path d="M12.8 28.8H24C24.9 28.8 25.6 29.5 25.6 30.4C25.6 31.3 24.9 32 24 32H12.8C5.75 32 1.41561e-07 26.25 1.41561e-07 19.2V1.6C1.41561e-07 0.699998 0.7 -2.26498e-06 1.6 -2.26498e-06C2.5 -2.26498e-06 3.2 0.699998 3.2 1.6V19.2C3.2 24.5 7.5 28.8 12.8 28.8ZM32.8086 3.2V28.8H53.6086C54.5086 28.8 55.2086 29.5 55.2086 30.4C55.2086 31.3 54.5086 32 53.6086 32H31.2086C30.3086 32 29.6086 31.3 29.6086 30.4V1.6C29.6086 0.699998 30.3086 -2.26498e-06 31.2086 -2.26498e-06H53.6086C54.5086 -2.26498e-06 55.2086 0.699998 55.2086 1.6C55.2086 2.5 54.5086 3.2 53.6086 3.2H32.8086ZM50.4086 17.6H37.6086C36.7086 17.6 36.0086 16.9 36.0086 16C36.0086 15.1 36.7086 14.4 37.6086 14.4H50.4086C51.3086 14.4 52.0086 15.1 52.0086 16C52.0086 16.9 51.3086 17.6 50.4086 17.6ZM81.1871 17.6H73.9871C73.0871 17.6 72.3871 16.9 72.3871 16C72.3871 15.1 73.0871 14.4 73.9871 14.4H82.7871C83.6871 14.4 84.3871 15.1 84.3871 16V30.4C84.3871 31.3 83.6871 32 82.7871 32C81.8871 32 81.1871 31.3 81.1871 30.4V17.6ZM76.3871 32H72.3871C63.5371 32 56.3871 24.85 56.3871 16C56.3871 7.15 63.5371 -2.26498e-06 72.3871 -2.26498e-06C76.4871 -2.26498e-06 80.5371 1.6 83.6871 4.7C83.9871 5.05 84.1371 5.45 84.1371 5.85C84.1371 6.75 83.4371 7.45 82.5371 7.45C82.1371 7.45 81.6871 7.3 81.4371 6.95C78.9371 4.45 75.6371 3.2 72.3871 3.2C65.3371 3.2 59.5871 8.95 59.5871 16C59.5871 23.05 65.3371 28.8 72.3871 28.8C76.8871 28.8 76.3871 28.8 76.3871 28.8C77.2871 28.8 77.9871 29.5 77.9871 30.4C77.9871 31.3 77.2871 32 76.3871 32ZM90.009 30.4V1.6C90.009 0.699998 90.709 -2.26498e-06 91.609 -2.26498e-06C92.509 -2.26498e-06 93.209 0.699998 93.209 1.6V30.4C93.209 31.3 92.509 32 91.609 32C90.709 32 90.009 31.3 90.009 30.4ZM109.998 22.4V3.2H98.798C97.898 3.2 97.198 2.5 97.198 1.6C97.198 0.699998 97.898 -2.26498e-06 98.798 -2.26498e-06H124.398C125.298 -2.26498e-06 125.998 0.699998 125.998 1.6C125.998 2.5 125.298 3.2 124.398 3.2H113.198V22.4C113.198 25.95 116.048 28.8 119.598 28.8C120.498 28.8 121.198 29.5 121.198 30.4C121.198 31.3 120.498 32 119.598 32C114.298 32 109.998 27.7 109.998 22.4ZM169.035 25.05C169.335 24.75 169.735 24.55 170.135 24.55C171.035 24.55 171.735 25.25 171.735 26.15C171.735 26.55 171.585 27 171.285 27.3C168.135 30.45 164.085 32 159.985 32C151.135 32 143.985 24.85 143.985 16C143.985 7.15 151.135 -2.26498e-06 159.985 -2.26498e-06C164.085 -2.26498e-06 168.135 1.6 171.285 4.7C171.585 5.05 171.735 5.45 171.735 5.85C171.735 6.75 171.035 7.45 170.135 7.45C169.735 7.45 169.285 7.3 169.035 6.95C166.535 4.45 163.235 3.2 159.985 3.2C152.935 3.2 147.185 8.95 147.185 16C147.185 23.05 152.935 28.8 159.985 28.8C163.235 28.8 166.535 27.55 169.035 25.05ZM201.595 30.4V14.4C201.595 8.2 196.595 3.2 190.395 3.2C184.195 3.2 179.195 8.2 179.195 14.4V30.4C179.195 31.3 178.495 32 177.595 32C176.695 32 175.995 31.3 175.995 30.4V14.4C175.995 6.45 182.445 -2.26498e-06 190.395 -2.26498e-06C198.345 -2.26498e-06 204.795 6.45 204.795 14.4V30.4C204.795 31.3 204.095 32 203.195 32C202.295 32 201.595 31.3 201.595 30.4ZM196.795 20.8H183.995C183.095 20.8 182.395 20.1 182.395 19.2C182.395 18.3 183.095 17.6 183.995 17.6H196.795C197.695 17.6 198.395 18.3 198.395 19.2C198.395 20.1 197.695 20.8 196.795 20.8ZM220.019 17.6H218.419C213.569 17.6 209.619 13.65 209.619 8.8C209.619 3.95 213.569 -2.26498e-06 218.419 -2.26498e-06C221.669 -2.26498e-06 224.969 1.25 227.469 3.75C227.769 4.1 227.919 4.5 227.919 4.9C227.919 5.8 227.219 6.5 226.319 6.5C225.919 6.5 225.469 6.35 225.219 6C223.319 4.15 220.869 3.2 218.419 3.2C215.319 3.2 212.819 5.7 212.819 8.8C212.819 11.9 215.319 14.4 218.419 14.4H220.019C224.869 14.4 228.819 18.35 228.819 23.2C228.819 28.05 224.869 32 220.019 32H218.419C215.169 32 211.869 30.75 209.369 28.25C209.069 27.9 208.919 27.5 208.919 27.1C208.919 26.2 209.619 25.5 210.519 25.5C210.919 25.5 211.369 25.65 211.619 26C213.519 27.85 215.969 28.8 218.419 28.8H220.019C223.119 28.8 225.619 26.3 225.619 23.2C225.619 20.1 223.119 17.6 220.019 17.6ZM258.822 30.4V17.6H236.422V30.4C236.422 31.3 235.722 32 234.822 32C233.922 32 233.222 31.3 233.222 30.4V1.6C233.222 0.699998 233.922 -2.26498e-06 234.822 -2.26498e-06C235.722 -2.26498e-06 236.422 0.699998 236.422 1.6V14.4H258.822V1.6C258.822 0.699998 259.522 -2.26498e-06 260.422 -2.26498e-06C261.322 -2.26498e-06 262.022 0.699998 262.022 1.6V30.4C262.022 31.3 261.322 32 260.422 32C259.522 32 258.822 31.3 258.822 30.4ZM310.031 8.8C310.031 11.45 308.831 13.85 306.981 15.45C309.731 16.95 311.631 19.85 311.631 23.2C311.631 28.05 307.681 32 302.831 32H284.431C283.531 32 282.831 31.3 282.831 30.4V1.6C282.831 0.699998 283.531 -2.26498e-06 284.431 -2.26498e-06H301.231C306.081 -2.26498e-06 310.031 3.95 310.031 8.8ZM286.031 3.2V28.8H302.831C305.931 28.8 308.431 26.3 308.431 23.2C308.431 20.1 305.931 17.6 302.831 17.6H290.831C289.931 17.6 289.231 16.9 289.231 16C289.231 15.1 289.931 14.4 290.831 14.4H301.231C304.331 14.4 306.831 11.9 306.831 8.8C306.831 5.7 304.331 3.2 301.231 3.2H286.031ZM340.834 17.6V1.6C340.834 0.699998 341.534 -2.26498e-06 342.434 -2.26498e-06C343.334 -2.26498e-06 344.034 0.699998 344.034 1.6V17.6C344.034 25.55 337.584 32 329.634 32C321.684 32 315.234 25.55 315.234 17.6V1.6C315.234 0.699998 315.934 -2.26498e-06 316.834 -2.26498e-06C317.734 -2.26498e-06 318.434 0.699998 318.434 1.6V17.6C318.434 23.8 323.434 28.8 329.634 28.8C335.834 28.8 340.834 23.8 340.834 17.6ZM373.247 3.2V1.6C373.247 0.699998 373.947 -2.26498e-06 374.847 -2.26498e-06C375.747 -2.26498e-06 376.447 0.699998 376.447 1.6V3.2C376.447 11.15 369.997 17.6 362.047 17.6C354.097 17.6 347.647 11.15 347.647 3.2V1.6C347.647 0.699998 348.347 -2.26498e-06 349.247 -2.26498e-06C350.147 -2.26498e-06 350.847 0.699998 350.847 1.6V3.2C350.847 9.4 355.847 14.4 362.047 14.4C368.247 14.4 373.247 9.4 373.247 3.2ZM360.447 30.4V22.4C360.447 21.5 361.147 20.8 362.047 20.8C362.947 20.8 363.647 21.5 363.647 22.4V30.4C363.647 31.3 362.947 32 362.047 32C361.147 32 360.447 31.3 360.447 30.4ZM384.029 3.2V28.8H404.829C405.729 28.8 406.429 29.5 406.429 30.4C406.429 31.3 405.729 32 404.829 32H382.429C381.529 32 380.829 31.3 380.829 30.4V1.6C380.829 0.699998 381.529 -2.26498e-06 382.429 -2.26498e-06H404.829C405.729 -2.26498e-06 406.429 0.699998 406.429 1.6C406.429 2.5 405.729 3.2 404.829 3.2H384.029ZM401.629 17.6H388.829C387.929 17.6 387.229 16.9 387.229 16C387.229 15.1 387.929 14.4 388.829 14.4H401.629C402.529 14.4 403.229 15.1 403.229 16C403.229 16.9 402.529 17.6 401.629 17.6ZM421.619 17.6V16C421.619 15.1 422.319 14.4 423.219 14.4H428.819C431.919 14.4 434.419 11.9 434.419 8.8C434.419 5.7 431.919 3.2 428.819 3.2H413.619V30.4C413.619 31.3 412.919 32 412.019 32C411.119 32 410.419 31.3 410.419 30.4V1.6C410.419 0.699998 411.119 -2.26498e-06 412.019 -2.26498e-06H428.819C433.669 -2.26498e-06 437.619 3.95 437.619 8.8C437.619 13.65 433.669 17.6 428.819 17.6H424.819C424.819 23.8 429.819 28.8 436.019 28.8C436.919 28.8 437.619 29.5 437.619 30.4C437.619 31.3 436.919 32 436.019 32C428.069 32 421.619 25.55 421.619 17.6ZM451.611 17.6H450.011C445.161 17.6 441.211 13.65 441.211 8.8C441.211 3.95 445.161 -2.26498e-06 450.011 -2.26498e-06C453.261 -2.26498e-06 456.561 1.25 459.061 3.75C459.361 4.1 459.511 4.5 459.511 4.9C459.511 5.8 458.811 6.5 457.911 6.5C457.511 6.5 457.061 6.35 456.811 6C454.911 4.15 452.461 3.2 450.011 3.2C446.911 3.2 444.411 5.7 444.411 8.8C444.411 11.9 446.911 14.4 450.011 14.4H451.611C456.461 14.4 460.411 18.35 460.411 23.2C460.411 28.05 456.461 32 451.611 32H450.011C446.761 32 443.461 30.75 440.961 28.25C440.661 27.9 440.511 27.5 440.511 27.1C440.511 26.2 441.211 25.5 442.111 25.5C442.511 25.5 442.961 25.65 443.211 26C445.111 27.85 447.561 28.8 450.011 28.8H451.611C454.711 28.8 457.211 26.3 457.211 23.2C457.211 20.1 454.711 17.6 451.611 17.6Z" fill="#F07659"/>
</svg>
