<svg width="236" height="105" viewBox="0 0 236 105" fill="none" xmlns="http://www.w3.org/2000/svg">
<g clip-path="url(#clip0_76_30)">
<path d="M129.996 21.2332C121.631 21.2332 114.821 28.3833 114.821 37.153V53.0334H118.128V37.153C118.128 30.2004 123.462 24.5317 130.015 24.5317C136.569 24.5317 141.057 29.9634 141.057 37.153V52.5988H144.363V37.153C144.363 28.0672 138.203 21.2332 130.035 21.2332H129.996Z" fill="#F37455"/>
<path d="M165.659 56.4109C157.294 56.4109 150.484 63.561 150.484 72.3308V87.7766H153.791V72.3308C153.791 65.3782 159.124 59.7094 165.678 59.7094C172.232 59.7094 176.719 65.1411 176.719 72.3308V87.7766H180.026V72.3308C180.026 63.245 173.866 56.4109 165.698 56.4109H165.659Z" fill="#012C3E"/>
<path d="M221.672 56.4109C213.307 56.4109 206.498 63.561 206.498 72.3308V87.7766H209.804V72.3308C209.804 65.3782 215.138 59.7094 221.692 59.7094C228.246 59.7094 232.733 65.1411 232.733 72.3308V87.7766H236.039V72.3308C236.039 63.245 229.879 56.4109 221.711 56.4109H221.672Z" fill="#012C3E"/>
<path d="M157.609 36.5012C157.609 45.4487 164.734 52.7173 173.472 52.7173H180.597V49.399H173.472C166.544 49.399 160.896 43.6118 160.896 36.5012C160.896 29.3906 166.308 24.5119 173.472 24.5119H180.597V21.1936H173.472C164.419 21.1936 157.609 27.7709 157.609 36.5012Z" fill="#F37455"/>
<path d="M146.981 72.9034C146.981 63.9559 139.856 56.6873 131.118 56.6873H114.802V60.0055H131.118C138.046 60.0055 143.694 65.7928 143.694 72.9034C143.694 80.014 138.282 84.8927 131.118 84.8927H114.802V88.211H131.118C140.171 88.211 146.981 81.6336 146.981 72.9034Z" fill="#012C3E"/>
<path d="M228.895 24.3737H236.02V21.0554H228.895C219.842 21.0554 213.032 27.6327 213.032 36.363C213.032 40.6886 214.685 44.7574 217.677 47.819C220.668 50.8805 224.663 52.5791 228.915 52.5791H236.039V49.2608H228.915C225.569 49.2608 222.42 47.9177 220.038 45.4883C218.169 43.5723 216.988 41.1824 216.535 38.5752H230.292V35.2569H216.378C216.929 28.9758 222.125 24.354 228.895 24.354V24.3737Z" fill="#F37455"/>
<path d="M152.728 21.6084H149.421V52.5791H152.728V21.6084Z" fill="#F37455"/>
<path d="M118.108 63.166H114.802V88.2112H118.108V63.166Z" fill="#012C3E"/>
<path d="M203.821 57.1218H180.656V60.4401H203.821V57.1218Z" fill="#012C3E"/>
<path d="M176.818 73.2788H161.466V76.5971H176.818V73.2788Z" fill="#012C3E"/>
<path d="M233.087 73.2788H216.417V76.5971H233.087V73.2788Z" fill="#012C3E"/>
<path d="M188.765 21.6084H185.458V52.5988H188.765V39.4047H202.345V36.0864H188.765V21.6084Z" fill="#F37455"/>
<path d="M208.623 21.6084H205.317V52.3025H208.623V21.6084Z" fill="#F37455"/>
<path d="M194.492 57.1218H191.185V87.816H194.492V57.1218Z" fill="#012C3E"/>
<path d="M52.3132 105C23.4603 105 0 81.456 0 52.5C0 23.544 23.4603 0 52.3132 0C81.1662 0 104.626 23.544 104.626 52.5C104.626 81.456 81.1662 105 52.3132 105ZM52.3132 3.95034C25.6449 3.95034 3.93629 25.7365 3.93629 52.5C3.93629 79.2635 25.6449 101.05 52.3132 101.05C78.9816 101.05 100.69 79.2635 100.69 52.5C100.69 25.7365 78.9816 3.95034 52.3132 3.95034Z" fill="#012C3E"/>
<path d="M84.2381 84.5393C101.87 66.8445 101.87 38.1555 84.2381 20.4607C66.6063 2.76592 38.0194 2.76592 20.3875 20.4607C2.75566 38.1555 2.75566 66.8445 20.3875 84.5393C38.0194 102.234 66.6063 102.234 84.2381 84.5393Z" fill="#012C3E"/>
<path d="M61.5438 61.4081H57.4501V42.3082C57.4501 33.4199 51.585 26.7043 43.8108 26.7043C36.0367 26.7043 29.1088 33.6964 29.1088 42.3082V61.4081H25.0151V42.3082C25.0151 31.4447 33.4387 22.6157 43.7912 22.6157C54.1436 22.6157 61.5241 31.0892 61.5241 42.3082V61.4081H61.5438Z" fill="#F37455"/>
<path d="M61.2486 43.197H42.2166V47.3054H61.2486C69.8297 47.3054 76.7969 53.9222 76.7969 62.0599C76.7969 70.1976 70.1052 75.7478 61.2486 75.7478H46.2907V50.7817H42.197V79.8562H61.2289C72.4276 79.8562 80.8513 72.2123 80.8513 62.0599C80.8513 51.9075 72.0537 43.2168 61.2289 43.2168L61.2486 43.197Z" fill="white"/>
</g>
<defs>
<clipPath id="clip0_76_30">
<rect width="236" height="105" fill="white"/>
</clipPath>
</defs>
</svg>
