<svg width="956" height="956" viewBox="0 0 956 956" fill="none" xmlns="http://www.w3.org/2000/svg">
<g clip-path="url(#clip0_1_10)">
<path d="M477.487 880.649C699.595 880.649 879.649 700.595 879.649 478.487C879.649 256.378 699.595 76.3243 477.487 76.3243C255.378 76.3243 75.3243 256.378 75.3243 478.487C75.3243 700.595 255.378 880.649 477.487 880.649Z" fill="#F07659"/>
<path d="M469.946 641.079H322.905C318.35 641.079 314.736 637.388 314.736 632.911V492.311H277.976C272.557 492.311 268.158 487.912 268.158 482.492C268.158 479.9 269.179 477.387 270.986 475.58L468.689 275.52C473.481 270.65 481.257 270.65 486.127 275.442L486.205 275.52L589.495 379.438V360.194C589.495 355.639 593.187 352.025 597.664 352.025H631.989C636.545 352.025 640.158 355.717 640.158 360.194V430.808L684.066 475.58C687.836 479.429 687.836 485.713 683.909 489.483C682.102 491.29 679.589 492.311 676.997 492.311H640.158V632.832C640.158 637.388 636.466 641.001 631.989 641.001H484.87L515.503 610.446H543.78C545.98 616.573 551.792 620.971 558.704 620.971C567.423 620.971 574.571 613.902 574.571 605.183C574.571 596.465 567.502 589.395 558.704 589.395C551.792 589.395 545.901 593.794 543.78 599.921H511.105L482.671 628.355V593.715L516.525 559.862H571.272C573.471 565.988 579.284 570.387 586.196 570.387C594.915 570.387 602.063 563.318 602.063 554.599C602.063 545.88 594.993 538.811 586.196 538.811C579.284 538.811 573.393 543.21 571.272 549.336H527.128L558.783 517.76V491.368L581.562 468.668C583.604 469.689 585.96 470.239 588.395 470.239C597.114 470.239 604.262 463.17 604.262 454.451C604.262 445.732 597.193 438.663 588.395 438.663C579.677 438.663 572.529 445.732 572.529 454.451C572.529 456.886 573.079 459.242 574.1 461.285L558.783 476.523V428.216C564.91 426.017 569.387 420.204 569.387 413.292C569.387 404.574 562.318 397.504 553.52 397.504C544.802 397.504 537.654 404.574 537.654 413.292C537.654 420.204 542.052 426.017 548.258 428.216V476.523L532.941 461.206C533.962 459.164 534.512 456.807 534.512 454.373C534.512 445.654 527.443 438.585 518.645 438.585C509.848 438.585 502.779 445.654 502.779 454.373C502.779 463.091 509.848 470.161 518.645 470.161C521.08 470.161 523.437 469.611 525.479 468.59L548.258 491.29V513.283L519.745 541.796V520.902C525.872 518.703 530.349 512.89 530.349 505.978C530.349 497.259 523.28 490.19 514.482 490.19C505.764 490.19 498.616 497.259 498.616 505.978C498.616 512.89 503.014 518.703 509.22 520.902V552.321L482.828 578.713V423.818L504.507 402.139C506.549 403.16 508.905 403.709 511.34 403.709C520.059 403.709 527.207 396.64 527.207 387.922C527.207 379.203 520.138 372.133 511.34 372.133C502.622 372.133 495.474 379.203 495.474 387.922C495.474 390.356 496.024 392.713 497.045 394.755L477.565 414.235L458.085 394.755C459.106 392.713 459.656 390.356 459.656 387.922C459.656 379.203 452.587 372.133 443.79 372.133C435.071 372.133 427.923 379.203 427.923 387.922C427.923 396.64 434.992 403.709 443.79 403.709C446.225 403.709 448.581 403.16 450.623 402.139L472.302 423.818V534.412L434.285 496.474V466.155C440.412 463.955 444.889 458.143 444.889 451.231C444.889 442.512 437.82 435.443 429.023 435.443C420.304 435.443 413.156 442.512 413.156 451.231C413.156 458.143 417.555 463.955 423.76 466.155V485.949L394.148 456.415V427.117C400.275 424.917 404.752 419.105 404.752 412.193C404.752 403.474 397.682 396.405 388.885 396.405C380.166 396.405 373.019 403.474 373.019 412.193C373.019 419.105 377.417 424.917 383.622 427.117V460.813L416.298 493.411H397.525C395.326 487.284 389.514 482.885 382.601 482.885C373.883 482.885 366.735 489.954 366.735 498.673C366.735 507.392 373.804 514.461 382.601 514.461C389.514 514.461 395.405 510.063 397.525 503.936H426.902L472.381 549.336V628.276L448.11 604.005V573.607C454.237 571.408 458.714 565.595 458.714 558.683C458.714 549.965 451.644 542.895 442.847 542.895C434.128 542.895 426.981 549.965 426.981 558.683C426.981 565.595 431.379 571.408 437.584 573.607V593.401L402.238 558.134C403.259 556.091 403.809 553.735 403.809 551.3C403.809 542.581 396.74 535.512 387.943 535.512C379.224 535.512 372.076 542.581 372.076 551.3C372.076 560.019 379.145 567.088 387.943 567.088C390.378 567.088 392.734 566.538 394.776 565.517L430.122 600.785H411.35C409.15 594.658 403.338 590.259 396.426 590.259C387.707 590.259 380.559 597.329 380.559 606.047C380.559 614.766 387.628 621.835 396.426 621.835C403.338 621.835 409.229 617.437 411.35 611.31H440.726L469.946 641.079ZM388.65 405.83C385.115 405.83 382.287 408.658 382.287 412.193C382.287 415.649 385.115 418.555 388.65 418.555C392.184 418.555 395.012 415.727 395.012 412.193C395.012 408.658 392.184 405.83 388.65 405.83ZM428.787 444.868C425.253 444.868 422.425 447.696 422.425 451.231C422.425 454.687 425.253 457.593 428.787 457.593C432.322 457.593 435.15 454.765 435.15 451.231C435.15 447.696 432.322 444.868 428.787 444.868ZM443.633 381.559C440.098 381.559 437.27 384.387 437.27 387.922C437.27 391.456 440.098 394.284 443.633 394.284C447.167 394.284 449.995 391.456 449.995 387.922C449.995 384.387 447.089 381.559 443.633 381.559ZM588.395 460.656C591.93 460.656 594.758 457.829 594.758 454.294C594.758 450.759 591.93 447.932 588.395 447.932C584.861 447.932 582.033 450.759 582.033 454.294C582.033 457.829 584.861 460.656 588.395 460.656ZM511.262 394.205C514.796 394.205 517.624 391.378 517.624 387.843C517.624 384.308 514.796 381.481 511.262 381.481C507.727 381.481 504.9 384.308 504.9 387.843C504.9 391.378 507.727 394.205 511.262 394.205ZM518.645 448.01C515.111 448.01 512.283 450.838 512.283 454.373C512.283 457.907 515.111 460.735 518.645 460.735C522.18 460.735 525.008 457.907 525.008 454.373C525.008 450.838 522.101 448.01 518.645 448.01ZM382.287 492.311C378.753 492.311 375.925 495.139 375.925 498.673C375.925 502.129 378.753 505.036 382.287 505.036C385.822 505.036 388.65 502.208 388.65 498.673C388.65 495.139 385.822 492.311 382.287 492.311ZM586.275 560.883C589.809 560.883 592.637 558.055 592.637 554.52C592.637 550.986 589.809 548.158 586.275 548.158C582.74 548.158 579.912 550.986 579.912 554.52C579.912 558.055 582.74 560.883 586.275 560.883ZM553.52 406.93C549.986 406.93 547.158 409.758 547.158 413.292C547.158 416.748 549.986 419.655 553.52 419.655C557.055 419.655 559.883 416.827 559.883 413.292C559.804 409.758 556.976 406.93 553.52 406.93ZM514.404 499.694C510.869 499.694 508.041 502.522 508.041 506.057C508.041 509.591 510.869 512.419 514.404 512.419C517.938 512.419 520.766 509.591 520.766 506.057C520.766 502.522 517.938 499.694 514.404 499.694ZM387.628 545.095C384.094 545.095 381.266 547.922 381.266 551.457C381.266 554.913 384.094 557.819 387.628 557.819C391.163 557.819 393.991 554.992 393.991 551.457C393.912 547.922 391.084 545.095 387.628 545.095ZM396.033 599.921C392.498 599.921 389.671 602.748 389.671 606.283C389.671 609.739 392.498 612.645 396.033 612.645C399.568 612.645 402.395 609.818 402.395 606.283C402.395 602.748 399.568 599.921 396.033 599.921ZM558.783 611.546C562.318 611.546 565.145 608.718 565.145 605.183C565.145 601.727 562.318 598.821 558.783 598.821C555.248 598.821 552.421 601.649 552.421 605.183C552.421 608.718 555.248 611.546 558.783 611.546ZM442.533 552.478C438.998 552.478 436.171 555.306 436.171 558.84C436.171 562.296 438.998 565.203 442.533 565.203C446.068 565.203 448.895 562.375 448.895 558.84C448.895 555.306 446.068 552.478 442.533 552.478Z" fill="white"/>
</g>
<circle cx="478" cy="478" r="460.5" stroke="#F07659" stroke-width="35"/>
<defs>
<clipPath id="clip0_1_10">
<rect width="804.324" height="804.324" fill="white" transform="translate(75.3243 76.3243)"/>
</clipPath>
</defs>
</svg>
